<?xml version="1.0" encoding="utf-8"?>
<!-- Generator: Adobe Illustrator 16.0.0, SVG Export Plug-In . SVG Version: 6.00 Build 0)  -->
<!DOCTYPE svg PUBLIC "-//W3C//DTD SVG 1.1//EN" "http://www.w3.org/Graphics/SVG/1.1/DTD/svg11.dtd">
<svg version="1.1" id="Layer_1" xmlns="http://www.w3.org/2000/svg" xmlns:xlink="http://www.w3.org/1999/xlink" x="0px" y="0px"
	 width="644.968px" height="587.971px" viewBox="0 0 644.968 587.971" enable-background="new 0 0 644.968 587.971"
	 xml:space="preserve">
<polygon fill="#E6E7E8" points="304.967,45.361 11.182,216.859 11.182,307.974 11.182,456.662 304.988,283.673 "/>
<polygon fill="#754C29" points="636.968,463.679 452.978,577.191 310.978,497.526 203.979,563.366 11.978,457.192 304.978,276.859 
	"/>
<polygon fill="#939598" points="291.696,279.703 191.865,224.699 184.311,229.025 191.73,233.05 189.795,352.569 283.995,405.827 
	283.994,414.353 291.666,410.062 "/>
<polygon fill="#BCBEC0" points="304.741,45.312 401.39,7.488 492.671,140.361 492.671,382.526 304.741,277.205 "/>
<polygon fill="#BCBEC0" points="490.242,251.697 636.978,332.46 636.978,463.679 490.242,381.224 "/>
<polygon fill="#464648" points="192.901,377.345 226.077,396.324 226.077,393.058 192.901,374.079 "/>
<g>
	<polygon fill="#FFFFFF" points="138.216,323.26 168.924,305.004 168.924,241.244 138.216,259.33 	"/>
	<polygon fill="#2E9B7F" points="143.25,312.842 150.803,308.283 150.803,257.444 143.25,262.002 	"/>
	<polygon fill="#2E9B7F" points="156.841,304.843 164.394,300.284 164.394,249.446 156.841,254.006 	"/>
</g>
<polygon fill="#BCBEC0" points="184.312,228.859 283.978,283.96 283.978,414.359 184.312,357.896 "/>
<g>
	<g>
		<polygon fill="#464648" points="192.901,377.354 156.337,398.603 156.337,390.313 192.901,369.065 		"/>
		<polygon fill="#D1D3D4" points="193.071,374.83 159.29,394.423 159.29,353.199 193.071,333.604 		"/>
		<polygon opacity="0.3" fill="#464648" enable-background="new    " points="192.965,342.103 159.248,361.894 159.248,353.604 
			192.965,333.813 		"/>
		<polygon opacity="0.3" fill="#464648" enable-background="new    " points="192.965,374.851 192.516,375.172 192.516,342.354 
			192.965,342.033 		"/>
		<polygon fill="#464648" points="162.392,392.925 161.941,393.246 161.941,352.813 162.392,352.492 		"/>
		<polygon opacity="0.3" fill="#464648" enable-background="new    " points="192.58,357.063 159.376,376.729 159.376,376.196 
			192.58,356.531 		"/>
		<polygon fill="#F1F2F2" points="161.737,352.912 130.058,334.933 161.341,316.569 193.019,334.549 		"/>
		<polygon fill="#656768" points="161.995,354.675 161.997,352.771 193.03,334.548 193.027,336.454 		"/>
		<g>
			<path fill="#5A5B5B" d="M185.57,355.618c0,0-0.054-0.337,0.132-0.576c0.186-0.24,0.5-0.241,0.5-0.241l1.666,1.288l-0.631,0.816
				L185.57,355.618z"/>
		</g>
		<g>
			<path fill="#B7B7B7" d="M185.741,347.722c0,0-0.053-0.336,0.132-0.576c0.186-0.239,0.499-0.24,0.499-0.24l1.666,1.287
				l-0.63,0.817L185.741,347.722z"/>
		</g>
		<polygon fill="#B7B7B7" points="188.036,356.396 187.226,356.903 187.226,348.69 188.036,348.185 		"/>
		<g>
			<path fill="#5A5B5B" d="M185.57,372.827c0,0-0.054-0.336,0.132-0.576s0.5-0.241,0.5-0.241l1.666,1.288l-0.631,0.816
				L185.57,372.827z"/>
		</g>
		<g>
			<path fill="#B7B7B7" d="M185.741,364.931c0,0-0.053-0.336,0.132-0.576c0.186-0.239,0.499-0.24,0.499-0.24l1.666,1.287
				l-0.63,0.816L185.741,364.931z"/>
		</g>
		<polygon fill="#B7B7B7" points="188.036,373.604 187.226,374.112 187.226,365.899 188.036,365.394 		"/>
	</g>
</g>
<g>
	<polygon fill="#464648" points="130.935,373.054 105.849,358.847 105.852,356.999 130.938,371.207 	"/>
</g>
<g>
	<polygon fill="#656768" points="130.864,421.248 105.821,407.121 105.821,356.906 130.864,371.033 	"/>
	<g>
		<polygon fill="#A1A0A0" points="161.938,403.048 130.935,421.246 130.935,372.797 161.938,354.599 		"/>
		<polygon opacity="0.3" fill="#464648" enable-background="new    " points="161.95,361.951 130.892,380.464 130.892,372.175 
			161.95,353.661 		"/>
		<polygon fill="#656768" points="159.568,399.534 134.396,414.603 134.396,380.698 159.568,365.801 		"/>
		<polygon points="161.95,364.364 130.892,382.877 130.892,380.435 161.95,361.921 		"/>
		<polygon fill="#464648" points="157.771,391.313 136.709,403.986 136.709,383.267 157.771,370.767 		"/>
		<polygon fill="#A1A0A0" points="130.978,371.166 99.149,353.062 130.182,334.84 162.009,352.944 		"/>
		<polygon fill="#656768" points="130.985,373.069 130.987,371.165 162.021,352.942 162.017,354.849 		"/>
		<polygon fill="#5D5E5E" points="130.314,369.217 108.46,356.872 137.099,339.983 158.889,352.366 		"/>
		<g>
			<ellipse fill="none" stroke="#BABABA" stroke-miterlimit="10" cx="149.665" cy="352.463" rx="5.073" ry="3.146"/>
			<ellipse fill="none" stroke="#BABABA" stroke-miterlimit="10" cx="136.693" cy="347.583" rx="5.073" ry="3.018"/>
			<ellipse fill="none" stroke="#BABABA" stroke-miterlimit="10" cx="119.164" cy="355.93" rx="5.009" ry="2.889"/>
			<ellipse fill="none" stroke="#BABABA" stroke-miterlimit="10" cx="130.979" cy="360.939" rx="7.834" ry="4.431"/>
			<ellipse fill="none" stroke="#BABABA" stroke-miterlimit="10" cx="136.758" cy="347.711" rx="7.833" ry="4.431"/>
		</g>
		<g>
			<path fill="#464648" d="M135.81,374.735l0.475-1.478l-1.52-0.856l0,0c-0.211-0.109-0.441-0.172-0.684-0.172
				c-0.969,0-1.754,0.979-1.754,2.184c0,0.861,0.404,1.6,0.987,1.955l-0.006,0.014l1.67,0.942l0.528-1.647
				C135.665,375.403,135.769,375.083,135.81,374.735z"/>
			<ellipse fill="#C4C4C3" cx="135.708" cy="375.334" rx="1.754" ry="2.183"/>
		</g>
		<g>
			<path fill="#464648" d="M140.369,372.103l0.475-1.478l-1.521-0.856l0,0c-0.21-0.11-0.44-0.172-0.684-0.172
				c-0.969,0-1.754,0.979-1.754,2.185c0,0.86,0.404,1.6,0.987,1.954l-0.005,0.016l1.67,0.941l0.528-1.646
				C140.224,372.771,140.327,372.451,140.369,372.103z"/>
			<ellipse fill="#C4C4C3" cx="140.267" cy="372.701" rx="1.755" ry="2.183"/>
		</g>
		<g>
			<path fill="#464648" d="M155.009,363.306l0.476-1.478l-1.521-0.856l0,0c-0.21-0.111-0.441-0.171-0.683-0.171
				c-0.97,0-1.755,0.978-1.755,2.183c0,0.863,0.404,1.602,0.987,1.955l-0.005,0.016l1.67,0.941l0.529-1.646
				C154.864,363.974,154.968,363.653,155.009,363.306z"/>
			<ellipse fill="#C4C4C3" cx="154.907" cy="363.904" rx="1.754" ry="2.184"/>
		</g>
		<g>
			<path fill="#464648" d="M159.569,360.673l0.474-1.479l-1.52-0.856l0,0c-0.21-0.11-0.44-0.171-0.684-0.171
				c-0.969,0-1.755,0.979-1.755,2.184c0,0.861,0.405,1.6,0.988,1.955l-0.006,0.014l1.67,0.941l0.529-1.646
				C159.423,361.341,159.526,361.021,159.569,360.673z"/>
			<ellipse fill="#C4C4C3" cx="159.467" cy="361.271" rx="1.755" ry="2.183"/>
		</g>
		<polygon points="161.95,395.015 130.892,413.529 130.892,411.086 161.95,392.571 		"/>
		<polygon fill="#515251" points="157.749,391.399 136.751,403.986 136.687,386.604 143.237,382.86 		"/>
		<polygon opacity="0.2" fill="#FFFFFF" enable-background="new    " points="157.771,391.313 136.709,403.986 157.771,370.767 		
			"/>
		<polygon opacity="0.1" fill="#FFFFFF" enable-background="new    " points="158.761,352.292 130.314,369.329 137.249,340.048 		
			"/>
	</g>
</g>
<polygon fill="#D1D3D4" points="192.976,374.83 218.673,389.813 218.673,350.255 192.976,335.272 "/>
<polygon opacity="0.3" fill="#464648" enable-background="new    " points="192.965,342.149 218.244,357.021 218.244,350.233 
	192.965,335.362 "/>
<polygon fill="#656768" points="223.95,354.696 223.948,352.792 192.916,334.569 192.919,336.476 "/>
<polygon fill="#F1F2F2" points="223.997,352.812 248.178,340.293 182.944,304.106 161.115,316.545 "/>
<g>
	<g>
		<polygon fill="#464648" points="124.577,417.366 93.113,435.603 93.113,427.314 124.577,409.077 		"/>
		<polygon fill="#D1D3D4" points="128.559,412.673 97.094,430.91 97.094,389.685 128.559,371.448 		"/>
		<polygon opacity="0.3" fill="#464648" enable-background="new    " points="128.569,379.828 97.052,398.38 97.052,390.091 
			128.569,371.539 		"/>
		<polygon fill="#F1F2F2" points="99.791,389.257 68.112,371.276 99.145,353.056 130.823,371.035 		"/>
		<polygon fill="#656768" points="99.799,391.162 99.802,389.256 130.834,371.035 130.831,372.94 		"/>
		<g>
			<polygon fill="#B7B7B7" points="96.495,384.59 73.465,371.662 99.749,356.336 122.694,369.265 			"/>
			<polygon fill="#5A5B5B" points="96.667,382.192 77.574,371.662 99.663,358.819 118.585,369.437 			"/>
			<polygon fill="#4D4D4E" points="112.843,372.748 99.749,365.412 99.749,358.819 118.572,369.422 			"/>
			<polygon fill="#6A6A6A" points="83.311,374.83 99.698,365.412 99.698,358.819 77.603,371.67 			"/>
			<ellipse stroke="#787878" stroke-miterlimit="10" cx="99.364" cy="369.307" rx="2.098" ry="0.813"/>
		</g>
		<g>
			<path fill="#5A5B5B" d="M123.374,392.104c0,0-0.053-0.336,0.133-0.576s0.498-0.241,0.498-0.241l1.668,1.288l-0.633,0.816
				L123.374,392.104z"/>
		</g>
		<g>
			<path fill="#B7B7B7" d="M123.546,384.208c0,0-0.054-0.336,0.132-0.576c0.185-0.24,0.499-0.24,0.499-0.24l1.666,1.287
				l-0.631,0.817L123.546,384.208z"/>
		</g>
		<polygon fill="#B7B7B7" points="125.841,392.882 125.03,393.39 125.03,385.177 125.841,384.67 		"/>
	</g>
	<g>
		<path fill="#B7B7B7" d="M87.033,363.079c0,0-0.363,0.385-0.834,0.385c-0.472,0-0.771-0.385-0.771-0.385v-8.926h1.604
			L87.033,363.079L87.033,363.079z"/>
		<polygon fill="#6A6A6A" points="84.188,353.806 84.296,353.449 91.306,357.997 91.207,358.327 		"/>
		<polygon fill="#5A5B5B" points="91.197,358.323 91.306,357.966 92.965,356.884 92.867,357.213 		"/>
		<polygon fill="#B7B7B7" points="84.295,353.485 86.049,352.312 92.975,356.884 91.314,358.006 		"/>
	</g>
</g>
<g>
	<polygon fill="#464648" points="93.542,435.602 62.077,453.839 62.077,445.55 93.542,427.312 	"/>
	<polygon fill="#656768" points="62.13,453.844 37.087,439.717 37.087,389.502 62.13,403.629 	"/>
	<polygon fill="#656768" points="66.058,449.146 62.002,446.834 62.002,404.657 66.058,406.968 	"/>
	<polygon fill="#A1A0A0" points="59.819,450.12 38.885,438.69 38.885,394.896 59.819,406.327 	"/>
	<polygon fill="#A1A0A0" points="97.522,430.909 66.058,449.146 66.058,407.921 97.522,389.685 	"/>
	<polygon fill="#464648" points="97.48,398.102 66.016,416.338 66.016,408.049 97.48,389.813 	"/>
	<g>
		<polygon fill="#F1F2F2" points="68.755,407.493 37.076,389.513 68.108,371.291 99.788,389.271 		"/>
		<polygon fill="#656768" points="68.763,409.398 68.766,407.492 99.798,389.271 99.796,391.176 		"/>
		<polygon fill="#464648" points="68.755,409.382 37.076,391.401 37.079,389.554 68.759,407.535 		"/>
	</g>
	<polygon points="85.74,404.758 79.534,408.424 79.534,405.786 85.74,402.12 	"/>
	<polygon points="68.886,414.597 67.853,415.23 67.853,412.592 68.886,411.958 	"/>
	<polygon points="70.927,413.466 69.893,414.099 69.893,411.461 70.927,410.828 	"/>
	<polygon points="72.967,412.336 71.933,412.969 71.933,410.331 72.967,409.697 	"/>
	<polygon opacity="0.4" fill="#ED1C24" enable-background="new    " points="95.187,399.273 88.981,402.938 88.981,400.3 
		95.187,396.635 	"/>
</g>
<polygon opacity="0.3" fill="#464648" enable-background="new    " points="98.307,431.894 98.161,393.794 98.622,393.494 
	98.767,431.594 "/>
<g>
	<polygon fill="#464648" points="221.882,406.426 253.347,424.663 253.347,415.252 221.882,398.137 	"/>
	<polygon fill="#656768" points="249.366,345.851 278.337,329.551 278.337,410.541 253.293,424.667 253.293,417.731 
		249.366,419.969 	"/>
	<polygon fill="#A1A0A0" points="217.901,401.733 249.366,419.969 249.366,345.914 217.901,327.608 	"/>
	<g>
		<polygon fill="#939598" points="249.409,345.892 278.347,329.581 247.315,311.358 217.901,327.655 		"/>
	</g>
	<g>
		<g>
			<path fill="#5A5B5B" d="M235.458,375.582c0,0,0.053-0.336-0.133-0.576c-0.185-0.239-0.498-0.241-0.498-0.241l-1.667,1.289
				l0.631,0.816L235.458,375.582z"/>
		</g>
		<g>
			<path fill="#B7B7B7" d="M235.286,367.687c0,0,0.053-0.336-0.132-0.576s-0.499-0.241-0.499-0.241l-1.666,1.288l0.631,0.816
				L235.286,367.687z"/>
		</g>
		<polygon fill="#B7B7B7" points="232.991,376.36 233.802,376.868 233.802,368.655 232.991,368.147 		"/>
	</g>
	<g>
		<g>
			<path fill="#5A5B5B" d="M231.989,373.271c0,0,0.054-0.338-0.131-0.576c-0.186-0.24-0.5-0.241-0.5-0.241l-1.666,1.288l0.631,0.816
				L231.989,373.271z"/>
		</g>
		<g>
			<path fill="#B7B7B7" d="M231.819,365.374c0,0,0.053-0.336-0.133-0.576s-0.498-0.24-0.498-0.24l-1.667,1.287l0.632,0.817
				L231.819,365.374z"/>
		</g>
		<polygon fill="#B7B7B7" points="229.523,374.048 230.334,374.556 230.334,366.343 229.523,365.836 		"/>
	</g>
	<polygon opacity="0.3" fill="#464648" enable-background="new    " points="232.301,410.031 232.756,410.325 232.756,336.334 
		236.063,334.278 235.609,333.985 232.301,336.077 	"/>
	<polygon opacity="0.3" fill="#464648" enable-background="new    " points="253.282,417.609 252.828,417.903 252.828,343.987 
		253.282,343.692 	"/>
	<polygon opacity="0.3" fill="#464648" enable-background="new    " points="253.282,343.808 252.828,344.103 221.327,325.644 
		221.78,325.349 	"/>
	<g>
		<g>
			<polygon fill="#B7B7B7" points="229.112,356.562 219.563,350.922 219.539,363.698 229.07,369.306 			"/>
			<polygon fill="#5A5B5B" points="228.278,357.128 220.43,352.415 220.423,363.144 228.267,367.776 			"/>
			<polygon fill="#4D4D4E" points="228.259,364.993 222.835,361.785 220.44,363.174 228.259,367.774 			"/>
			<polygon fill="#6A6A6A" points="222.79,353.831 222.823,361.767 220.43,363.156 220.438,352.424 			"/>
		</g>
		<polygon points="226.375,354.176 227.409,354.81 227.409,353.713 226.375,353.081 		"/>
		<polygon points="224.255,353.021 225.289,353.653 225.289,352.558 224.255,351.924 		"/>
		<polygon points="222.136,351.832 223.169,352.465 223.169,351.369 222.136,350.735 		"/>
	</g>
</g>
<g>
	<g>
		<polygon fill="#808285" points="154.459,303.804 122.96,321.586 99.418,307.699 130.919,289.916 		"/>
		<polygon fill="#939598" points="164.959,313.965 133.46,331.748 122.958,321.586 154.459,303.804 		"/>
		<polygon fill="#A7A9AC" points="164.959,317.69 133.46,335.474 133.458,331.748 164.959,313.965 		"/>
		<polygon fill="#515251" points="122.96,321.586 133.46,331.917 133.46,335.474 99.418,315.319 99.418,307.698 		"/>
	</g>
	<g>
		<polygon fill="#808285" points="122.224,265.089 111.692,271.382 111.692,255.201 122.224,248.908 		"/>
		<polygon fill="#6D6E71" points="116.444,298.737 113.618,300.536 113.618,259.053 116.444,259.053 		"/>
		<polygon fill="#939598" points="123.636,294.499 116.444,298.673 116.444,259.053 123.636,254.815 		"/>
		<polygon fill="#58595B" points="116.423,259.075 113.619,259.032 120.854,254.73 123.638,254.794 		"/>
		<polygon fill="#939598" points="133.396,303.875 126.269,307.663 126.269,305.159 133.419,301.456 		"/>
		<polygon fill="#6D6E71" points="126.269,307.599 113.555,300.407 116.509,298.353 126.269,305.095 		"/>
		<polygon fill="#A7A9AC" points="133.429,301.435 126.345,305.33 116.455,298.396 123.615,294.478 		"/>
	</g>
</g>
<polygon opacity="0.3" fill="#464648" enable-background="new    " points="217.366,389.235 217.815,389.556 217.815,356.737 
	217.366,356.417 "/>
<g>
	<polygon fill="#FFFFFF" points="37.632,382.552 68.34,364.296 68.34,300.536 37.632,318.622 	"/>
	<polygon fill="#2E9B7F" points="42.666,372.134 50.219,367.575 50.219,316.735 42.666,321.294 	"/>
	<polygon fill="#2E9B7F" points="56.257,364.135 63.81,359.576 63.81,308.737 56.257,313.298 	"/>
</g>
<g>
	<g>
		<path fill="#464648" d="M14.62,403.388c-0.004-0.002-0.011-0.007-0.011-0.007l0.011-0.006v-1.417h1.176v0.696l17.124-10.496
			l18.095,10.657v-0.753h1.162v1.438c0,0-6.262,6.261-17.484,6.143C23.616,409.525,14.849,403.545,14.62,403.388L14.62,403.388
			L14.62,403.388z"/>
		<path fill="#D1D3D4" d="M32.92,390.741l19.257,11.341c0,0-6.262,6.261-17.484,6.143c-11.223-0.117-20.083-6.261-20.083-6.261
			L32.92,390.741z"/>
	</g>
	<g>
		<path fill="#464648" d="M14.62,388.503c-0.004-0.002-0.011-0.007-0.011-0.007l0.011-0.007v-1.416h1.176v0.695l17.124-10.496
			l18.095,10.656v-0.752h1.162v1.438c0,0-6.262,6.261-17.484,6.143C23.616,394.64,14.849,388.66,14.62,388.503L14.62,388.503
			L14.62,388.503z"/>
		<path fill="#D1D3D4" d="M32.92,375.854l19.257,11.342c0,0-6.262,6.261-17.484,6.143c-11.222-0.117-20.083-6.261-20.083-6.261
			L32.92,375.854z"/>
	</g>
	<g>
		<path fill="#A5B8B9" d="M22.998,382.175c0.157-0.082,9.981-5.434,9.981-5.434v3.662l-0.701,0.377l7.257,3.699l-10.081,5.513
			l-8.19-4.175l0.11-0.061c-0.285-0.095-0.505-0.263-0.634-0.51C20.312,384.427,21.322,383.051,22.998,382.175z"/>
		<path fill="#677F7C" d="M31.058,386.422l-8.14-4.147l10.081-5.514l8.161,4.16c0.003-0.001,0.011-0.005,0.011-0.005v0.011
			l0.019,0.01l-0.019,0.01v3.632l-9.511,5.127c-1.321,0.506-2.368,0.409-2.729-0.283C28.514,388.624,29.462,387.3,31.058,386.422z"
			/>
		<path fill="#466266" d="M32.088,387.299c0.14-0.075,9.083-4.886,9.083-4.886v0.717l-8.395,4.596c-1.182,0.6-2.155,0.984-2.541,1
			C29.778,388.74,30.607,388.103,32.088,387.299z"/>
	</g>
	<g>
		<path fill="#E6E7E8" d="M22.998,378.709c0.157-0.082,9.981-5.435,9.981-5.435v3.662l-0.701,0.379l7.257,3.697l-10.081,5.514
			l-8.19-4.174l0.11-0.062c-0.285-0.095-0.505-0.263-0.634-0.509C20.312,380.961,21.322,379.585,22.998,378.709z"/>
		<path fill="#D1D3D4" d="M31.058,382.957l-8.14-4.147l10.081-5.514l8.161,4.16c0.003-0.001,0.011-0.006,0.011-0.006v0.011
			l0.019,0.011l-0.019,0.01v3.631l-9.511,5.128c-1.321,0.507-2.368,0.409-2.729-0.282C28.514,385.158,29.462,383.834,31.058,382.957
			z"/>
		<path fill="#A7A9AC" d="M32.088,383.834c0.14-0.076,9.083-4.887,9.083-4.887v0.717l-8.395,4.594c-1.182,0.601-2.155,0.985-2.541,1
			C29.778,385.274,30.607,384.638,32.088,383.834z"/>
	</g>
	<g>
		<path fill="#464648" d="M14.62,373.618c-0.004-0.002-0.011-0.008-0.011-0.008l0.011-0.006v-1.416h1.176v0.695l17.124-10.496
			l18.095,10.657v-0.754h1.162v1.438c0,0-6.262,6.261-17.484,6.143C23.616,379.755,14.849,373.774,14.62,373.618L14.62,373.618
			L14.62,373.618z"/>
		<path fill="#D1D3D4" d="M32.92,360.972l19.257,11.34c0,0-6.262,6.262-17.484,6.144c-11.222-0.118-20.083-6.261-20.083-6.261
			L32.92,360.972z"/>
	</g>
	<g>
		<path fill="#627C7E" d="M31.151,370.521c0,1.256,0.986,2.275,2.204,2.275c1.218,0,2.205-1.02,2.205-2.275
			c0-1.258-2.205-1.153-2.205-1.153S31.151,369.263,31.151,370.521z"/>
		<path fill="#71A1A8" d="M29.063,366.455c0,3.176,1.922,5.75,4.292,5.75s4.292-2.574,4.292-5.75c0-3.177-4.292-2.913-4.292-2.913
			S29.063,363.278,29.063,366.455z"/>
		<path fill="#49B36B" d="M29.763,353.583c0.185-0.68,0.755-1.21,1.485-1.389c0.348-0.24,0.774-0.387,1.241-0.387
			c1.152,0,2.087,0.863,2.087,1.928c0,0.076-0.015,0.147-0.024,0.221c0.061,0.182,0.104,0.369,0.104,0.568
			c0,1.064-0.936,1.929-2.088,1.929c-0.095,0-0.187-0.015-0.278-0.026c-0.242,0.092-0.507,0.145-0.784,0.145
			c-1.152,0-2.087-0.864-2.087-1.93C29.418,354.25,29.546,353.888,29.763,353.583z"/>
		<ellipse fill="#603913" stroke="#C2B59B" stroke-miterlimit="10" cx="33.355" cy="365.787" rx="3.978" ry="2.245"/>
		<path fill="#49B36B" d="M34.78,360.599c0.154-0.615,0.707-1.074,1.371-1.074c0.782,0,1.418,0.636,1.418,1.418
			c0,0.574-0.344,1.066-0.835,1.289c-0.153,0.617-0.707,1.074-1.37,1.074c-0.783,0-1.418-0.634-1.418-1.416
			C33.946,361.313,34.29,360.821,34.78,360.599z"/>
		<path fill="#49B36B" d="M27.016,358.226c0-0.914,0.567-1.697,1.378-2.047c0.422-0.414,1.006-0.671,1.654-0.671
			c0.014,0,0.026,0.003,0.04,0.005c0.419-0.392,0.985-0.635,1.613-0.635c1.284,0,2.323,1.005,2.323,2.244
			c0,0.406-0.12,0.783-0.315,1.111c0.249,0.358,0.395,0.789,0.395,1.252c0,0.453-0.142,0.873-0.38,1.225
			c0.039,0.164,0.064,0.333,0.064,0.508c0,1.239-1.04,2.245-2.323,2.245c-0.927,0-1.721-0.528-2.094-1.288
			c-0.741-0.375-1.253-1.117-1.253-1.98c0-0.022,0.006-0.043,0.006-0.063C27.462,359.735,27.016,359.033,27.016,358.226z"/>
		<rect x="32.687" y="361.81" fill="#8C5823" width="1.181" height="3.938"/>
		<path fill="#49B36B" d="M28.984,358.462c0-0.637,0.323-1.216,0.851-1.656c0.147-0.574,0.559-1.078,1.137-1.437
			c0.172-1.249,1.578-2.224,3.289-2.224c1.826,0,3.308,1.111,3.308,2.48c0,0.025-0.004,0.053-0.005,0.078
			c0.254,0.352,0.398,0.754,0.398,1.184c0,0.582-0.269,1.115-0.716,1.538c0.002,0.039,0.008,0.076,0.008,0.115
			c0,0.451-0.163,0.874-0.444,1.237c0.031,0.136,0.05,0.275,0.05,0.416c0,1.371-1.48,2.48-3.308,2.48
			c-0.85,0-1.621-0.242-2.207-0.636c-1.115-0.397-1.888-1.25-1.888-2.238c0-0.021,0.003-0.04,0.004-0.061
			C29.161,359.367,28.984,358.931,28.984,358.462z"/>
	</g>
</g>
<g>
	<path fill="#627C7E" d="M180.273,320.349c0,1.256,0.986,2.275,2.204,2.275c1.218,0,2.205-1.02,2.205-2.275
		c0-1.258-2.205-1.154-2.205-1.154S180.273,319.091,180.273,320.349z"/>
	<path fill="#71A1A8" d="M178.186,316.282c0,3.176,1.922,5.75,4.292,5.75s4.292-2.574,4.292-5.75s-4.292-2.913-4.292-2.913
		S178.186,313.106,178.186,316.282z"/>
	<path fill="#49B36B" d="M178.885,303.411c0.185-0.68,0.755-1.21,1.485-1.389c0.348-0.24,0.774-0.388,1.241-0.388
		c1.152,0,2.087,0.864,2.087,1.929c0,0.076-0.015,0.147-0.024,0.221c0.061,0.181,0.104,0.369,0.104,0.568
		c0,1.064-0.936,1.928-2.088,1.928c-0.095,0-0.187-0.014-0.278-0.025c-0.242,0.092-0.507,0.145-0.784,0.145
		c-1.152,0-2.087-0.864-2.087-1.93C178.54,304.078,178.668,303.715,178.885,303.411z"/>
	<ellipse fill="#603913" stroke="#C2B59B" stroke-miterlimit="10" cx="182.478" cy="315.614" rx="3.978" ry="2.245"/>
	<path fill="#49B36B" d="M183.902,310.427c0.154-0.615,0.707-1.074,1.371-1.074c0.782,0,1.418,0.635,1.418,1.418
		c0,0.574-0.344,1.066-0.835,1.289c-0.153,0.616-0.707,1.074-1.37,1.074c-0.783,0-1.418-0.634-1.418-1.417
		C183.068,311.142,183.412,310.649,183.902,310.427z"/>
	<path fill="#49B36B" d="M176.138,308.054c0-0.914,0.567-1.697,1.378-2.048c0.422-0.413,1.006-0.67,1.654-0.67
		c0.014,0,0.026,0.003,0.04,0.004c0.419-0.391,0.985-0.634,1.613-0.634c1.284,0,2.323,1.005,2.323,2.244
		c0,0.406-0.12,0.783-0.315,1.111c0.249,0.358,0.395,0.789,0.395,1.252c0,0.453-0.142,0.873-0.38,1.225
		c0.039,0.164,0.064,0.333,0.064,0.508c0,1.239-1.04,2.245-2.323,2.245c-0.927,0-1.721-0.528-2.094-1.288
		c-0.741-0.375-1.253-1.117-1.253-1.98c0-0.022,0.006-0.043,0.006-0.063C176.584,309.563,176.138,308.86,176.138,308.054z"/>
	<rect x="181.809" y="311.638" fill="#8C5823" width="1.181" height="3.938"/>
	<path fill="#49B36B" d="M178.106,308.29c0-0.637,0.323-1.216,0.851-1.656c0.147-0.574,0.559-1.078,1.137-1.438
		c0.172-1.248,1.578-2.223,3.289-2.223c1.826,0,3.308,1.111,3.308,2.48c0,0.025-0.004,0.052-0.005,0.078
		c0.254,0.352,0.398,0.754,0.398,1.183c0,0.582-0.269,1.116-0.716,1.539c0.002,0.039,0.008,0.076,0.008,0.115
		c0,0.45-0.163,0.874-0.444,1.237c0.031,0.136,0.05,0.274,0.05,0.416c0,1.371-1.48,2.48-3.308,2.48c-0.85,0-1.621-0.242-2.207-0.636
		c-1.115-0.397-1.888-1.25-1.888-2.238c0-0.021,0.003-0.041,0.004-0.062C178.283,309.194,178.106,308.758,178.106,308.29z"/>
</g>
<g>
	<g>
		<polygon fill="#464648" points="169.185,466.163 168,465.291 167.468,436.163 169.189,437.034 		"/>
		<polygon fill="#656768" points="169.163,466.163 170.348,465.291 170.88,436.163 169.158,437.034 		"/>
	</g>
	<g>
		<polygon fill="#464648" points="209.927,442.807 208.741,441.934 208.208,413.877 209.93,413.677 		"/>
		<polygon fill="#656768" points="209.903,442.807 211.089,441.934 211.622,412.359 209.899,413.677 		"/>
	</g>
	<g>
		<polygon fill="#464648" points="189.333,430.949 188.147,430.077 187.615,412.726 189.337,412.526 		"/>
		<polygon fill="#656768" points="189.311,430.949 190.495,430.077 191.027,411.655 189.306,412.526 		"/>
	</g>
	<g>
		<polygon fill="#464648" points="148.859,454.039 147.673,453.166 147.142,424.039 148.862,424.909 		"/>
		<polygon fill="#656768" points="148.836,454.039 150.021,453.166 150.555,425.645 148.833,424.909 		"/>
	</g>
	<g>
		<polygon fill="#D1D3D4" points="169.185,435.479 145.56,422.196 188.591,397.161 212.218,410.441 		"/>
		<polygon fill="#656768" points="169.192,437.275 169.196,435.478 212.218,410.445 212.218,412.244 		"/>
		<polygon fill="#464648" points="169.185,437.259 145.496,423.898 145.499,422.158 169.189,435.518 		"/>
	</g>
</g>
<g>
	<g>
		<polygon fill="#656768" points="207.85,415.195 208.405,415.888 203.956,436.325 202.919,436.176 		"/>
		<polygon fill="#464648" points="207.862,415.198 207.032,415.525 201.795,436.423 202.937,436.18 		"/>
	</g>
	<polygon fill="#D1D3D4" points="216.874,434.874 205.148,428.406 207.63,417.454 220.038,424.227 	"/>
	<g>
		<polygon fill="#464648" points="215.76,462.456 215.044,461.927 214.722,444.959 215.764,444.838 		"/>
		<polygon fill="#656768" points="215.747,462.456 216.464,461.927 216.786,444.312 215.745,444.838 		"/>
	</g>
	<g>
		<polygon fill="#464648" points="221.157,420.965 221.715,421.659 217.266,442.095 216.226,441.946 		"/>
		<polygon fill="#656768" points="221.171,420.968 220.342,421.295 215.104,442.193 216.245,441.95 		"/>
	</g>
	<g>
		<polygon fill="#464648" points="202.172,470.087 201.456,469.559 201.134,452.032 202.177,451.91 		"/>
		<polygon fill="#656768" points="202.159,470.087 202.877,469.559 203.198,451.943 202.156,452.469 		"/>
	</g>
	<g>
		<polygon fill="#464648" points="188.771,462.27 188.054,461.741 187.731,444.772 188.774,444.651 		"/>
		<polygon fill="#656768" points="188.758,462.27 189.475,461.741 189.797,444.125 188.756,444.651 		"/>
	</g>
	<polygon fill="#656768" points="202.449,465.609 202.452,464.41 215.853,456.569 215.853,457.769 	"/>
	<polygon fill="#464648" points="189.502,459.188 189.504,457.988 202.799,450.217 202.799,451.417 	"/>
	<polygon fill="#D1D3D4" points="201.985,451.664 186.228,442.805 202.093,433.598 217.852,442.457 	"/>
	<polygon fill="#656768" points="201.991,452.862 201.993,451.663 217.852,442.459 217.852,443.659 	"/>
	<polygon fill="#464648" points="201.985,452.852 186.186,443.939 186.188,442.779 201.989,451.689 	"/>
</g>
<polygon fill="#E6E7E8" points="496.421,294.171 311.978,401.859 311.978,496.859 495.978,382.858 "/>
<polygon fill="#939598" points="432.476,420.783 399.919,440.399 399.919,354.575 432.478,334.957 "/>
<polygon fill="#BCBEC0" points="428.904,419.261 402.998,434.947 403.035,400.117 428.939,384.431 "/>
<polygon fill="#BCBEC0" points="428.939,379.013 403.035,394.696 403.035,357.367 428.939,341.683 "/>
<g>
	<g>
		<polygon fill="#A1A0A0" points="392.033,473.791 364.054,489.906 364.054,438.397 392.033,422.282 		"/>
		<g>
			<polygon fill="#D1D3D4" points="364.134,436.938 343.503,425.337 371.4,409.117 392.033,420.717 			"/>
			<polygon fill="#656768" points="364.14,438.505 364.142,436.936 392.033,420.719 392.033,422.288 			"/>
		</g>
		<g>
			<path fill="#656768" d="M365.667,444.816h-0.059c-0.43,0-0.779-0.35-0.779-0.778v-4.607c0-0.365,0.285-0.94,0.666-1.165
				l6.684-3.868h0.062c0.428,0,0.777,0.349,0.777,0.777v4.572c0,0.354-0.25,0.91-0.648,1.19L365.667,444.816z M372.292,434.848
				l-6.572,3.804c-0.229,0.134-0.443,0.554-0.443,0.779v4.607c0,0.165,0.121,0.302,0.279,0.327l6.572-3.805
				c0.246-0.173,0.443-0.576,0.443-0.813v-4.572C372.572,435.01,372.451,434.873,372.292,434.848z"/>
		</g>
		<g>
			<path fill="#656768" d="M385.3,477.056h-0.053c-0.371,0-0.672-0.301-0.672-0.672v-3.979c0-0.316,0.246-0.813,0.574-1.006
				l5.773-3.343h0.051c0.373,0,0.674,0.302,0.674,0.672v3.949c0,0.307-0.217,0.786-0.562,1.028L385.3,477.056z M391.023,468.445
				l-5.68,3.286c-0.195,0.114-0.383,0.478-0.383,0.673v3.979c0,0.144,0.104,0.262,0.24,0.283l5.678-3.286
				c0.213-0.149,0.383-0.498,0.383-0.704v-3.949C391.263,468.586,391.158,468.468,391.023,468.445z"/>
		</g>
		<line fill="none" stroke="#000000" stroke-miterlimit="10" x1="365.609" y1="443.367" x2="371.058" y2="440.211"/>
		<line fill="none" stroke="#656768" stroke-miterlimit="10" x1="364.255" y1="447.352" x2="392.033" y2="431.064"/>
		<polygon fill="#656768" points="380.951,433.667 378.199,435.339 378.199,431.1 380.951,429.428 		"/>
		<path fill="#464648" d="M379.699,432.132c-0.002,0-0.004-0.001-0.006-0.001s-0.006,0-0.006,0l-0.023-0.001v0.003
			c-0.455-0.007-0.846,0.473-0.887,1.095c-0.037,0.622,0.291,1.149,0.742,1.198v0.004l0.672,0.064l0.146-2.3L379.699,432.132z"/>
		
			<ellipse transform="matrix(0.0627 -0.998 0.998 0.0627 -76.0314 785.7058)" fill="#656768" cx="380.279" cy="433.331" rx="1.153" ry="0.843"/>
		<g>
			<path fill="#656768" d="M389.373,461.016c-4.918,8.767-13.236,13.43-18.602,10.422c-5.361-3.011-5.723-12.543-0.809-21.311
				c4.912-8.762,13.236-13.425,18.6-10.418C393.923,442.714,394.289,452.25,389.373,461.016z"/>
			<path fill="#D1D3D4" d="M389.908,461.201c-4.766,8.493-12.756,13.05-17.867,10.185c-5.109-2.87-5.391-12.066-0.629-20.561
				c4.758-8.488,12.752-13.045,17.865-10.181C394.384,443.508,394.671,452.708,389.908,461.201z"/>
			<path fill="#656768" d="M388.072,460.701c-3.771,6.725-10.1,10.334-14.143,8.066c-4.043-2.27-4.262-9.552-0.49-16.276
				c3.766-6.722,10.094-10.33,14.139-8.063C391.619,446.692,391.843,453.975,388.072,460.701z"/>
			<path fill="#464648" d="M379.876,455.706c-2.91,4.813-6.619,7.892-8.299,6.879c-1.676-1.015-0.525-6.18,2.381-10.995
				c2.906-4.811,6.467-7.441,8.143-6.429C383.779,446.173,382.785,450.893,379.876,455.706z"/>
			<path opacity="0.2" fill="#FFFFFF" enable-background="new    " d="M388.072,460.701c-3.771,6.725-10.1,10.334-14.143,8.066
				l8.863-24.707c1.734-0.498,3.395-0.411,4.783,0.366C391.619,446.692,391.843,453.975,388.072,460.701z"/>
		</g>
	</g>
	<g>
		<polygon fill="#656768" points="336.107,506.036 315.49,494.406 315.49,442.897 336.107,454.528 		"/>
		<polygon fill="#A1A0A0" points="364.068,490.003 336.091,506.119 336.091,454.611 364.068,438.495 		"/>
		<g>
			<polygon fill="#D1D3D4" points="336.171,453.15 315.54,441.551 343.437,425.331 364.068,436.93 			"/>
			<polygon fill="#656768" points="336.177,454.718 336.179,453.148 364.068,436.931 364.068,438.501 			"/>
			<polygon fill="#464648" points="336.171,454.704 315.484,443.037 315.487,441.517 336.173,453.184 			"/>
		</g>
		<g>
			<path fill="#656768" d="M337.705,461.029h-0.061c-0.43,0-0.777-0.35-0.777-0.778v-4.607c0-0.365,0.283-0.94,0.664-1.166
				l6.686-3.868h0.061c0.43,0,0.775,0.349,0.775,0.777v4.572c0,0.354-0.248,0.91-0.646,1.19L337.705,461.029z M344.33,451.061
				l-6.574,3.805c-0.229,0.133-0.441,0.553-0.441,0.779v4.607c0,0.166,0.119,0.303,0.277,0.328l6.574-3.804
				c0.244-0.175,0.441-0.577,0.441-0.815v-4.572C344.607,451.223,344.488,451.085,344.33,451.061z"/>
		</g>
		<g>
			<path fill="#656768" d="M357.333,493.269h-0.051c-0.369,0-0.672-0.301-0.672-0.673v-3.979c0-0.315,0.246-0.812,0.574-1.006
				l5.775-3.343h0.051c0.371,0,0.672,0.302,0.672,0.673v3.948c0,0.306-0.215,0.786-0.561,1.028L357.333,493.269z M363.058,484.659
				l-5.678,3.285c-0.197,0.115-0.383,0.479-0.383,0.673v3.979c0,0.144,0.104,0.263,0.24,0.284l5.678-3.285
				c0.213-0.149,0.383-0.499,0.383-0.704v-3.948C363.298,484.799,363.195,484.68,363.058,484.659z"/>
		</g>
		<line fill="none" stroke="#000000" stroke-miterlimit="10" x1="337.644" y1="459.58" x2="343.093" y2="456.424"/>
		<line fill="none" stroke="#656768" stroke-miterlimit="10" x1="336.291" y1="463.564" x2="364.068" y2="447.276"/>
		<polygon fill="#656768" points="352.986,449.88 350.234,451.553 350.234,447.312 352.986,445.641 		"/>
		<path fill="#464648" d="M351.734,448.345c0,0-0.004-0.001-0.008-0.001c0,0-0.002,0-0.004,0l-0.023-0.001v0.003
			c-0.453-0.006-0.848,0.475-0.885,1.097c-0.039,0.622,0.291,1.147,0.74,1.197v0.004l0.672,0.064l0.146-2.3L351.734,448.345z"/>
		
			<ellipse transform="matrix(0.0627 -0.998 0.998 0.0627 -118.4475 772.9643)" fill="#656768" cx="352.298" cy="449.543" rx="1.153" ry="0.843"/>
		<g>
			<path fill="#656768" d="M361.408,477.229c-4.916,8.767-13.236,13.429-18.6,10.423c-5.361-3.012-5.725-12.544-0.809-21.312
				c4.91-8.761,13.232-13.424,18.598-10.418C365.958,458.928,366.326,468.463,361.408,477.229z"/>
			<path fill="#D1D3D4" d="M361.945,477.414c-4.766,8.493-12.758,13.05-17.869,10.185c-5.109-2.87-5.389-12.067-0.627-20.562
				c4.758-8.488,12.752-13.045,17.863-10.18C366.421,459.722,366.708,468.921,361.945,477.414z"/>
			<path fill="#656768" d="M360.107,476.913c-3.771,6.725-10.098,10.334-14.141,8.067c-4.045-2.271-4.262-9.553-0.492-16.277
				c3.766-6.72,10.096-10.33,14.141-8.063C363.654,462.905,363.88,470.189,360.107,476.913z"/>
			<path fill="#464648" d="M351.914,471.919c-2.91,4.815-6.621,7.894-8.301,6.879c-1.676-1.015-0.525-6.18,2.383-10.995
				c2.902-4.81,6.467-7.439,8.143-6.428C355.814,462.386,354.82,467.105,351.914,471.919z"/>
			<path opacity="0.2" fill="#FFFFFF" enable-background="new    " d="M360.107,476.913c-3.771,6.725-10.098,10.334-14.141,8.067
				l8.863-24.709c1.732-0.496,3.393-0.411,4.785,0.367C363.654,462.905,363.88,470.189,360.107,476.913z"/>
		</g>
	</g>
</g>
<g>
	<polygon fill="#FFFFFF" points="447.789,200.154 417.082,184.043 417.082,120.283 447.789,136.223 	"/>
	<polygon fill="#2E9B7F" points="442.751,190.083 435.203,186.054 435.203,135.215 442.751,139.248 	"/>
	<polygon fill="#2E9B7F" points="429.16,183.038 421.611,179.006 421.611,128.168 429.16,132.198 	"/>
</g>
<g>
	<polygon fill="#FFFFFF" points="447.789,318.362 417.082,302.253 417.082,238.492 447.789,254.432 	"/>
	<polygon fill="#2E9B7F" points="442.751,308.292 435.203,304.263 435.203,253.425 442.751,257.457 	"/>
	<polygon fill="#2E9B7F" points="429.16,301.248 421.611,297.215 421.611,246.377 429.16,250.409 	"/>
</g>
<g>
	<polygon fill="#FFFFFF" points="578.789,387.362 548.082,371.253 548.082,307.492 578.789,323.433 	"/>
	<polygon fill="#2E9B7F" points="573.751,377.292 566.203,373.263 566.203,322.425 573.751,326.457 	"/>
	<polygon fill="#2E9B7F" points="560.16,370.248 552.611,366.215 552.611,315.377 560.16,319.409 	"/>
</g>
<g>
	<polygon fill="#FFFFFF" points="367.248,159.875 336.539,143.767 336.539,80.005 367.248,95.945 	"/>
	<polygon fill="#2E9B7F" points="362.212,149.808 354.66,145.778 354.66,94.938 362.212,98.969 	"/>
	<polygon fill="#2E9B7F" points="348.621,142.76 341.068,138.728 341.068,87.89 348.621,91.922 	"/>
</g>
<g>
	<polygon fill="#FFFFFF" points="367.248,278.085 336.539,261.977 336.539,198.216 367.248,214.155 	"/>
	<polygon fill="#2E9B7F" points="362.212,268.017 354.66,263.987 354.66,213.147 362.212,217.18 	"/>
	<polygon fill="#2E9B7F" points="348.621,260.969 341.068,256.938 341.068,206.101 348.621,210.131 	"/>
</g>
<g>
	<polygon fill="#C2C2C3" points="278.073,187.459 244.885,206.646 234.95,201.183 268.138,181.995 	"/>
	<polygon fill="#A1A0A0" points="244.885,206.616 244.916,221.487 234.981,216.023 234.95,201.152 	"/>
	<polygon fill="#CFD0D2" points="278.073,202.268 244.916,221.497 244.885,206.648 278.073,187.46 	"/>
	<polygon fill="#B2B2B2" points="277.235,202.267 246.126,220.283 246.095,208.79 277.235,190.814 	"/>
	<polygon fill="#656667" points="277.235,202.787 246.126,220.804 246.095,216.925 277.235,198.95 	"/>
	<polygon fill="#BBBBBD" points="277.979,203.532 246.872,221.548 246.126,219.127 277.267,201.151 	"/>
	<polygon fill="#808081" points="276.77,194.073 246.686,211.583 246.654,209.411 276.77,191.941 	"/>
	<polygon fill="#808081" points="247.154,213.165 246.711,213.451 246.7,212.742 247.154,212.469 	"/>
	<polygon fill="#808081" points="247.983,212.72 247.54,213.005 247.53,212.297 247.983,212.024 	"/>
	<polygon fill="#808081" points="248.812,212.274 248.369,212.561 248.359,211.852 248.812,211.579 	"/>
	<polygon fill="#808081" points="249.642,211.83 249.198,212.116 249.188,211.407 249.642,211.134 	"/>
	<polygon fill="#65A6DA" points="243.514,209.268 243.519,211.631 241.94,210.763 241.936,208.4 	"/>
	<polygon fill="#65A6DA" points="243.514,212.249 243.519,214.611 241.94,213.743 241.936,211.38 	"/>
	<polygon fill="#65A6DA" points="243.514,215.229 243.519,217.592 241.94,216.724 241.936,214.361 	"/>
	<g>
		<polygon fill="#6D6D72" points="240.005,207.599 240.01,215.353 239.757,215.496 234.539,204.846 234.773,204.716 		"/>
		<polygon fill="#818183" points="239.74,207.707 239.757,215.506 234.547,212.641 234.53,204.842 		"/>
	</g>
	<polygon fill="#808081" points="246.86,221.549 246.371,221.549 246.125,220.742 246.115,219.104 	"/>
</g>
</svg>
