<?xml version="1.0" encoding="utf-8"?>
<!-- Generator: Adobe Illustrator 16.0.0, SVG Export Plug-In . SVG Version: 6.00 Build 0)  -->
<!DOCTYPE svg PUBLIC "-//W3C//DTD SVG 1.1//EN" "http://www.w3.org/Graphics/SVG/1.1/DTD/svg11.dtd">
<svg version="1.1" id="Layer_1" xmlns="http://www.w3.org/2000/svg" xmlns:xlink="http://www.w3.org/1999/xlink" x="0px" y="0px"
	 width="67.333px" height="67.667px" viewBox="0 0 67.333 67.667" enable-background="new 0 0 67.333 67.667" xml:space="preserve">
<g id="Layer_1_1_">
</g>
<path fill="#DBDBDB" d="M33.998,3.842c-16.568,0-30,13.432-30,30s13.432,30,30,30s30-13.432,30-30S50.566,3.842,33.998,3.842z
	 M33.998,58.591c-13.669,0-24.75-11.08-24.75-24.75c0-13.669,11.081-24.75,24.75-24.75c13.668,0,24.75,11.081,24.75,24.75
	C58.749,47.511,47.667,58.591,33.998,58.591z"/>
<g>
	<circle fill="#E8E8E8" cx="58.917" cy="8.083" r="6.125"/>
	<path fill="#DBDBDB" d="M58.916,1.133c-3.82,0-6.917,3.096-6.917,6.917c0,3.819,3.097,6.917,6.917,6.917
		c3.819,0,6.917-3.098,6.917-6.917C65.833,4.229,62.735,1.133,58.916,1.133z M58.916,13.756c-3.151,0-5.706-2.555-5.706-5.707
		c0-3.151,2.555-5.706,5.706-5.706s5.706,2.555,5.706,5.706C64.622,11.201,62.067,13.756,58.916,13.756z"/>
</g>
<path fill="#FF7F00" d="M53.686,14.04c-10.905-10.904-28.646-10.904-39.552,0c-10.903,10.904-10.903,28.646,0,39.551
	c10.905,10.902,28.646,10.902,39.552,0C64.59,42.687,64.59,24.944,53.686,14.04z"/>
<g opacity="0.2">
	<path fill="#DBDBDB" d="M26.158,47.533c-5.647-3.328-8.685-10.1-6.978-16.759c2.066-8.069,10.312-12.952,18.382-10.885
		c6.658,1.706,11.136,7.621,11.34,14.171l1.413,2.386c0.952-8.128-4.236-15.935-12.378-18.02
		C29.06,16.153,19.991,21.524,17.716,30.4c-2.086,8.145,2.267,16.447,9.854,19.518L26.158,47.533z"/>
	<path fill="#DBDBDB" d="M33.836,11.343c-10.36,0-19.153,6.838-22.104,16.238h1.595c2.896-8.552,10.993-14.727,20.51-14.727
		c11.938,0,21.65,9.712,21.65,21.651c0,11.938-9.712,21.65-21.65,21.65c-3.36,0-6.543-0.77-9.383-2.141h-3.075
		c3.601,2.309,7.874,3.65,12.458,3.65c12.771,0,23.162-10.391,23.162-23.162C56.999,21.733,46.606,11.343,33.836,11.343z"/>
	<path fill="#DBDBDB" d="M51.598,29.799c0.015,0.06,0.033,0.118,0.05,0.178c2.496,9.821-3.463,19.843-13.282,22.34
		c-9.823,2.497-19.845-3.463-22.342-13.284c-2.428-9.55,3.14-19.286,12.478-22.113l1.096-1.842c-0.221,0.049-0.441,0.095-0.66,0.15
		c-10.63,2.702-17.079,13.547-14.377,24.176c2.701,10.629,13.547,17.078,24.176,14.377c10.629-2.703,17.078-13.548,14.376-24.177
		c-0.135-0.531-0.296-1.049-0.472-1.56L51.598,29.799z"/>
</g>
<linearGradient id="SVGID_1_" gradientUnits="userSpaceOnUse" x1="13.979" y1="737.4614" x2="28.4789" y2="751.4614" gradientTransform="matrix(1 0 0 1 0 -723.333)">
	<stop  offset="0.0051" style="stop-color:#FFFFFF"/>
	<stop  offset="1" style="stop-color:#FFFFFF;stop-opacity:0"/>
</linearGradient>
<path opacity="0.3" fill="url(#SVGID_1_)" enable-background="new    " d="M40.229,10.228L10.471,39.986
	c-2.966-4.135-0.995-16.674,6.071-23.793C23.714,8.97,36.036,7.219,40.229,10.228z"/>
<g>
	<rect x="24" y="31.753" fill="#FFFFFF" width="4.334" height="10.75"/>
	<rect x="29.333" y="25.003" fill="#FFFFFF" width="4.334" height="17.5"/>
	<rect x="34.666" y="29.503" fill="#FFFFFF" width="4.334" height="13"/>
	<rect x="39.999" y="32.628" fill="#FFFFFF" width="4.334" height="9.875"/>
</g>
<polygon fill="#FF7F00" points="62.732,5.583 61.273,4.125 58.916,6.482 56.558,4.125 55.099,5.584 57.457,7.941 55.099,10.298 
	56.558,11.757 58.916,9.4 61.273,11.758 62.732,10.298 60.375,7.941 "/>
<linearGradient id="SVGID_2_" gradientUnits="userSpaceOnUse" x1="54.6987" y1="727.1245" x2="57.9153" y2="730.2302" gradientTransform="matrix(1 0 0 1 0 -723.333)">
	<stop  offset="0.0051" style="stop-color:#FFFFFF"/>
	<stop  offset="1" style="stop-color:#FFFFFF;stop-opacity:0"/>
</linearGradient>
<path opacity="0.6" fill="url(#SVGID_2_)" enable-background="new    " d="M60.521,2.926l-6.602,6.601
	c-0.657-0.917-0.221-3.699,1.347-5.278C56.857,2.647,59.59,2.259,60.521,2.926z"/>
</svg>
