<?xml version="1.0" encoding="utf-8"?>
<!-- Generator: Adobe Illustrator 16.0.0, SVG Export Plug-In . SVG Version: 6.00 Build 0)  -->
<!DOCTYPE svg PUBLIC "-//W3C//DTD SVG 1.1//EN" "http://www.w3.org/Graphics/SVG/1.1/DTD/svg11.dtd">
<svg version="1.1" id="Layer_1" xmlns="http://www.w3.org/2000/svg" xmlns:xlink="http://www.w3.org/1999/xlink" x="0px" y="0px"
	 width="72.666px" height="91.333px" viewBox="0 0 72.666 91.333" enable-background="new 0 0 72.666 91.333" xml:space="preserve">
<g>
	<polygon fill="#FFFFFF" stroke="#000000" stroke-miterlimit="10" points="63.575,69.904 32.11,88.141 32.11,79.852 63.575,61.615 	
		"/>
	<polygon fill="#FFFFFF" stroke="#000000" stroke-miterlimit="10" points="32.163,88.146 7.12,74.019 7.12,23.804 32.163,37.931 	
		"/>
	<polygon fill="#FFFFFF" stroke="#000000" stroke-miterlimit="10" points="36.091,83.448 32.035,81.136 32.035,38.958 36.091,41.27 
			"/>
	<polygon fill="#FFFFFF" stroke="#000000" stroke-miterlimit="10" points="29.853,84.422 8.918,72.992 8.918,29.198 29.853,40.628 	
		"/>
	<polygon fill="#FFFFFF" stroke="#000000" stroke-miterlimit="10" points="67.556,65.211 36.091,83.448 36.091,42.223 
		67.556,23.986 	"/>
	<polygon fill="#FFFFFF" stroke="#000000" stroke-miterlimit="10" points="67.514,32.403 36.049,50.64 36.049,42.351 67.514,24.115 
			"/>
	<g>
		<polygon fill="#FFFFFF" stroke="#000000" stroke-miterlimit="10" points="38.788,41.795 7.109,23.815 38.142,5.593 69.821,23.573 
					"/>
		<polygon fill="#FFFFFF" stroke="#000000" stroke-miterlimit="10" points="38.796,43.7 38.799,41.794 69.831,23.573 69.829,25.478 
					"/>
		<polygon fill="#FFFFFF" stroke="#000000" stroke-miterlimit="10" points="38.788,43.684 7.109,25.703 7.112,23.856 38.792,41.836 
					"/>
	</g>
	<polygon fill="#FFFFFF" stroke="#000000" stroke-miterlimit="10" points="55.773,39.06 49.567,42.726 49.567,40.088 55.773,36.422 
			"/>
	<polygon fill="#FFFFFF" stroke="#000000" stroke-miterlimit="10" points="38.919,48.898 37.886,49.532 37.886,46.894 38.919,46.26 
			"/>
	<polygon fill="#FFFFFF" stroke="#000000" stroke-miterlimit="10" points="40.96,47.768 39.926,48.401 39.926,45.763 40.96,45.13 	
		"/>
	<polygon fill="#FFFFFF" stroke="#000000" stroke-miterlimit="10" points="43,46.638 41.966,47.271 41.966,44.632 43,43.999 	"/>
	<polygon fill="#FFFFFF" stroke="#000000" stroke-miterlimit="10" points="65.22,33.575 59.015,37.24 59.015,34.602 65.22,30.937 	
		"/>
</g>
</svg>
