<?xml version="1.0" encoding="utf-8"?>
<!-- Generator: Adobe Illustrator 16.0.0, SVG Export Plug-In . SVG Version: 6.00 Build 0)  -->
<!DOCTYPE svg PUBLIC "-//W3C//DTD SVG 1.1//EN" "http://www.w3.org/Graphics/SVG/1.1/DTD/svg11.dtd">
<svg version="1.1" id="Layer_1" xmlns="http://www.w3.org/2000/svg" xmlns:xlink="http://www.w3.org/1999/xlink" x="0px" y="0px"
	 width="1280px" height="720px" viewBox="0 0 1280 720" enable-background="new 0 0 1280 720" xml:space="preserve">
<g>
	<polygon fill="#9B8579" points="927.974,282.099 839.378,230.754 743.733,369.676 743.733,638.498 795.968,606.528 
		796.086,598.229 892.32,539.582 900.159,542.76 927.974,525.737 	"/>
	<g>
		<g>
			<polygon fill="#726658" points="892.234,421.475 796.086,472.396 796.086,598.221 892.234,539.582 			"/>
			<polygon fill="#665C51" points="900.156,542.824 892.148,539.558 892.066,421.62 900.351,417.385 			"/>
		</g>
		<g>
			<polygon fill="#665C51" points="796.062,587.805 796.062,585.75 892.07,532.207 892.746,533.849 			"/>
		</g>
		<g>
			<polygon fill="#665C51" points="796.062,578.814 796.062,576.76 892.07,523.218 892.746,524.858 			"/>
		</g>
		<g>
			<polygon fill="#665C51" points="796.062,569.825 796.062,567.771 892.07,514.228 892.746,515.869 			"/>
		</g>
		<g>
			<polygon fill="#665C51" points="796.062,560.835 796.062,558.78 892.07,505.237 892.746,506.879 			"/>
		</g>
		<g>
			<polygon fill="#665C51" points="796.062,551.845 796.062,549.79 892.07,496.248 892.746,497.889 			"/>
		</g>
		<g>
			<polygon fill="#665C51" points="796.062,542.855 796.062,540.801 892.07,487.258 892.746,488.898 			"/>
		</g>
		<g>
			<polygon fill="#665C51" points="796.062,533.865 796.062,531.811 892.07,478.268 892.746,479.909 			"/>
		</g>
		<g>
			<polygon fill="#665C51" points="796.062,524.875 796.062,522.82 892.07,469.277 892.746,470.919 			"/>
		</g>
		<g>
			<polygon fill="#665C51" points="796.062,515.885 796.062,513.831 892.07,460.288 892.746,461.929 			"/>
		</g>
		<g>
			<polygon fill="#665C51" points="796.062,506.896 796.062,504.841 892.07,451.298 892.746,452.939 			"/>
		</g>
		<g>
			<polygon fill="#665C51" points="796.062,497.905 796.062,495.851 892.07,442.308 892.746,443.949 			"/>
		</g>
		<g>
			<polygon fill="#665C51" points="796.062,488.915 796.062,486.861 892.07,433.318 892.746,434.959 			"/>
		</g>
	</g>
</g>
<polygon fill="#9B8579" points="612.518,305.924 491.705,305.924 491.705,611.891 606.604,550.913 "/>
<polygon fill="#C2B59B" points="303.774,256.257 400.423,225.384 491.705,344.854 491.705,611.984 303.774,508.622 "/>
<polygon fill="#C2B59B" points="598.758,314.315 685.339,300.22 743.733,374.723 743.733,638.474 598.758,554.935 "/>
<g>
	<polygon fill="#ED3293" points="584.664,91.822 703.503,48.589 401.431,218.672 281.623,261.967 	"/>
	<polygon fill="#C31A7F" points="505.465,360.964 798.437,192.832 703.464,48.528 400.423,218.672 	"/>
	<polygon fill="#D1D3D4" points="595.611,329.041 505.129,380.261 398.803,236.04 281.959,278.408 281.916,261.962 400.423,218.672 
		505.6,360.982 595.739,309.281 	"/>
	<rect x="505.422" y="360.481" fill="#939598" width="0.629" height="19.923"/>
</g>
<g>
	<polygon fill="#FFFFFF" points="678.211,435.381 647.506,419.272 647.506,355.512 678.211,371.45 	"/>
	<polygon fill="#00AEEF" points="673.177,425.314 665.627,421.281 665.627,370.444 673.177,374.475 	"/>
	<polygon fill="#00AEEF" points="659.586,418.265 652.036,414.235 652.036,363.396 659.586,367.427 	"/>
	<polygon fill="#9B8579" points="637.52,424.727 678.211,445.951 678.211,435.381 647.588,419.359 647.588,355.512 637.52,350.226 	
		"/>
</g>
<g>
	<polygon fill="#FFFFFF" points="816.055,430.681 846.763,414.572 846.763,350.812 816.055,366.75 	"/>
	<polygon fill="#00AEEF" points="821.089,420.614 828.642,416.583 828.642,365.744 821.089,369.774 	"/>
	<polygon fill="#00AEEF" points="834.68,413.565 842.232,409.535 842.232,358.697 834.68,362.729 	"/>
	<polygon fill="#726658" points="856.745,420.028 816.055,441.253 816.055,430.681 846.678,414.66 846.678,350.812 856.745,345.526 
			"/>
</g>
<g>
	<polygon fill="#FFFFFF" points="825.471,339.387 841.969,330.731 841.969,296.474 825.471,305.037 	"/>
	<polygon fill="#00AEEF" points="828.174,333.976 832.23,331.811 832.23,304.497 828.174,306.664 	"/>
	<polygon fill="#00AEEF" points="835.477,330.189 839.536,328.025 839.536,300.711 835.477,302.877 	"/>
	<polygon fill="#726658" points="847.329,333.662 825.471,345.066 825.471,339.387 841.923,330.779 841.923,296.474 
		847.329,293.636 	"/>
</g>
<g>
	<polygon fill="#FFFFFF" points="539.166,419.992 555.664,411.336 555.664,377.08 539.166,385.644 	"/>
	<polygon fill="#00AEEF" points="541.869,414.581 545.928,412.416 545.928,385.102 541.869,387.268 	"/>
	<polygon fill="#00AEEF" points="549.175,410.796 553.23,408.632 553.23,381.316 549.175,383.482 	"/>
	<polygon fill="#726658" points="561.027,414.267 539.166,425.671 539.166,419.992 555.617,411.382 555.617,377.08 561.027,374.24 	
		"/>
</g>
<g>
	<polygon fill="#FFFFFF" points="502.251,580.089 515.711,572.798 515.711,519.092 502.251,526.243 	"/>
	<polygon fill="#00AEEF" points="512.596,525.365 506.066,529.023 506.066,571.84 512.596,568.186 	"/>
	<polygon fill="#726658" points="520.086,579.429 502.251,588.991 502.251,580.089 515.674,572.853 515.674,519.077 
		520.086,516.682 	"/>
</g>
<g>
	<polygon fill="#FFFFFF" points="573.986,543.341 587.442,536.051 587.442,482.346 573.986,489.495 	"/>
	<polygon fill="#00AEEF" points="584.328,488.617 577.799,492.275 577.799,535.093 584.328,531.438 	"/>
	<polygon fill="#726658" points="591.818,542.682 573.986,552.245 573.986,543.341 587.406,536.105 587.406,482.33 591.818,479.934 
			"/>
</g>
<g>
	<polygon fill="#FFFFFF" points="678.211,555.604 647.506,539.497 647.506,475.735 678.211,491.676 	"/>
	<polygon fill="#00AEEF" points="673.177,545.538 665.627,541.509 665.627,490.669 673.177,494.7 	"/>
	<polygon fill="#00AEEF" points="659.586,538.491 652.036,534.459 652.036,483.621 659.586,487.652 	"/>
	<polygon fill="#9B8579" points="637.52,544.952 678.211,566.177 678.211,555.604 647.588,539.584 647.588,475.735 637.52,470.45 	
		"/>
</g>
<g>
	<polygon fill="#FFFFFF" points="448.667,427.336 417.959,411.226 417.959,347.465 448.667,363.405 	"/>
	<polygon fill="#00AEEF" points="443.63,417.266 436.08,413.236 436.08,362.397 443.63,366.43 	"/>
	<polygon fill="#00AEEF" points="430.038,410.22 422.489,406.188 422.489,355.35 430.038,359.38 	"/>
	<polygon fill="#9B8579" points="407.973,416.682 448.667,437.906 448.667,427.336 418.044,411.313 418.044,347.465 
		407.973,342.179 	"/>
</g>
<g>
	<polygon fill="#FFFFFF" points="448.667,545.545 417.959,529.436 417.959,465.674 448.667,481.614 	"/>
	<polygon fill="#00AEEF" points="443.63,535.475 436.08,531.445 436.08,480.607 443.63,484.639 	"/>
	<polygon fill="#00AEEF" points="430.038,528.43 422.489,524.397 422.489,473.56 430.038,477.591 	"/>
	<polygon fill="#9B8579" points="407.973,534.891 448.667,556.115 448.667,545.545 418.044,529.522 418.044,465.674 407.973,460.39 
			"/>
</g>
<g>
	<polygon fill="#FFFFFF" points="368.125,387.058 337.416,370.949 337.416,307.187 368.125,323.127 	"/>
	<polygon fill="#00AEEF" points="363.091,376.99 355.537,372.96 355.537,322.12 363.091,326.151 	"/>
	<polygon fill="#00AEEF" points="349.499,369.942 341.946,365.91 341.946,315.072 349.499,319.104 	"/>
	<polygon fill="#9B8579" points="327.43,376.403 368.125,397.628 368.125,387.058 337.498,371.035 337.498,307.187 327.43,301.903 	
		"/>
</g>
<g>
	<polygon fill="#FFFFFF" points="368.125,505.268 337.416,489.159 337.416,425.398 368.125,441.337 	"/>
	<polygon fill="#00AEEF" points="363.091,495.199 355.537,491.169 355.537,440.329 363.091,444.362 	"/>
	<polygon fill="#00AEEF" points="349.499,488.151 341.946,484.12 341.946,433.283 349.499,437.313 	"/>
	<polygon fill="#9B8579" points="327.43,494.613 368.125,515.839 368.125,505.268 337.498,489.244 337.498,425.398 327.43,420.112 	
		"/>
</g>
<g>
	<polygon fill="#726658" points="568.05,551.371 529.459,571.926 529.459,479.418 568.053,458.862 	"/>
	<polygon fill="#665C51" points="563.816,549.271 533.107,565.718 533.15,524.433 563.858,507.986 	"/>
	<polygon fill="#665C51" points="563.858,501.564 533.15,518.009 533.15,473.757 563.858,457.312 	"/>
	<g>
		<polygon fill="#C2B59B" points="559.578,511.294 521.992,490.989 521.992,448.875 547.663,478.908 		"/>
		<polygon fill="#C31A7F" points="559.496,511.309 607.147,483.789 570.232,425.396 521.906,448.888 		"/>
	</g>
</g>
<g>
	<polygon fill="#A7A9AC" points="544.088,588.516 536.726,584.636 536.726,575.659 529.417,571.711 529.417,591.809 
		544.088,599.926 	"/>
	<polygon fill="#939598" points="582.596,567.625 575.234,563.745 575.234,554.769 536.759,575.638 536.759,584.698 
		544.059,588.473 544.059,599.957 582.596,579.035 	"/>
	<polygon fill="#6D6E71" points="575.234,554.745 568.188,550.908 529.446,571.727 536.726,575.638 	"/>
	<polygon fill="#6D6E71" points="582.629,567.678 575.267,563.776 536.703,584.688 544.088,588.547 	"/>
</g>
<g>
	<g>
		<g id="iBaRlP_40_">
			<g>
				<path fill-rule="evenodd" clip-rule="evenodd" d="M527.201,247.243c1.167,1.534,2.355,3.054,3.493,4.605
					c0.925,1.264,0.735,2.403-0.54,3.186c-3.065,1.881-6.157,3.723-9.278,5.529c-1.3,0.75-2.603,0.442-3.539-0.753
					c-2.338-2.984-4.621-6.002-6.88-9.035c-0.941-1.263-0.639-2.409,0.595-3.179c2.989-1.865,6.026-3.675,9.073-5.467
					c1.449-0.85,2.768-0.605,3.843,0.832c1.07,1.434,2.163,2.851,3.246,4.276C527.211,247.237,527.207,247.24,527.201,247.243z"/>
			</g>
		</g>
		<g id="iBaRlP_39_">
			<g>
				<path fill-rule="evenodd" clip-rule="evenodd" d="M512.788,255.881c1.166,1.534,2.356,3.055,3.492,4.605
					c0.925,1.264,0.737,2.402-0.542,3.187c-3.063,1.879-6.158,3.724-9.276,5.528c-1.3,0.75-2.601,0.44-3.539-0.753
					c-2.338-2.984-4.619-6.003-6.882-9.034c-0.938-1.264-0.635-2.411,0.597-3.181c2.991-1.865,6.026-3.676,9.073-5.469
					c1.447-0.849,2.77-0.605,3.843,0.833c1.069,1.433,2.165,2.851,3.246,4.276C512.797,255.877,512.793,255.879,512.788,255.881z"/>
			</g>
		</g>
		<g id="iBaRlP_38_">
			<g>
				<path fill-rule="evenodd" clip-rule="evenodd" d="M498.374,264.521c1.167,1.535,2.356,3.055,3.49,4.607
					c0.927,1.262,0.735,2.401-0.542,3.186c-3.062,1.878-6.153,3.723-9.274,5.527c-1.302,0.75-2.604,0.443-3.541-0.752
					c-2.336-2.985-4.621-6.002-6.88-9.034c-0.941-1.264-0.635-2.411,0.596-3.18c2.992-1.867,6.025-3.675,9.074-5.467
					c1.447-0.851,2.766-0.604,3.843,0.832c1.071,1.432,2.163,2.851,3.246,4.276C498.383,264.517,498.377,264.518,498.374,264.521z"
					/>
			</g>
		</g>
		<g id="iBaRlP_37_">
			<g>
				<path fill-rule="evenodd" clip-rule="evenodd" d="M483.96,273.158c1.167,1.534,2.355,3.055,3.49,4.608
					c0.925,1.263,0.735,2.403-0.54,3.185c-3.063,1.88-6.155,3.724-9.276,5.529c-1.302,0.75-2.604,0.442-3.54-0.752
					c-2.337-2.985-4.62-6.003-6.881-9.035c-0.941-1.263-0.637-2.411,0.596-3.18c2.992-1.866,6.025-3.675,9.074-5.467
					c1.445-0.85,2.768-0.605,3.841,0.831c1.073,1.432,2.165,2.852,3.248,4.277C483.965,273.156,483.962,273.158,483.96,273.158z"/>
			</g>
		</g>
		<g id="iBaRlP_36_">
			<g>
				<path fill-rule="evenodd" clip-rule="evenodd" d="M516.449,233.1c1.168,1.534,2.355,3.055,3.494,4.605
					c0.923,1.265,0.735,2.402-0.542,3.187c-3.065,1.88-6.157,3.721-9.278,5.528c-1.301,0.75-2.601,0.444-3.537-0.753
					c-2.34-2.985-4.621-6.003-6.88-9.035c-0.941-1.263-0.639-2.41,0.595-3.178c2.989-1.868,6.026-3.678,9.072-5.469
					c1.449-0.851,2.769-0.605,3.842,0.832c1.071,1.432,2.166,2.851,3.248,4.275C516.459,233.094,516.455,233.096,516.449,233.1z"/>
			</g>
		</g>
		<g id="iBaRlP_35_">
			<g>
				<path fill-rule="evenodd" clip-rule="evenodd" d="M502.035,241.738c1.168,1.534,2.357,3.055,3.493,4.605
					c0.924,1.264,0.736,2.403-0.541,3.187c-3.065,1.88-6.16,3.723-9.278,5.527c-1.299,0.75-2.6,0.443-3.537-0.752
					c-2.34-2.984-4.621-6.004-6.88-9.034c-0.942-1.264-0.639-2.411,0.594-3.18c2.991-1.867,6.027-3.678,9.074-5.469
					c1.445-0.849,2.768-0.605,3.843,0.833c1.069,1.431,2.164,2.851,3.246,4.274C502.044,241.734,502.04,241.735,502.035,241.738z"/>
			</g>
		</g>
		<g id="iBaRlP_34_">
			<g>
				<path fill-rule="evenodd" clip-rule="evenodd" d="M487.623,250.377c1.165,1.534,2.355,3.054,3.49,4.607
					c0.926,1.262,0.735,2.401-0.542,3.185c-3.063,1.879-6.155,3.722-9.276,5.527c-1.301,0.75-2.603,0.444-3.539-0.752
					c-2.338-2.984-4.623-6.002-6.882-9.034c-0.941-1.264-0.636-2.412,0.597-3.179c2.992-1.868,6.024-3.676,9.073-5.469
					c1.448-0.851,2.766-0.604,3.846,0.833c1.07,1.431,2.16,2.852,3.243,4.275C487.629,250.373,487.626,250.374,487.623,250.377z"/>
			</g>
		</g>
		<g id="iBaRlP_33_">
			<g>
				<path fill-rule="evenodd" clip-rule="evenodd" d="M473.209,259.015c1.165,1.534,2.354,3.055,3.489,4.607
					c0.926,1.264,0.734,2.402-0.54,3.185c-3.064,1.881-6.156,3.723-9.277,5.528c-1.301,0.751-2.602,0.444-3.539-0.751
					c-2.338-2.986-4.621-6.004-6.882-9.035c-0.941-1.263-0.636-2.412,0.598-3.18c2.991-1.867,6.023-3.676,9.072-5.468
					c1.445-0.85,2.769-0.606,3.843,0.833c1.072,1.431,2.162,2.852,3.246,4.275C473.214,259.013,473.21,259.014,473.209,259.015z"/>
			</g>
		</g>
		<g id="iBaRlP_32_">
			<g>
				<path fill-rule="evenodd" clip-rule="evenodd" d="M505.698,218.956c1.165,1.534,2.354,3.056,3.493,4.607
					c0.922,1.263,0.734,2.401-0.543,3.185c-3.064,1.881-6.155,3.721-9.278,5.529c-1.297,0.75-2.601,0.442-3.536-0.755
					c-2.338-2.982-4.623-6.001-6.881-9.033c-0.941-1.265-0.639-2.41,0.596-3.179c2.989-1.867,6.025-3.677,9.072-5.468
					c1.45-0.851,2.768-0.604,3.842,0.833c1.072,1.431,2.165,2.851,3.248,4.274C505.708,218.951,505.703,218.954,505.698,218.956z"/>
			</g>
		</g>
		<g id="iBaRlP_31_">
			<g>
				<path fill-rule="evenodd" clip-rule="evenodd" d="M491.284,227.595c1.165,1.533,2.357,3.055,3.493,4.607
					c0.924,1.263,0.734,2.402-0.543,3.185c-3.062,1.881-6.159,3.723-9.278,5.528c-1.298,0.75-2.598,0.441-3.536-0.754
					c-2.34-2.982-4.623-6.002-6.881-9.033c-0.941-1.264-0.636-2.411,0.596-3.18c2.989-1.866,6.025-3.677,9.074-5.469
					c1.445-0.849,2.769-0.604,3.842,0.834c1.07,1.43,2.163,2.85,3.246,4.274C491.292,227.59,491.289,227.593,491.284,227.595z"/>
			</g>
		</g>
		<g id="iBaRlP_30_">
			<g>
				<path fill-rule="evenodd" clip-rule="evenodd" d="M476.87,236.235c1.165,1.533,2.356,3.054,3.489,4.607
					c0.929,1.26,0.738,2.4-0.539,3.185c-3.062,1.879-6.157,3.722-9.278,5.527c-1.301,0.751-2.602,0.445-3.54-0.752
					c-2.334-2.984-4.62-6.002-6.879-9.035c-0.943-1.263-0.634-2.411,0.596-3.179c2.991-1.868,6.023-3.676,9.072-5.469
					c1.449-0.85,2.77-0.604,3.846,0.834c1.07,1.43,2.161,2.851,3.243,4.274C476.877,236.23,476.873,236.231,476.87,236.235z"/>
			</g>
		</g>
		<g id="iBaRlP_29_">
			<g>
				<path fill-rule="evenodd" clip-rule="evenodd" d="M462.455,244.873c1.166,1.533,2.356,3.055,3.49,4.607
					c0.926,1.263,0.738,2.402-0.54,3.184c-3.062,1.881-6.156,3.722-9.276,5.529c-1.302,0.751-2.603,0.443-3.541-0.752
					c-2.334-2.985-4.619-6.003-6.879-9.035c-0.941-1.264-0.638-2.411,0.598-3.179c2.989-1.867,6.021-3.677,9.07-5.468
					c1.447-0.85,2.769-0.605,3.844,0.833c1.072,1.431,2.163,2.852,3.244,4.275C462.462,244.87,462.459,244.872,462.455,244.873z"/>
			</g>
		</g>
		<g id="iBaRlP_28_">
			<g>
				<path fill-rule="evenodd" clip-rule="evenodd" d="M494.945,204.812c1.167,1.535,2.355,3.056,3.493,4.606
					c0.923,1.263,0.735,2.402-0.542,3.185c-3.063,1.881-6.154,3.723-9.277,5.529c-1.299,0.75-2.6,0.443-3.538-0.754
					c-2.338-2.983-4.621-6-6.881-9.034c-0.942-1.264-0.639-2.41,0.596-3.178c2.989-1.867,6.025-3.677,9.073-5.468
					c1.449-0.852,2.77-0.604,3.843,0.833c1.07,1.432,2.163,2.85,3.246,4.273C494.955,204.807,494.951,204.81,494.945,204.812z"/>
			</g>
		</g>
		<g id="iBaRlP_27_">
			<g>
				<path fill-rule="evenodd" clip-rule="evenodd" d="M480.531,213.451c1.167,1.534,2.357,3.055,3.493,4.606
					c0.925,1.263,0.735,2.403-0.544,3.187c-3.062,1.88-6.156,3.724-9.275,5.527c-1.299,0.751-2.6,0.443-3.538-0.753
					c-2.338-2.982-4.619-6.002-6.882-9.033c-0.939-1.264-0.635-2.411,0.597-3.18c2.989-1.866,6.024-3.677,9.075-5.469
					c1.443-0.85,2.768-0.604,3.841,0.833c1.07,1.432,2.165,2.851,3.246,4.274C480.541,213.447,480.537,213.449,480.531,213.451z"/>
			</g>
		</g>
		<g id="iBaRlP_26_">
			<g>
				<path fill-rule="evenodd" clip-rule="evenodd" d="M466.118,222.091c1.167,1.534,2.356,3.055,3.49,4.607
					c0.927,1.26,0.735,2.4-0.542,3.185c-3.062,1.878-6.154,3.723-9.276,5.527c-1.3,0.751-2.603,0.444-3.541-0.752
					c-2.334-2.985-4.619-6.001-6.878-9.035c-0.941-1.263-0.635-2.411,0.597-3.179c2.989-1.868,6.024-3.676,9.073-5.467
					c1.445-0.852,2.766-0.604,3.844,0.831c1.07,1.432,2.162,2.852,3.243,4.275C466.125,222.086,466.12,222.087,466.118,222.091z"/>
			</g>
		</g>
		<g id="iBaRlP_25_">
			<g>
				<path fill-rule="evenodd" clip-rule="evenodd" d="M451.703,230.729c1.166,1.533,2.356,3.055,3.491,4.608
					c0.923,1.263,0.735,2.401-0.542,3.184c-3.062,1.88-6.155,3.724-9.274,5.529c-1.302,0.751-2.603,0.444-3.541-0.753
					c-2.336-2.983-4.619-6.001-6.88-9.033c-0.941-1.264-0.637-2.411,0.596-3.18c2.99-1.867,6.025-3.676,9.074-5.467
					c1.445-0.851,2.768-0.605,3.843,0.833c1.071,1.431,2.163,2.851,3.244,4.275C451.709,230.726,451.706,230.728,451.703,230.729z"
					/>
			</g>
		</g>
		<g id="iBaRlP_24_">
			<g>
				<path fill-rule="evenodd" clip-rule="evenodd" d="M484.195,190.67c1.166,1.535,2.354,3.055,3.493,4.606
					c0.922,1.263,0.734,2.401-0.543,3.186c-3.065,1.879-6.155,3.721-9.278,5.527c-1.299,0.751-2.601,0.444-3.539-0.753
					c-2.338-2.984-4.619-6.002-6.88-9.036c-0.941-1.262-0.639-2.409,0.595-3.177c2.992-1.866,6.026-3.677,9.075-5.467
					c1.448-0.851,2.768-0.606,3.841,0.832c1.073,1.433,2.165,2.85,3.25,4.275C484.205,190.665,484.199,190.667,484.195,190.67z"/>
			</g>
		</g>
		<g id="iBaRlP_23_">
			<g>
				<path fill-rule="evenodd" clip-rule="evenodd" d="M469.781,199.309c1.166,1.534,2.354,3.055,3.491,4.606
					c0.924,1.263,0.736,2.401-0.541,3.187c-3.065,1.878-6.159,3.724-9.278,5.527c-1.299,0.751-2.602,0.442-3.537-0.753
					c-2.34-2.983-4.621-6.003-6.882-9.034c-0.94-1.264-0.637-2.411,0.595-3.179c2.992-1.866,6.026-3.679,9.077-5.469
					c1.445-0.85,2.767-0.605,3.841,0.832c1.069,1.432,2.162,2.85,3.248,4.275C469.788,199.305,469.784,199.307,469.781,199.309z"/>
			</g>
		</g>
		<g id="iBaRlP_22_">
			<g>
				<path fill-rule="evenodd" clip-rule="evenodd" d="M455.367,207.949c1.165,1.534,2.354,3.053,3.49,4.606
					c0.925,1.261,0.735,2.4-0.542,3.186c-3.063,1.877-6.155,3.723-9.276,5.526c-1.301,0.752-2.604,0.444-3.541-0.752
					c-2.336-2.984-4.621-6.001-6.88-9.034c-0.941-1.264-0.635-2.412,0.597-3.179c2.992-1.866,6.024-3.676,9.073-5.467
					c1.449-0.851,2.768-0.604,3.846,0.832c1.07,1.433,2.16,2.85,3.243,4.277C455.373,207.944,455.37,207.946,455.367,207.949z"/>
			</g>
		</g>
		<g id="iBaRlP_21_">
			<g>
				<path fill-rule="evenodd" clip-rule="evenodd" d="M440.953,216.586c1.165,1.534,2.354,3.055,3.49,4.607
					c0.925,1.263,0.733,2.402-0.541,3.185c-3.064,1.879-6.156,3.723-9.277,5.528c-1.301,0.752-2.602,0.444-3.539-0.752
					c-2.338-2.984-4.62-6.002-6.882-9.035c-0.941-1.263-0.636-2.411,0.598-3.179c2.991-1.865,6.023-3.676,9.072-5.466
					c1.447-0.85,2.769-0.605,3.843,0.832c1.073,1.432,2.162,2.851,3.246,4.276C440.959,216.584,440.956,216.585,440.953,216.586z"/>
			</g>
		</g>
	</g>
	<g>
		<g id="iBaRlP_60_">
			<g>
				<path fill-rule="evenodd" clip-rule="evenodd" d="M592.924,210.617c1.168,1.534,2.355,3.055,3.494,4.605
					c0.925,1.264,0.735,2.402-0.541,3.185c-3.064,1.881-6.156,3.723-9.277,5.529c-1.301,0.75-2.603,0.442-3.539-0.753
					c-2.338-2.984-4.621-6.002-6.88-9.035c-0.941-1.263-0.639-2.409,0.595-3.179c2.989-1.865,6.026-3.675,9.073-5.467
					c1.448-0.85,2.768-0.606,3.843,0.832c1.069,1.434,2.162,2.851,3.246,4.276C592.934,210.611,592.931,210.615,592.924,210.617z"/>
			</g>
		</g>
		<g id="iBaRlP_59_">
			<g>
				<path fill-rule="evenodd" clip-rule="evenodd" d="M578.512,219.256c1.165,1.534,2.355,3.054,3.491,4.605
					c0.926,1.265,0.737,2.403-0.541,3.187c-3.063,1.879-6.159,3.724-9.276,5.528c-1.301,0.75-2.602,0.44-3.539-0.753
					c-2.338-2.983-4.62-6.003-6.882-9.034c-0.938-1.264-0.636-2.411,0.596-3.18c2.991-1.865,6.027-3.676,9.074-5.469
					c1.447-0.849,2.769-0.605,3.843,0.832c1.069,1.433,2.164,2.852,3.246,4.276C578.52,219.251,578.517,219.253,578.512,219.256z"/>
			</g>
		</g>
		<g id="iBaRlP_58_">
			<g>
				<path fill-rule="evenodd" clip-rule="evenodd" d="M564.098,227.895c1.167,1.534,2.355,3.055,3.49,4.607
					c0.926,1.262,0.735,2.401-0.542,3.186c-3.062,1.878-6.153,3.723-9.274,5.527c-1.303,0.751-2.604,0.443-3.541-0.752
					c-2.336-2.986-4.621-6.002-6.88-9.035c-0.941-1.263-0.636-2.411,0.596-3.18c2.991-1.867,6.025-3.675,9.074-5.467
					c1.446-0.851,2.766-0.604,3.842,0.831c1.072,1.432,2.163,2.852,3.247,4.276C564.105,227.891,564.101,227.893,564.098,227.895z"
					/>
			</g>
		</g>
		<g id="iBaRlP_57_">
			<g>
				<path fill-rule="evenodd" clip-rule="evenodd" d="M549.684,236.533c1.167,1.534,2.355,3.055,3.489,4.608
					c0.926,1.263,0.736,2.402-0.54,3.185c-3.063,1.88-6.154,3.724-9.275,5.529c-1.303,0.75-2.605,0.442-3.54-0.752
					c-2.337-2.985-4.621-6.003-6.881-9.035c-0.942-1.263-0.638-2.411,0.596-3.18c2.991-1.866,6.025-3.675,9.074-5.467
					c1.445-0.849,2.767-0.605,3.841,0.832c1.072,1.432,2.164,2.852,3.248,4.277C549.688,236.53,549.685,236.533,549.684,236.533z"/>
			</g>
		</g>
		<g id="iBaRlP_56_">
			<g>
				<path fill-rule="evenodd" clip-rule="evenodd" d="M582.173,196.474c1.167,1.535,2.355,3.056,3.493,4.605
					c0.924,1.264,0.736,2.402-0.541,3.186c-3.066,1.88-6.157,3.722-9.278,5.528c-1.301,0.75-2.602,0.443-3.538-0.753
					c-2.339-2.984-4.621-6.003-6.879-9.034c-0.942-1.264-0.639-2.41,0.594-3.178c2.989-1.868,6.027-3.677,9.072-5.469
					c1.45-0.85,2.77-0.605,3.842,0.833c1.072,1.432,2.167,2.851,3.248,4.275C582.183,196.468,582.178,196.471,582.173,196.474z"/>
			</g>
		</g>
		<g id="iBaRlP_55_">
			<g>
				<path fill-rule="evenodd" clip-rule="evenodd" d="M567.759,205.112c1.167,1.534,2.357,3.055,3.493,4.605
					c0.924,1.264,0.736,2.402-0.542,3.187c-3.065,1.88-6.16,3.723-9.278,5.527c-1.299,0.751-2.599,0.443-3.537-0.752
					c-2.34-2.984-4.621-6.004-6.88-9.034c-0.941-1.264-0.639-2.411,0.595-3.18c2.991-1.867,6.026-3.678,9.074-5.47
					c1.445-0.849,2.767-0.605,3.842,0.833c1.07,1.432,2.165,2.852,3.246,4.274C567.767,205.108,567.764,205.11,567.759,205.112z"/>
			</g>
		</g>
		<g id="iBaRlP_54_">
			<g>
				<path fill-rule="evenodd" clip-rule="evenodd" d="M553.346,213.751c1.166,1.535,2.355,3.055,3.49,4.607
					c0.927,1.262,0.736,2.401-0.541,3.186c-3.064,1.879-6.156,3.722-9.277,5.527c-1.3,0.75-2.603,0.444-3.539-0.752
					c-2.338-2.985-4.622-6.002-6.881-9.035c-0.941-1.263-0.636-2.412,0.596-3.179c2.993-1.868,6.025-3.676,9.074-5.469
					c1.448-0.85,2.766-0.604,3.846,0.833c1.069,1.432,2.159,2.852,3.242,4.275C553.353,213.747,553.35,213.749,553.346,213.751z"/>
			</g>
		</g>
		<g id="iBaRlP_53_">
			<g>
				<path fill-rule="evenodd" clip-rule="evenodd" d="M538.932,222.389c1.166,1.534,2.354,3.056,3.49,4.607
					c0.925,1.265,0.734,2.403-0.54,3.186c-3.065,1.881-6.157,3.723-9.278,5.528c-1.301,0.751-2.601,0.445-3.539-0.751
					c-2.338-2.985-4.621-6.003-6.881-9.034c-0.941-1.264-0.636-2.412,0.598-3.18c2.99-1.867,6.023-3.676,9.072-5.468
					c1.445-0.85,2.769-0.606,3.842,0.833c1.073,1.43,2.163,2.852,3.246,4.275C538.937,222.387,538.934,222.389,538.932,222.389z"/>
			</g>
		</g>
		<g id="iBaRlP_52_">
			<g>
				<path fill-rule="evenodd" clip-rule="evenodd" d="M571.422,182.331c1.165,1.533,2.354,3.055,3.492,4.607
					c0.922,1.263,0.734,2.401-0.543,3.185c-3.063,1.881-6.154,3.72-9.277,5.529c-1.298,0.75-2.602,0.442-3.536-0.755
					c-2.338-2.982-4.623-6.001-6.882-9.034c-0.941-1.264-0.639-2.41,0.596-3.179c2.99-1.867,6.025-3.677,9.072-5.468
					c1.451-0.851,2.768-0.604,3.843,0.833c1.071,1.431,2.165,2.85,3.248,4.274C571.432,182.326,571.426,182.328,571.422,182.331z"/>
			</g>
		</g>
		<g id="iBaRlP_51_">
			<g>
				<path fill-rule="evenodd" clip-rule="evenodd" d="M557.007,190.969c1.166,1.534,2.357,3.056,3.493,4.607
					c0.924,1.263,0.734,2.402-0.543,3.186c-3.062,1.881-6.158,3.723-9.277,5.528c-1.298,0.751-2.598,0.441-3.537-0.754
					c-2.339-2.982-4.622-6.002-6.881-9.033c-0.941-1.264-0.635-2.411,0.596-3.18c2.99-1.866,6.025-3.677,9.074-5.469
					c1.445-0.849,2.77-0.604,3.842,0.833c1.07,1.431,2.164,2.851,3.247,4.274C557.016,190.965,557.012,190.967,557.007,190.969z"/>
			</g>
		</g>
		<g id="iBaRlP_50_">
			<g>
				<path fill-rule="evenodd" clip-rule="evenodd" d="M542.593,199.609c1.166,1.534,2.357,3.055,3.49,4.607
					c0.929,1.26,0.737,2.4-0.54,3.185c-3.062,1.879-6.156,3.722-9.278,5.527c-1.3,0.751-2.601,0.444-3.539-0.752
					c-2.334-2.984-4.621-6.002-6.88-9.034c-0.943-1.264-0.633-2.411,0.597-3.179c2.991-1.868,6.023-3.676,9.072-5.469
					c1.448-0.851,2.769-0.604,3.845,0.833c1.07,1.431,2.162,2.852,3.243,4.274C542.6,199.604,542.596,199.606,542.593,199.609z"/>
			</g>
		</g>
		<g id="iBaRlP_49_">
			<g>
				<path fill-rule="evenodd" clip-rule="evenodd" d="M528.179,208.247c1.165,1.534,2.355,3.056,3.49,4.608
					c0.925,1.263,0.737,2.402-0.54,3.184c-3.062,1.881-6.157,3.722-9.276,5.529c-1.302,0.751-2.603,0.444-3.541-0.752
					c-2.335-2.984-4.619-6.002-6.88-9.034c-0.941-1.264-0.637-2.411,0.598-3.18c2.99-1.867,6.021-3.677,9.07-5.468
					c1.447-0.85,2.77-0.605,3.845,0.833c1.071,1.431,2.163,2.851,3.244,4.275C528.186,208.244,528.182,208.246,528.179,208.247z"/>
			</g>
		</g>
		<g id="iBaRlP_48_">
			<g>
				<path fill-rule="evenodd" clip-rule="evenodd" d="M560.668,168.187c1.168,1.534,2.356,3.055,3.494,4.606
					c0.923,1.263,0.735,2.402-0.542,3.185c-3.063,1.881-6.155,3.723-9.278,5.529c-1.299,0.751-2.6,0.444-3.537-0.754
					c-2.338-2.983-4.621-6-6.882-9.034c-0.941-1.263-0.639-2.41,0.597-3.178c2.989-1.867,6.024-3.677,9.073-5.468
					c1.448-0.852,2.769-0.604,3.843,0.833c1.069,1.432,2.163,2.85,3.246,4.273C560.678,168.181,560.675,168.185,560.668,168.187z"/>
			</g>
		</g>
		<g id="iBaRlP_47_">
			<g>
				<path fill-rule="evenodd" clip-rule="evenodd" d="M546.254,176.826c1.168,1.534,2.357,3.055,3.493,4.606
					c0.926,1.263,0.736,2.403-0.543,3.186c-3.062,1.88-6.157,3.724-9.276,5.527c-1.299,0.751-2.6,0.443-3.537-0.753
					c-2.338-2.982-4.62-6.002-6.882-9.033c-0.94-1.264-0.636-2.411,0.596-3.18c2.99-1.866,6.025-3.677,9.076-5.469
					c1.443-0.85,2.767-0.604,3.841,0.833c1.069,1.432,2.164,2.85,3.246,4.274C546.264,176.821,546.261,176.823,546.254,176.826z"/>
			</g>
		</g>
		<g id="iBaRlP_46_">
			<g>
				<path fill-rule="evenodd" clip-rule="evenodd" d="M531.842,185.466c1.167,1.533,2.355,3.054,3.49,4.607
					c0.926,1.26,0.735,2.4-0.542,3.185c-3.062,1.878-6.155,3.723-9.276,5.527c-1.301,0.751-2.603,0.445-3.541-0.752
					c-2.334-2.985-4.619-6.001-6.878-9.035c-0.941-1.263-0.636-2.411,0.596-3.179c2.989-1.868,6.025-3.676,9.074-5.467
					c1.445-0.852,2.766-0.604,3.844,0.832c1.07,1.432,2.161,2.851,3.243,4.275C531.848,185.461,531.844,185.461,531.842,185.466z"/>
			</g>
		</g>
		<g id="iBaRlP_45_">
			<g>
				<path fill-rule="evenodd" clip-rule="evenodd" d="M517.426,194.104c1.167,1.533,2.357,3.054,3.492,4.607
					c0.923,1.263,0.735,2.402-0.542,3.184c-3.062,1.88-6.155,3.724-9.274,5.529c-1.303,0.751-2.604,0.443-3.541-0.753
					c-2.336-2.984-4.62-6.001-6.88-9.034c-0.941-1.263-0.638-2.411,0.596-3.18c2.989-1.867,6.025-3.676,9.074-5.467
					c1.445-0.851,2.767-0.605,3.842,0.832c1.072,1.432,2.163,2.852,3.245,4.275C517.433,194.1,517.429,194.103,517.426,194.104z"/>
			</g>
		</g>
		<g id="iBaRlP_44_">
			<g>
				<path fill-rule="evenodd" clip-rule="evenodd" d="M549.919,154.044c1.165,1.534,2.354,3.055,3.493,4.606
					c0.922,1.263,0.734,2.401-0.543,3.186c-3.065,1.879-6.156,3.721-9.278,5.527c-1.299,0.751-2.602,0.443-3.54-0.753
					c-2.337-2.983-4.619-6.002-6.879-9.035c-0.941-1.263-0.639-2.409,0.594-3.177c2.993-1.866,6.027-3.677,9.076-5.467
					c1.448-0.851,2.768-0.606,3.84,0.831c1.074,1.433,2.165,2.85,3.25,4.275C549.929,154.04,549.922,154.042,549.919,154.044z"/>
			</g>
		</g>
		<g id="iBaRlP_43_">
			<g>
				<path fill-rule="evenodd" clip-rule="evenodd" d="M535.504,162.683c1.166,1.534,2.354,3.054,3.492,4.606
					c0.924,1.263,0.736,2.401-0.542,3.186c-3.065,1.878-6.158,3.724-9.278,5.527c-1.299,0.75-2.601,0.442-3.537-0.753
					c-2.34-2.983-4.621-6.003-6.881-9.034c-0.94-1.264-0.638-2.411,0.594-3.179c2.993-1.866,6.027-3.679,9.077-5.469
					c1.445-0.85,2.768-0.605,3.841,0.832c1.07,1.432,2.163,2.85,3.248,4.275C535.511,162.679,535.508,162.681,535.504,162.683z"/>
			</g>
		</g>
		<g id="iBaRlP_42_">
			<g>
				<path fill-rule="evenodd" clip-rule="evenodd" d="M521.09,171.323c1.166,1.534,2.354,3.053,3.49,4.606
					c0.926,1.261,0.736,2.4-0.541,3.186c-3.064,1.877-6.156,3.723-9.277,5.526c-1.3,0.752-2.604,0.444-3.541-0.752
					c-2.336-2.984-4.62-6.001-6.879-9.035c-0.941-1.263-0.636-2.412,0.596-3.179c2.993-1.866,6.025-3.676,9.074-5.467
					c1.448-0.851,2.768-0.604,3.846,0.831c1.069,1.433,2.159,2.851,3.242,4.277C521.097,171.318,521.094,171.321,521.09,171.323z"/>
			</g>
		</g>
		<g id="iBaRlP_41_">
			<g>
				<path fill-rule="evenodd" clip-rule="evenodd" d="M506.676,179.961c1.166,1.534,2.354,3.054,3.49,4.607
					c0.925,1.262,0.734,2.402-0.54,3.185c-3.065,1.879-6.157,3.723-9.278,5.528c-1.3,0.752-2.601,0.443-3.539-0.752
					c-2.338-2.984-4.619-6.003-6.881-9.035c-0.941-1.263-0.636-2.411,0.598-3.179c2.99-1.865,6.023-3.676,9.072-5.466
					c1.447-0.85,2.769-0.606,3.842,0.831c1.073,1.433,2.163,2.851,3.246,4.276C506.683,179.958,506.68,179.96,506.676,179.961z"/>
			</g>
		</g>
	</g>
	<g>
		<g id="iBaRlP_80_">
			<g>
				<path fill-rule="evenodd" clip-rule="evenodd" d="M658.647,173.992c1.167,1.534,2.355,3.054,3.493,4.605
					c0.925,1.265,0.736,2.403-0.54,3.186c-3.065,1.881-6.157,3.723-9.278,5.529c-1.3,0.75-2.603,0.442-3.539-0.753
					c-2.338-2.985-4.621-6.002-6.879-9.036c-0.942-1.262-0.639-2.409,0.594-3.179c2.989-1.865,6.027-3.675,9.074-5.467
					c1.448-0.851,2.768-0.606,3.842,0.831c1.07,1.434,2.163,2.852,3.246,4.276C658.657,173.986,658.654,173.989,658.647,173.992z"/>
			</g>
		</g>
		<g id="iBaRlP_79_">
			<g>
				<path fill-rule="evenodd" clip-rule="evenodd" d="M644.234,182.63c1.166,1.535,2.356,3.055,3.492,4.605
					c0.925,1.264,0.737,2.403-0.542,3.187c-3.063,1.879-6.158,3.724-9.276,5.528c-1.301,0.75-2.601,0.44-3.539-0.753
					c-2.338-2.984-4.619-6.003-6.881-9.034c-0.938-1.264-0.636-2.411,0.596-3.18c2.991-1.865,6.026-3.676,9.074-5.469
					c1.446-0.849,2.769-0.605,3.842,0.832c1.07,1.433,2.165,2.851,3.246,4.276C644.243,182.626,644.24,182.627,644.234,182.63z"/>
			</g>
		</g>
		<g id="iBaRlP_78_">
			<g>
				<path fill-rule="evenodd" clip-rule="evenodd" d="M629.82,191.27c1.168,1.534,2.355,3.054,3.49,4.607
					c0.927,1.262,0.736,2.401-0.541,3.185c-3.062,1.878-6.154,3.723-9.275,5.527c-1.302,0.75-2.604,0.443-3.541-0.752
					c-2.336-2.985-4.621-6.002-6.879-9.034c-0.942-1.264-0.636-2.411,0.596-3.18c2.991-1.867,6.025-3.675,9.074-5.467
					c1.446-0.851,2.766-0.604,3.842,0.832c1.071,1.432,2.163,2.851,3.246,4.276C629.829,191.265,629.824,191.267,629.82,191.27z"/>
			</g>
		</g>
		<g id="iBaRlP_77_">
			<g>
				<path fill-rule="evenodd" clip-rule="evenodd" d="M615.406,199.907c1.167,1.534,2.355,3.054,3.49,4.607
					c0.925,1.264,0.736,2.403-0.54,3.185c-3.063,1.88-6.155,3.724-9.276,5.529c-1.303,0.751-2.604,0.442-3.539-0.752
					c-2.338-2.985-4.621-6.002-6.882-9.035c-0.941-1.263-0.637-2.411,0.597-3.18c2.99-1.866,6.024-3.675,9.073-5.467
					c1.445-0.85,2.768-0.605,3.841,0.831c1.073,1.433,2.165,2.853,3.248,4.277C615.411,199.905,615.408,199.907,615.406,199.907z"/>
			</g>
		</g>
		<g id="iBaRlP_76_">
			<g>
				<path fill-rule="evenodd" clip-rule="evenodd" d="M647.896,159.848c1.167,1.534,2.355,3.055,3.492,4.605
					c0.924,1.264,0.736,2.402-0.541,3.186c-3.065,1.88-6.156,3.721-9.278,5.528c-1.3,0.75-2.601,0.444-3.537-0.753
					c-2.34-2.984-4.621-6.003-6.88-9.035c-0.941-1.263-0.639-2.41,0.594-3.178c2.99-1.868,6.027-3.678,9.072-5.469
					c1.451-0.85,2.77-0.605,3.843,0.832c1.071,1.433,2.167,2.852,3.248,4.275C647.906,159.842,647.9,159.845,647.896,159.848z"/>
			</g>
		</g>
		<g id="iBaRlP_75_">
			<g>
				<path fill-rule="evenodd" clip-rule="evenodd" d="M633.481,168.487c1.167,1.533,2.357,3.054,3.493,4.605
					c0.924,1.265,0.736,2.403-0.541,3.187c-3.065,1.88-6.16,3.723-9.278,5.527c-1.299,0.75-2.599,0.443-3.538-0.752
					c-2.339-2.983-4.62-6.003-6.879-9.033c-0.941-1.265-0.639-2.411,0.594-3.18c2.992-1.867,6.027-3.678,9.074-5.47
					c1.445-0.849,2.768-0.605,3.842,0.833c1.07,1.431,2.165,2.851,3.247,4.274C633.49,168.482,633.486,168.484,633.481,168.487z"/>
			</g>
		</g>
		<g id="iBaRlP_74_">
			<g>
				<path fill-rule="evenodd" clip-rule="evenodd" d="M619.069,177.126c1.165,1.534,2.355,3.055,3.489,4.607
					c0.928,1.262,0.736,2.401-0.541,3.186c-3.063,1.879-6.155,3.722-9.276,5.527c-1.301,0.751-2.603,0.445-3.539-0.752
					c-2.338-2.985-4.623-6.002-6.882-9.035c-0.941-1.263-0.635-2.412,0.597-3.179c2.992-1.868,6.024-3.676,9.073-5.469
					c1.449-0.85,2.766-0.604,3.846,0.833c1.07,1.431,2.16,2.852,3.243,4.275C619.076,177.121,619.072,177.123,619.069,177.126z"/>
			</g>
		</g>
		<g id="iBaRlP_73_">
			<g>
				<path fill-rule="evenodd" clip-rule="evenodd" d="M604.655,185.764c1.165,1.534,2.354,3.055,3.489,4.607
					c0.926,1.264,0.734,2.403-0.539,3.186c-3.065,1.88-6.157,3.723-9.278,5.528c-1.301,0.751-2.601,0.444-3.54-0.751
					c-2.337-2.985-4.62-6.004-6.881-9.035c-0.941-1.263-0.635-2.412,0.598-3.18c2.991-1.867,6.023-3.676,9.072-5.468
					c1.445-0.849,2.77-0.605,3.843,0.833c1.073,1.431,2.163,2.852,3.246,4.275C604.66,185.761,604.656,185.763,604.655,185.764z"/>
			</g>
		</g>
		<g id="iBaRlP_72_">
			<g>
				<path fill-rule="evenodd" clip-rule="evenodd" d="M637.145,145.705c1.166,1.534,2.354,3.056,3.493,4.607
					c0.922,1.263,0.734,2.401-0.543,3.185c-3.063,1.881-6.155,3.721-9.278,5.529c-1.297,0.75-2.601,0.442-3.536-0.754
					c-2.337-2.982-4.622-6.001-6.881-9.034c-0.941-1.264-0.639-2.41,0.596-3.179c2.989-1.867,6.025-3.677,9.072-5.468
					c1.45-0.851,2.768-0.604,3.843,0.833c1.071,1.432,2.164,2.851,3.248,4.274C637.154,145.7,637.149,145.702,637.145,145.705z"/>
			</g>
		</g>
		<g id="iBaRlP_71_">
			<g>
				<path fill-rule="evenodd" clip-rule="evenodd" d="M622.73,154.343c1.166,1.534,2.357,3.055,3.493,4.607
					c0.924,1.263,0.734,2.402-0.543,3.186c-3.062,1.881-6.159,3.723-9.278,5.528c-1.297,0.75-2.598,0.441-3.536-0.754
					c-2.339-2.982-4.622-6.002-6.881-9.033c-0.942-1.264-0.636-2.411,0.596-3.181c2.989-1.866,6.025-3.677,9.074-5.469
					c1.445-0.849,2.769-0.604,3.842,0.834c1.07,1.431,2.163,2.851,3.247,4.274C622.738,154.339,622.735,154.342,622.73,154.343z"/>
			</g>
		</g>
		<g id="iBaRlP_70_">
			<g>
				<path fill-rule="evenodd" clip-rule="evenodd" d="M608.316,162.983c1.165,1.533,2.357,3.055,3.49,4.607
					c0.928,1.26,0.737,2.4-0.541,3.185c-3.062,1.879-6.156,3.722-9.277,5.527c-1.301,0.751-2.602,0.444-3.539-0.752
					c-2.335-2.984-4.621-6.002-6.88-9.035c-0.943-1.263-0.634-2.411,0.596-3.179c2.991-1.868,6.023-3.676,9.072-5.469
					c1.449-0.85,2.769-0.603,3.846,0.834c1.07,1.431,2.161,2.851,3.243,4.274C608.322,162.979,608.319,162.98,608.316,162.983z"/>
			</g>
		</g>
		<g id="iBaRlP_69_">
			<g>
				<path fill-rule="evenodd" clip-rule="evenodd" d="M593.902,171.621c1.165,1.533,2.355,3.055,3.489,4.608
					c0.926,1.262,0.737,2.402-0.54,3.184c-3.062,1.881-6.156,3.722-9.275,5.529c-1.303,0.751-2.604,0.443-3.541-0.752
					c-2.335-2.984-4.62-6.003-6.88-9.034c-0.942-1.265-0.638-2.411,0.598-3.18c2.989-1.867,6.021-3.677,9.07-5.468
					c1.447-0.851,2.769-0.605,3.844,0.833c1.071,1.431,2.163,2.852,3.245,4.275C593.908,171.619,593.905,171.62,593.902,171.621z"/>
			</g>
		</g>
		<g id="iBaRlP_68_">
			<g>
				<path fill-rule="evenodd" clip-rule="evenodd" d="M626.392,131.562c1.167,1.534,2.355,3.055,3.493,4.606
					c0.924,1.263,0.736,2.402-0.541,3.185c-3.064,1.881-6.156,3.723-9.278,5.529c-1.299,0.75-2.6,0.444-3.538-0.754
					c-2.338-2.983-4.621-6-6.881-9.034c-0.941-1.263-0.639-2.41,0.596-3.178c2.989-1.867,6.025-3.677,9.074-5.468
					c1.448-0.852,2.769-0.604,3.842,0.833c1.07,1.433,2.163,2.85,3.246,4.274C626.401,131.556,626.398,131.559,626.392,131.562z"/>
			</g>
		</g>
		<g id="iBaRlP_67_">
			<g>
				<path fill-rule="evenodd" clip-rule="evenodd" d="M611.978,140.2c1.167,1.535,2.357,3.056,3.493,4.606
					c0.925,1.262,0.736,2.402-0.543,3.186c-3.062,1.88-6.157,3.724-9.277,5.527c-1.299,0.751-2.599,0.443-3.537-0.753
					c-2.338-2.982-4.619-6.002-6.881-9.033c-0.94-1.263-0.636-2.411,0.596-3.18c2.989-1.866,6.025-3.677,9.075-5.469
					c1.444-0.849,2.768-0.604,3.841,0.833c1.07,1.432,2.165,2.851,3.246,4.274C611.987,140.196,611.984,140.197,611.978,140.2z"/>
			</g>
		</g>
		<g id="iBaRlP_66_">
			<g>
				<path fill-rule="evenodd" clip-rule="evenodd" d="M597.564,148.84c1.168,1.534,2.356,3.055,3.49,4.607
					c0.927,1.26,0.736,2.4-0.541,3.185c-3.062,1.878-6.156,3.723-9.277,5.527c-1.3,0.751-2.603,0.444-3.541-0.752
					c-2.334-2.984-4.619-6.001-6.877-9.034c-0.942-1.264-0.636-2.411,0.596-3.179c2.989-1.868,6.025-3.676,9.074-5.467
					c1.445-0.852,2.766-0.604,3.844,0.832c1.069,1.432,2.161,2.851,3.242,4.275C597.571,148.835,597.566,148.836,597.564,148.84z"/>
			</g>
		</g>
		<g id="iBaRlP_65_">
			<g>
				<path fill-rule="evenodd" clip-rule="evenodd" d="M583.148,157.478c1.168,1.534,2.357,3.055,3.492,4.608
					c0.924,1.263,0.736,2.402-0.542,3.184c-3.062,1.88-6.155,3.724-9.274,5.529c-1.303,0.751-2.603,0.444-3.541-0.753
					c-2.336-2.984-4.619-6.001-6.879-9.034c-0.942-1.264-0.638-2.411,0.596-3.18c2.989-1.867,6.025-3.676,9.073-5.467
					c1.446-0.851,2.768-0.605,3.843,0.832c1.071,1.431,2.163,2.851,3.244,4.275C583.155,157.475,583.152,157.477,583.148,157.478z"
					/>
			</g>
		</g>
		<g id="iBaRlP_64_">
			<g>
				<path fill-rule="evenodd" clip-rule="evenodd" d="M615.642,117.419c1.166,1.534,2.354,3.054,3.493,4.606
					c0.922,1.263,0.734,2.401-0.543,3.186c-3.065,1.879-6.155,3.721-9.278,5.527c-1.299,0.751-2.601,0.444-3.539-0.753
					c-2.338-2.984-4.619-6.002-6.88-9.035c-0.941-1.263-0.639-2.409,0.595-3.177c2.993-1.866,6.026-3.677,9.075-5.467
					c1.449-0.851,2.768-0.605,3.841,0.832c1.073,1.433,2.165,2.85,3.25,4.275C615.651,117.414,615.645,117.417,615.642,117.419z"/>
			</g>
		</g>
		<g id="iBaRlP_63_">
			<g>
				<path fill-rule="evenodd" clip-rule="evenodd" d="M601.228,126.057c1.165,1.535,2.354,3.055,3.491,4.606
					c0.924,1.263,0.736,2.401-0.541,3.186c-3.065,1.878-6.158,3.724-9.278,5.527c-1.299,0.75-2.601,0.442-3.538-0.753
					c-2.339-2.983-4.62-6.003-6.881-9.034c-0.939-1.264-0.637-2.411,0.595-3.179c2.993-1.866,6.026-3.678,9.077-5.469
					c1.445-0.849,2.768-0.605,3.841,0.833c1.069,1.432,2.163,2.85,3.247,4.275C601.234,126.053,601.23,126.056,601.228,126.057z"/>
			</g>
		</g>
		<g id="iBaRlP_62_">
			<g>
				<path fill-rule="evenodd" clip-rule="evenodd" d="M586.813,134.697c1.165,1.534,2.354,3.053,3.49,4.606
					c0.925,1.261,0.735,2.4-0.542,3.185c-3.063,1.877-6.155,3.723-9.276,5.526c-1.301,0.752-2.604,0.445-3.541-0.752
					c-2.336-2.983-4.621-6.001-6.88-9.034c-0.941-1.264-0.635-2.412,0.597-3.179c2.992-1.866,6.024-3.676,9.073-5.467
					c1.449-0.851,2.768-0.604,3.846,0.832c1.07,1.433,2.16,2.851,3.243,4.277C586.82,134.692,586.816,134.695,586.813,134.697z"/>
			</g>
		</g>
		<g id="iBaRlP_61_">
			<g>
				<path fill-rule="evenodd" clip-rule="evenodd" d="M572.399,143.335c1.165,1.534,2.354,3.055,3.489,4.607
					c0.926,1.263,0.734,2.402-0.539,3.185c-3.065,1.879-6.157,3.723-9.278,5.528c-1.301,0.752-2.601,0.443-3.54-0.752
					c-2.337-2.985-4.619-6.003-6.881-9.035c-0.941-1.263-0.635-2.411,0.598-3.179c2.991-1.865,6.023-3.676,9.072-5.466
					c1.447-0.851,2.77-0.606,3.843,0.831c1.073,1.432,2.163,2.851,3.246,4.276C572.406,143.333,572.402,143.334,572.399,143.335z"/>
			</g>
		</g>
	</g>
</g>
<g>
	<g>
		<g>
			<path d="M769.592,590.688c-4.129,2.408-6.275,2.843-8.46,3.133c-1.786,0.309-0.19,1.739-3.468,3.651
				c-0.679,0.396-4.561-1.105-4.656-1.98c-3.312-36.757-2.298-52.311,0.729-68.156l0.019-0.084c0.184-0.748,0.56-1.418,1.002-1.798
				l0.084-0.076c2.18-1.944,7.99-6.9,14.801-10.873c4.71-2.747,9.924-5.006,14.683-6.357c0.096-0.026,0.158-0.046,0.188-0.055
				c0.457-0.143,4.547,1.229,4.547,1.229c2.999,12.2,0.493,25.991-2.781,66.739c-0.089,1.029-0.646,2.033-1.361,2.451
				c-3.277,1.911-4.979,3.605-6.78,5.396C775.773,586.302,773.639,588.326,769.592,590.688z"/>
		</g>
	</g>
	<g>
		<g>
			<path fill="#FFFFFF" d="M773.385,590.902c-4.11,2.396-6.242,2.796-8.272,3.065c-1.878,0.324-3.652,0.654-6.952,2.578
				c-0.406,0.239-0.711-0.005-0.76-0.471c-3.299-36.613-2.285-52.115,0.709-67.786c0.101-0.408,0.305-0.81,0.559-1.027
				c0.253-0.221,6.852-6.247,14.768-10.864c7.917-4.618,14.462-6.258,14.767-6.364c0.254-0.078,0.458,0.082,0.558,0.373
				c2.993,12.181,3.96,26.529,0.712,66.962c-0.05,0.594-0.355,1.121-0.761,1.357c-3.301,1.925-5.075,3.665-6.953,5.533
				C779.627,586.417,777.497,588.503,773.385,590.902z"/>
			<path d="M773.385,591.741c-4.129,2.408-6.275,2.843-8.46,3.132c-1.786,0.31-3.486,0.602-6.765,2.513
				c-0.678,0.396-1.264,0.034-1.359-0.841c-3.312-36.757-2.298-52.311,0.729-68.157l0.019-0.084
				c0.184-0.747,0.559-1.417,1.002-1.797l0.084-0.076c2.18-1.944,7.99-6.9,14.801-10.873c4.71-2.747,9.924-5.006,14.683-6.357
				c0.096-0.026,0.158-0.046,0.188-0.055c0.458-0.144,0.833,0.091,1.018,0.624l0.017,0.061c2.999,12.2,4.007,26.535,0.732,67.284
				c-0.089,1.028-0.646,2.033-1.361,2.451c-3.277,1.911-4.979,3.605-6.781,5.396C779.566,587.355,777.432,589.38,773.385,591.741z
				 M758.681,528.241c-2.975,15.588-3.962,30.964-0.682,67.387c0.007,0.056,0.058,0.143,0.161,0.08
				c3.454-2.015,5.321-2.336,7.125-2.644c2.101-0.278,4.148-0.696,8.1-3.001c4.185-2.441,6.314-4.6,8.195-6.501
				c1.811-1.805,3.678-3.659,7.131-5.673c0.133-0.079,0.151-0.173,0.16-0.275c3.244-40.395,2.267-54.583-0.681-66.589
				c-0.034-0.082-0.082-0.11-0.104-0.102c-0.014,0.005-0.093,0.027-0.225,0.063c-4.675,1.327-9.8,3.55-14.426,6.249
				c-6.879,4.012-12.866,9.187-14.537,10.68c-0.058,0.047-0.096,0.084-0.112,0.097C758.764,528.034,758.714,528.118,758.681,528.241
				z"/>
		</g>
		<g>
			<path fill="#BCBEC0" d="M790.537,552.461c-4.605,2.367-9.362-0.634-13.774-7.062c-3.822-5.579-7.718-8.705-12.626-10.139
				c-4.34-1.267-5.943-3.938-6.039-4.093l0.242-1.358c0.023,0.038,1.99,3.147,6.184,4.372c4.999,1.459,8.96,4.638,12.842,10.299
				c4.285,6.256,8.824,9.208,13.209,6.955L790.537,552.461z"/>
		</g>
		<g>
			<path fill="#010101" d="M764.048,541.072c0.049,0.18,0.153,0.262,0.304,0.242l0.508-0.295v1.757l0.305-0.177v-1.758l0.56-0.326
				c0.151-0.158,0.303-0.39,0.303-0.601L764.048,541.072L764.048,541.072z M778.712,534.696c0.153-0.159,0.255-0.43,0.255-0.571
				l-1.371,0.8v-1.758l-0.303,0.176v2.18L778.712,534.696z M773.131,536.192l1.065-0.62c0.151-0.158,0.305-0.389,0.355-0.629
				l-1.727,1.009v1.265l1.422-0.83v0.422l-1.116,0.648c-0.151,0.16-0.306,0.394-0.406,0.66l1.776-1.034v-1.335l-1.421,0.83
				L773.131,536.192z M768.768,538.739l1.167-0.68c0.151-0.159,0.303-0.389,0.303-0.6l-1.824,1.065
				C768.463,538.705,768.614,538.828,768.768,538.739 M768.768,539.582l1.167-0.68c0.151-0.159,0.303-0.385,0.303-0.6l-1.824,1.065
				C768.463,539.551,768.614,539.671,768.768,539.582 M768.768,540.498l1.167-0.682c0.151-0.158,0.303-0.386,0.303-0.598
				l-1.824,1.062C768.463,540.465,768.614,540.518,768.768,540.498"/>
			<g>
				<path fill="#010101" d="M781.199,531.908v1.335l0.305-0.175v-0.843l1.116-0.653v0.843l0.306-0.177v-1.336L781.199,531.908z
					 M781.504,531.312l1.167-0.683c0.153-0.16,0.305-0.391,0.305-0.598l-1.827,1.062C781.199,531.277,781.3,531.429,781.504,531.312
					"/>
			</g>
		</g>
	</g>
</g>
<g>
	<g>
		<g>
			<path d="M713.542,588.604c-4.129-1.864-6.275-3.655-8.46-5.624c-1.786-1.541-3.486-3.013-6.765-4.494
				c-0.678-0.306-1.264-1.274-1.359-2.249c-3.312-40.187-2.021-67.688-2.021-67.688c0.185-0.553,3.327-0.615,3.771-0.536l0.084,0.01
				c2.18,0.312,7.99,1.373,14.801,4.454c4.71,2.127,9.923,5.269,14.683,8.844c0.096,0.072,0.158,0.118,0.188,0.142
				c0.458,0.332,0.833,0.951,1.018,1.676l0.017,0.079c2.999,15.307,4.007,30.686,0.732,68.041c-0.089,0.941-5.289,1.337-6.004,1.014
				c-3.277-1.484-0.337-1.521-2.138-1.593C719.724,590.621,717.588,590.434,713.542,588.604z"/>
		</g>
	</g>
	<g>
		<g>
			<path fill="#FFFFFF" d="M710.172,587.767c-4.11-1.86-6.242-3.668-8.271-5.498c-1.879-1.623-3.653-3.131-6.952-4.623
				c-0.407-0.184-0.712-0.743-0.761-1.257c-3.299-40.029-2.285-54.483,0.709-67.054c0.101-0.303,0.305-0.494,0.559-0.448
				c0.254,0.04,6.852,0.85,14.768,4.426c7.917,3.582,14.463,8.722,14.767,8.929c0.254,0.185,0.458,0.557,0.559,0.951
				c2.993,15.28,3.959,30.63,0.711,67.699c-0.05,0.543-0.355,0.754-0.761,0.569c-3.301-1.495-5.075-1.59-6.953-1.666
				C716.414,589.745,714.284,589.624,710.172,587.767z"/>
			<path d="M710.172,588.604c-4.129-1.864-6.275-3.655-8.46-5.624c-1.786-1.541-3.486-3.013-6.764-4.494
				c-0.679-0.306-1.265-1.274-1.36-2.249c-3.312-40.187-2.298-54.689,0.729-67.402l0.019-0.065c0.184-0.553,0.56-0.836,1.002-0.757
				l0.084,0.01c2.18,0.312,7.99,1.373,14.801,4.454c4.71,2.127,9.924,5.269,14.683,8.844c0.096,0.072,0.158,0.118,0.188,0.142
				c0.457,0.332,0.832,0.951,1.017,1.676l0.017,0.079c3,15.307,4.007,30.686,0.732,68.041c-0.089,0.941-0.646,1.366-1.361,1.044
				c-3.277-1.485-4.979-1.551-6.78-1.623C716.354,590.621,714.219,590.434,710.172,588.604z M695.468,509.882
				c-2.975,12.504-3.962,26.859-0.681,66.678c0.006,0.062,0.057,0.204,0.161,0.25c3.453,1.561,5.32,3.174,7.124,4.734
				c2.102,1.896,4.148,3.596,8.1,5.384c4.185,1.893,6.314,1.938,8.195,1.984c1.811,0.073,3.678,0.152,7.131,1.713
				c0.134,0.059,0.151-0.017,0.16-0.109c3.244-37.036,2.267-52.237-0.68-67.293c-0.035-0.119-0.083-0.198-0.105-0.211
				c-0.014-0.01-0.093-0.066-0.225-0.168c-4.675-3.513-9.8-6.602-14.426-8.688c-6.879-3.115-12.866-4.139-14.537-4.376
				c-0.058-0.013-0.096-0.017-0.112-0.02C695.551,509.756,695.501,509.789,695.468,509.882z"/>
		</g>
		<g>
			<path fill="#BCBEC0" d="M727.324,567.087c-4.604-2.399-9.362-10.328-13.774-21.325c-3.822-9.538-7.718-16.698-12.626-23.215
				c-4.34-5.758-5.943-10.091-6.039-10.348l0.242-1.106c0.023,0.062,1.99,5.209,6.184,10.776c5,6.634,8.96,13.917,12.842,23.597
				c4.285,10.693,8.824,18.346,13.209,20.634L727.324,567.087z"/>
		</g>
		<g>
			<path fill="#010101" d="M700.835,528.267c0.049,0.23,0.153,0.421,0.305,0.56l0.507,0.23v1.755l0.305,0.142v-1.759l0.56,0.251
				c0.151,0,0.303-0.072,0.303-0.283L700.835,528.267L700.835,528.267z M715.499,537.077c0.153,0,0.255-0.165,0.255-0.307
				l-1.371-0.622v-1.758l-0.303-0.136v2.18L715.499,537.077z M709.918,532.797l1.065,0.48c0.151,0,0.305-0.072,0.355-0.26
				l-1.727-0.78v1.264l1.423,0.646v0.422l-1.117-0.508c-0.15,0-0.306,0.073-0.406,0.237l1.776,0.804v-1.334l-1.421-0.642
				L709.918,532.797z M705.555,530.821l1.167,0.53c0.151-0.004,0.303-0.076,0.303-0.287l-1.824-0.822
				C705.25,530.473,705.401,530.752,705.555,530.821 M705.555,531.664l1.167,0.53c0.151-0.004,0.303-0.072,0.303-0.286l-1.824-0.823
				C705.25,531.318,705.401,531.595,705.555,531.664 M705.555,532.579l1.167,0.527c0.151,0,0.303-0.073,0.303-0.283l-1.824-0.827
				C705.25,532.23,705.401,532.441,705.555,532.579"/>
			<g>
				<path fill="#010101" d="M717.986,536.866v1.333l0.305,0.142v-0.843l1.116,0.501v0.843l0.306,0.142v-1.337L717.986,536.866z
					 M718.291,536.583l1.167,0.526c0.153,0,0.305-0.075,0.305-0.283l-1.827-0.829C717.986,536.234,718.087,536.49,718.291,536.583"
					/>
			</g>
		</g>
	</g>
</g>
<g>
	<g>
		<polygon fill="#D1D3D4" points="726.619,404.258 695.407,387.142 661.18,323.967 626.948,347.878 595.485,329.001 
			595.403,309.785 838.371,217.75 838.371,237.133 		"/>
		<rect x="726.24" y="384.539" fill="#939598" width="0.629" height="19.379"/>
		<g>
			<polygon fill="#ED3293" points="726.619,384.791 695.407,367.676 661.18,304.5 626.948,328.41 595.485,309.535 707.49,142.158 
				838.371,217.667 			"/>
			<polygon fill="#C31A7F" points="661.324,304.29 725.108,267.836 695.743,367.676 			"/>
		</g>
		<polygon fill="#D1D3D4" points="943.451,296.572 838.245,237.172 838.245,217.706 943.451,277.107 		"/>
	</g>
	<rect x="595.36" y="309.219" fill="#939598" width="0.629" height="19.924"/>
</g>
<g>
	<g>
		<g id="iBaRlP_100_">
			<g>
				<path fill-rule="evenodd" clip-rule="evenodd" d="M720.416,251.07c-1.074,1.65-2.127,3.314-3.231,4.947
					c-0.898,1.33-2.097,1.665-3.361,0.928c-3.034-1.771-6.042-3.577-9.026-5.428c-1.239-0.77-1.43-2.004-0.605-3.312
					c2.062-3.27,4.18-6.509,6.321-9.731c0.893-1.343,2.144-1.585,3.38-0.88c2.989,1.713,5.946,3.488,8.883,5.283
					c1.399,0.853,1.661,2.072,0.648,3.604c-1.011,1.525-2,3.065-2.996,4.597C720.425,251.074,720.42,251.072,720.416,251.07z"/>
			</g>
		</g>
		<g id="iBaRlP_99_">
			<g>
				<path fill-rule="evenodd" clip-rule="evenodd" d="M706.345,242.659c-1.075,1.649-2.127,3.313-3.229,4.948
					c-0.898,1.328-2.099,1.663-3.364,0.926c-3.036-1.769-6.045-3.578-9.025-5.428c-1.239-0.769-1.432-2.003-0.607-3.312
					c2.063-3.27,4.186-6.508,6.322-9.732c0.894-1.342,2.145-1.585,3.379-0.879c2.991,1.714,5.945,3.488,8.887,5.282
					c1.396,0.852,1.658,2.073,0.646,3.604c-1.011,1.527-1.999,3.067-2.996,4.599C706.354,242.663,706.35,242.661,706.345,242.659z"
					/>
			</g>
		</g>
		<g id="iBaRlP_98_">
			<g>
				<path fill-rule="evenodd" clip-rule="evenodd" d="M692.274,234.248c-1.075,1.65-2.127,3.314-3.231,4.946
					c-0.897,1.33-2.099,1.666-3.363,0.928c-3.03-1.769-6.043-3.578-9.022-5.427c-1.241-0.771-1.435-2.004-0.608-3.314
					c2.064-3.268,4.181-6.51,6.322-9.73c0.891-1.344,2.145-1.585,3.379-0.881c2.992,1.715,5.945,3.488,8.885,5.282
					c1.396,0.854,1.658,2.074,0.647,3.605c-1.013,1.526-2.002,3.064-2.999,4.597C692.279,234.25,692.277,234.249,692.274,234.248z"
					/>
			</g>
		</g>
		<g id="iBaRlP_97_">
			<g>
				<path fill-rule="evenodd" clip-rule="evenodd" d="M678.203,225.837c-1.074,1.648-2.127,3.313-3.23,4.946
					c-0.9,1.33-2.099,1.664-3.361,0.927c-3.034-1.769-6.043-3.577-9.024-5.427c-1.245-0.77-1.435-2.004-0.61-3.313
					c2.063-3.269,4.183-6.509,6.324-9.733c0.889-1.342,2.144-1.582,3.376-0.877c2.993,1.713,5.946,3.487,8.887,5.281
					c1.397,0.853,1.659,2.074,0.646,3.604c-1.008,1.529-1.996,3.066-2.995,4.599C678.207,225.84,678.206,225.838,678.203,225.837z"
					/>
			</g>
		</g>
		<g id="iBaRlP_96_">
			<g>
				<path fill-rule="evenodd" clip-rule="evenodd" d="M730.321,235.851c-1.075,1.649-2.126,3.315-3.231,4.947
					c-0.898,1.33-2.099,1.666-3.363,0.93c-3.033-1.771-6.043-3.579-9.024-5.43c-1.239-0.77-1.434-2.002-0.605-3.312
					c2.062-3.271,4.18-6.51,6.321-9.73c0.893-1.345,2.144-1.587,3.378-0.881c2.989,1.714,5.948,3.487,8.888,5.281
					c1.395,0.854,1.658,2.073,0.645,3.605c-1.012,1.525-2.001,3.064-2.996,4.597C730.328,235.855,730.325,235.853,730.321,235.851z"
					/>
			</g>
		</g>
		<g id="iBaRlP_95_">
			<g>
				<path fill-rule="evenodd" clip-rule="evenodd" d="M716.25,227.44c-1.073,1.649-2.129,3.314-3.229,4.948
					c-0.9,1.33-2.099,1.664-3.365,0.928c-3.037-1.769-6.045-3.58-9.025-5.43c-1.241-0.768-1.433-2-0.605-3.312
					c2.062-3.269,4.183-6.508,6.32-9.731c0.893-1.343,2.146-1.586,3.377-0.879c2.994,1.713,5.947,3.487,8.89,5.282
					c1.396,0.851,1.657,2.073,0.644,3.604c-1.011,1.527-1.997,3.066-2.994,4.599C716.258,227.445,716.253,227.442,716.25,227.44z"/>
			</g>
		</g>
		<g id="iBaRlP_94_">
			<g>
				<path fill-rule="evenodd" clip-rule="evenodd" d="M702.178,219.029c-1.073,1.649-2.127,3.315-3.231,4.945
					c-0.897,1.33-2.097,1.666-3.363,0.928c-3.03-1.768-6.041-3.578-9.022-5.427c-1.241-0.771-1.436-2.003-0.607-3.314
					c2.064-3.268,4.182-6.509,6.321-9.73c0.891-1.344,2.146-1.584,3.38-0.879c2.992,1.714,5.946,3.488,8.886,5.281
					c1.396,0.853,1.655,2.073,0.647,3.605c-1.013,1.526-2.002,3.064-3,4.596C702.184,219.032,702.184,219.031,702.178,219.029z"/>
			</g>
		</g>
		<g id="iBaRlP_93_">
			<g>
				<path fill-rule="evenodd" clip-rule="evenodd" d="M688.107,210.617c-1.074,1.649-2.128,3.314-3.229,4.946
					c-0.898,1.33-2.099,1.665-3.364,0.929c-3.033-1.768-6.042-3.578-9.021-5.428c-1.244-0.772-1.436-2.003-0.611-3.314
					c2.064-3.269,4.184-6.509,6.322-9.732c0.892-1.344,2.148-1.583,3.378-0.878c2.994,1.714,5.946,3.487,8.886,5.281
					c1.397,0.852,1.659,2.074,0.646,3.605c-1.008,1.527-1.995,3.065-2.995,4.597C688.113,210.62,688.109,210.619,688.107,210.617z"
					/>
			</g>
		</g>
		<g id="iBaRlP_92_">
			<g>
				<path fill-rule="evenodd" clip-rule="evenodd" d="M740.222,220.634c-1.069,1.648-2.125,3.314-3.228,4.947
					c-0.897,1.329-2.1,1.665-3.362,0.927c-3.035-1.77-6.043-3.578-9.027-5.428c-1.238-0.77-1.429-2.003-0.604-3.313
					c2.062-3.27,4.182-6.508,6.323-9.732c0.893-1.344,2.142-1.583,3.376-0.877c2.993,1.712,5.948,3.487,8.89,5.28
					c1.395,0.853,1.656,2.074,0.643,3.606c-1.011,1.524-1.999,3.063-2.996,4.596C740.231,220.638,740.229,220.634,740.222,220.634z"
					/>
			</g>
		</g>
		<g id="iBaRlP_91_">
			<g>
				<path fill-rule="evenodd" clip-rule="evenodd" d="M726.153,212.222c-1.073,1.648-2.127,3.315-3.228,4.947
					c-0.899,1.329-2.1,1.666-3.365,0.927c-3.036-1.768-6.043-3.58-9.026-5.428c-1.239-0.77-1.433-2.002-0.604-3.314
					c2.062-3.268,4.182-6.506,6.322-9.732c0.892-1.344,2.142-1.583,3.376-0.877c2.994,1.713,5.948,3.488,8.89,5.28
					c1.396,0.852,1.654,2.074,0.641,3.606c-1.006,1.525-1.994,3.064-2.992,4.598C726.162,212.227,726.156,212.224,726.153,212.222z"
					/>
			</g>
		</g>
		<g id="iBaRlP_90_">
			<g>
				<path fill-rule="evenodd" clip-rule="evenodd" d="M712.083,203.81c-1.073,1.65-2.128,3.316-3.231,4.947
					c-0.896,1.329-2.098,1.666-3.365,0.927c-3.03-1.768-6.039-3.578-9.021-5.426c-1.241-0.771-1.436-2.005-0.609-3.314
					c2.066-3.267,4.182-6.508,6.321-9.731c0.893-1.345,2.146-1.584,3.38-0.877c2.993,1.711,5.948,3.486,8.885,5.28
					c1.399,0.852,1.659,2.072,0.646,3.606c-1.008,1.524-1.999,3.062-2.994,4.594C712.088,203.813,712.087,203.812,712.083,203.81z"
					/>
			</g>
		</g>
		<g id="iBaRlP_89_">
			<g>
				<path fill-rule="evenodd" clip-rule="evenodd" d="M698.012,195.399c-1.073,1.649-2.129,3.316-3.231,4.947
					c-0.897,1.329-2.098,1.665-3.362,0.928c-3.033-1.768-6.041-3.578-9.024-5.426c-1.242-0.772-1.432-2.006-0.608-3.315
					c2.064-3.268,4.185-6.508,6.322-9.731c0.893-1.346,2.147-1.585,3.379-0.879c2.992,1.713,5.944,3.487,8.886,5.279
					c1.397,0.854,1.657,2.073,0.642,3.606c-1.004,1.526-1.993,3.065-2.992,4.598C698.018,195.402,698.015,195.4,698.012,195.399z"/>
			</g>
		</g>
		<g id="iBaRlP_88_">
			<g>
				<path fill-rule="evenodd" clip-rule="evenodd" d="M750.129,205.414c-1.073,1.65-2.129,3.314-3.229,4.948
					c-0.9,1.328-2.099,1.664-3.366,0.928c-3.032-1.77-6.042-3.578-9.024-5.429c-1.24-0.77-1.431-2.001-0.605-3.313
					c2.062-3.27,4.181-6.506,6.322-9.732c0.891-1.343,2.143-1.583,3.377-0.878c2.992,1.713,5.947,3.488,8.889,5.281
					c1.395,0.853,1.656,2.076,0.643,3.606c-1.009,1.525-1.997,3.063-2.994,4.595C750.139,205.418,750.132,205.415,750.129,205.414z"
					/>
			</g>
		</g>
		<g id="iBaRlP_87_">
			<g>
				<path fill-rule="evenodd" clip-rule="evenodd" d="M736.059,197.002c-1.075,1.651-2.129,3.316-3.229,4.947
					c-0.898,1.329-2.1,1.666-3.366,0.928c-3.034-1.769-6.043-3.578-9.022-5.428c-1.241-0.771-1.434-2.002-0.607-3.313
					c2.062-3.268,4.183-6.507,6.319-9.731c0.894-1.343,2.146-1.585,3.378-0.878c2.994,1.713,5.946,3.487,8.889,5.28
					c1.396,0.851,1.657,2.075,0.645,3.606c-1.009,1.525-1.996,3.063-2.992,4.597C736.066,197.007,736.062,197.005,736.059,197.002z"
					/>
			</g>
		</g>
		<g id="iBaRlP_86_">
			<g>
				<path fill-rule="evenodd" clip-rule="evenodd" d="M721.986,188.59c-1.074,1.652-2.127,3.316-3.23,4.948
					c-0.896,1.328-2.1,1.665-3.363,0.928c-3.033-1.769-6.042-3.579-9.023-5.428c-1.241-0.771-1.436-2.003-0.605-3.314
					c2.064-3.268,4.178-6.507,6.319-9.731c0.891-1.345,2.146-1.584,3.38-0.877c2.991,1.711,5.944,3.485,8.887,5.279
					c1.394,0.852,1.656,2.074,0.645,3.606c-1.011,1.526-2.002,3.062-2.999,4.594C721.993,188.593,721.993,188.593,721.986,188.59z"
					/>
			</g>
		</g>
		<g id="iBaRlP_85_">
			<g>
				<path fill-rule="evenodd" clip-rule="evenodd" d="M707.917,180.18c-1.075,1.651-2.127,3.315-3.231,4.948
					c-0.897,1.328-2.1,1.665-3.361,0.927c-3.034-1.767-6.045-3.576-9.025-5.426c-1.242-0.772-1.437-2.003-0.607-3.315
					c2.062-3.267,4.18-6.506,6.322-9.732c0.891-1.344,2.146-1.584,3.377-0.877c2.992,1.713,5.945,3.487,8.887,5.28
					c1.397,0.853,1.656,2.074,0.643,3.606c-1.006,1.526-1.996,3.064-2.993,4.597C707.92,180.184,707.92,180.181,707.917,180.18z"/>
			</g>
		</g>
		<g id="iBaRlP_84_">
			<g>
				<path fill-rule="evenodd" clip-rule="evenodd" d="M760.032,190.196c-1.076,1.651-2.127,3.314-3.228,4.947
					c-0.9,1.328-2.1,1.663-3.365,0.927c-3.032-1.771-6.042-3.578-9.023-5.429c-1.242-0.768-1.432-2.002-0.608-3.312
					c2.063-3.271,4.181-6.508,6.324-9.733c0.891-1.343,2.142-1.585,3.378-0.878c2.991,1.714,5.946,3.487,8.883,5.282
					c1.399,0.852,1.661,2.074,0.646,3.604c-1.007,1.527-1.998,3.063-2.992,4.597C760.042,190.201,760.035,190.197,760.032,190.196z"
					/>
			</g>
		</g>
		<g id="iBaRlP_83_">
			<g>
				<path fill-rule="evenodd" clip-rule="evenodd" d="M745.962,181.784c-1.075,1.652-2.126,3.315-3.229,4.949
					c-0.898,1.326-2.099,1.663-3.363,0.927c-3.035-1.771-6.043-3.579-9.024-5.429c-1.239-0.769-1.436-2.002-0.606-3.313
					c2.062-3.268,4.182-6.508,6.322-9.732c0.893-1.344,2.145-1.585,3.376-0.878c2.993,1.714,5.948,3.488,8.887,5.282
					c1.397,0.852,1.659,2.074,0.646,3.605c-1.01,1.526-1.997,3.062-2.995,4.598C745.969,181.789,745.966,181.787,745.962,181.784z"
					/>
			</g>
		</g>
		<g id="iBaRlP_82_">
			<g>
				<path fill-rule="evenodd" clip-rule="evenodd" d="M731.893,173.374c-1.075,1.65-2.127,3.313-3.233,4.947
					c-0.896,1.328-2.096,1.663-3.363,0.927c-3.03-1.77-6.044-3.579-9.021-5.429c-1.243-0.769-1.437-2.001-0.61-3.312
					c2.065-3.27,4.182-6.509,6.324-9.734c0.891-1.343,2.144-1.583,3.38-0.876c2.991,1.712,5.944,3.484,8.885,5.281
					c1.395,0.852,1.656,2.072,0.646,3.604c-1.013,1.527-1.999,3.062-2.996,4.596C731.896,173.377,731.896,173.376,731.893,173.374z"
					/>
			</g>
		</g>
		<g id="iBaRlP_81_">
			<g>
				<path fill-rule="evenodd" clip-rule="evenodd" d="M717.818,164.962c-1.073,1.651-2.127,3.314-3.229,4.947
					c-0.897,1.328-2.098,1.663-3.361,0.927c-3.034-1.768-6.044-3.577-9.023-5.428c-1.244-0.77-1.436-2.002-0.608-3.314
					c2.062-3.267,4.181-6.507,6.321-9.731c0.892-1.344,2.146-1.584,3.376-0.877c2.994,1.713,5.948,3.487,8.888,5.282
					c1.397,0.851,1.658,2.072,0.644,3.603c-1.007,1.528-1.993,3.065-2.994,4.598C717.825,164.965,717.822,164.963,717.818,164.962z"
					/>
			</g>
		</g>
	</g>
	<g>
		<g id="iBaRlP_120_">
			<g>
				<path fill-rule="evenodd" clip-rule="evenodd" d="M782.282,289.053c-1.075,1.651-2.127,3.314-3.229,4.947
					c-0.898,1.329-2.099,1.666-3.363,0.928c-3.034-1.771-6.041-3.578-9.026-5.429c-1.237-0.769-1.431-2.003-0.605-3.312
					c2.062-3.27,4.181-6.509,6.321-9.731c0.893-1.344,2.144-1.585,3.378-0.88c2.993,1.713,5.946,3.487,8.887,5.282
					c1.397,0.854,1.659,2.072,0.646,3.604c-1.008,1.526-1.999,3.065-2.996,4.598C782.289,289.056,782.286,289.054,782.282,289.053z"
					/>
			</g>
		</g>
		<g id="iBaRlP_119_">
			<g>
				<path fill-rule="evenodd" clip-rule="evenodd" d="M768.211,280.642c-1.073,1.648-2.127,3.313-3.229,4.947
					c-0.898,1.329-2.099,1.664-3.365,0.926c-3.033-1.769-6.045-3.578-9.025-5.427c-1.238-0.769-1.43-2.003-0.605-3.312
					c2.062-3.27,4.184-6.509,6.32-9.732c0.893-1.343,2.146-1.585,3.382-0.878c2.989,1.714,5.942,3.487,8.885,5.282
					c1.394,0.852,1.657,2.073,0.646,3.604c-1.012,1.527-1.997,3.066-2.996,4.599C768.221,280.646,768.216,280.644,768.211,280.642z"
					/>
			</g>
		</g>
		<g id="iBaRlP_118_">
			<g>
				<path fill-rule="evenodd" clip-rule="evenodd" d="M754.141,272.23c-1.075,1.65-2.127,3.313-3.231,4.945
					c-0.897,1.33-2.099,1.666-3.363,0.928c-3.03-1.768-6.043-3.577-9.022-5.427c-1.242-0.771-1.435-2.004-0.609-3.314
					c2.066-3.268,4.182-6.51,6.323-9.73c0.891-1.344,2.145-1.583,3.38-0.88c2.99,1.714,5.943,3.488,8.884,5.282
					c1.396,0.853,1.658,2.073,0.647,3.604c-1.011,1.526-2.002,3.063-3,4.597C754.146,272.233,754.144,272.231,754.141,272.23z"/>
			</g>
		</g>
		<g id="iBaRlP_117_">
			<g>
				<path fill-rule="evenodd" clip-rule="evenodd" d="M740.068,263.819c-1.074,1.649-2.125,3.313-3.229,4.946
					c-0.9,1.329-2.099,1.663-3.361,0.927c-3.034-1.768-6.044-3.577-9.024-5.426c-1.245-0.771-1.434-2.005-0.611-3.314
					c2.064-3.27,4.184-6.508,6.325-9.733c0.889-1.341,2.144-1.581,3.376-0.877c2.993,1.714,5.948,3.488,8.887,5.281
					c1.397,0.853,1.659,2.073,0.645,3.604c-1.007,1.528-1.994,3.066-2.994,4.599C740.074,263.822,740.072,263.82,740.068,263.819z"
					/>
			</g>
		</g>
		<g id="iBaRlP_116_">
			<g>
				<path fill-rule="evenodd" clip-rule="evenodd" d="M792.186,273.834c-1.072,1.649-2.126,3.315-3.229,4.946
					c-0.898,1.33-2.099,1.666-3.363,0.929c-3.034-1.771-6.043-3.578-9.024-5.429c-1.239-0.771-1.434-2.002-0.604-3.313
					c2.058-3.271,4.178-6.51,6.319-9.73c0.893-1.345,2.146-1.586,3.376-0.88c2.993,1.713,5.949,3.487,8.89,5.281
					c1.395,0.854,1.658,2.072,0.643,3.605c-1.008,1.524-1.999,3.063-2.996,4.596C792.192,273.838,792.189,273.836,792.186,273.834z"
					/>
			</g>
		</g>
		<g id="iBaRlP_115_">
			<g>
				<path fill-rule="evenodd" clip-rule="evenodd" d="M778.116,265.423c-1.072,1.648-2.129,3.314-3.229,4.947
					c-0.9,1.33-2.101,1.665-3.364,0.928c-3.036-1.769-6.045-3.579-9.025-5.43c-1.242-0.768-1.432-2-0.607-3.311
					c2.062-3.27,4.184-6.508,6.322-9.732c0.891-1.343,2.145-1.585,3.376-0.878c2.994,1.713,5.949,3.487,8.89,5.281
					c1.396,0.851,1.659,2.074,0.644,3.604c-1.013,1.527-1.997,3.067-2.995,4.599C778.124,265.427,778.119,265.424,778.116,265.423z"
					/>
			</g>
		</g>
		<g id="iBaRlP_114_">
			<g>
				<path fill-rule="evenodd" clip-rule="evenodd" d="M764.044,257.012c-1.073,1.649-2.127,3.314-3.231,4.945
					c-0.896,1.331-2.098,1.666-3.363,0.929c-3.03-1.767-6.041-3.578-9.022-5.427c-1.241-0.772-1.436-2.004-0.609-3.314
					c2.066-3.268,4.182-6.509,6.325-9.73c0.889-1.345,2.143-1.584,3.378-0.88c2.993,1.713,5.946,3.487,8.886,5.281
					c1.396,0.853,1.654,2.074,0.646,3.605c-1.011,1.526-2,3.064-2.998,4.595C764.049,257.014,764.049,257.013,764.044,257.012z"/>
			</g>
		</g>
		<g id="iBaRlP_113_">
			<g>
				<path fill-rule="evenodd" clip-rule="evenodd" d="M749.975,248.6c-1.074,1.65-2.127,3.315-3.23,4.946
					c-0.898,1.33-2.099,1.665-3.365,0.929c-3.032-1.768-6.041-3.578-9.021-5.427c-1.245-0.771-1.436-2.003-0.611-3.313
					c2.064-3.27,4.184-6.51,6.321-9.732c0.893-1.344,2.148-1.584,3.379-0.879c2.994,1.715,5.945,3.488,8.888,5.281
					c1.396,0.852,1.655,2.073,0.646,3.605c-1.01,1.527-1.999,3.065-2.996,4.597C749.979,248.602,749.976,248.601,749.975,248.6z"/>
			</g>
		</g>
		<g id="iBaRlP_112_">
			<g>
				<path fill-rule="evenodd" clip-rule="evenodd" d="M802.09,258.616c-1.072,1.649-2.127,3.314-3.23,4.947
					c-0.895,1.329-2.099,1.665-3.361,0.927c-3.035-1.769-6.041-3.578-9.027-5.427c-1.238-0.771-1.43-2.003-0.603-3.314
					c2.061-3.27,4.178-6.507,6.321-9.731c0.893-1.345,2.142-1.584,3.375-0.878c2.992,1.712,5.949,3.487,8.889,5.28
					c1.396,0.853,1.658,2.074,0.646,3.606c-1.012,1.523-2,3.063-2.999,4.596C802.096,258.62,802.093,258.616,802.09,258.616z"/>
			</g>
		</g>
		<g id="iBaRlP_111_">
			<g>
				<path fill-rule="evenodd" clip-rule="evenodd" d="M788.02,250.204c-1.071,1.649-2.127,3.316-3.229,4.948
					c-0.898,1.329-2.101,1.665-3.364,0.927c-3.036-1.768-6.044-3.58-9.024-5.428c-1.242-0.77-1.433-2.002-0.606-3.313
					c2.062-3.268,4.182-6.507,6.321-9.732c0.893-1.344,2.143-1.584,3.377-0.878c2.994,1.713,5.947,3.487,8.89,5.28
					c1.396,0.852,1.654,2.074,0.64,3.606c-1.007,1.525-1.991,3.064-2.99,4.598C788.027,250.208,788.023,250.206,788.02,250.204z"/>
			</g>
		</g>
		<g id="iBaRlP_110_">
			<g>
				<path fill-rule="evenodd" clip-rule="evenodd" d="M773.949,241.792c-1.073,1.651-2.129,3.317-3.231,4.949
					c-0.897,1.328-2.097,1.664-3.364,0.927c-3.031-1.768-6.04-3.579-9.021-5.427c-1.241-0.771-1.436-2.004-0.607-3.315
					c2.064-3.267,4.178-6.508,6.321-9.73c0.892-1.345,2.146-1.584,3.378-0.878c2.993,1.712,5.947,3.486,8.885,5.28
					c1.4,0.853,1.659,2.073,0.646,3.606c-1.007,1.525-2,3.063-2.996,4.595C773.953,241.795,773.953,241.795,773.949,241.792z"/>
			</g>
		</g>
		<g id="iBaRlP_109_">
			<g>
				<path fill-rule="evenodd" clip-rule="evenodd" d="M759.878,233.381c-1.073,1.649-2.127,3.316-3.231,4.948
					c-0.897,1.329-2.098,1.665-3.361,0.928c-3.034-1.769-6.042-3.579-9.025-5.427c-1.242-0.772-1.432-2.005-0.609-3.314
					c2.064-3.268,4.186-6.508,6.324-9.732c0.892-1.346,2.146-1.585,3.377-0.879c2.993,1.713,5.946,3.487,8.887,5.28
					c1.396,0.854,1.659,2.073,0.643,3.605c-1.005,1.527-1.996,3.065-2.993,4.599C759.885,233.385,759.881,233.383,759.878,233.381z"
					/>
			</g>
		</g>
		<g id="iBaRlP_108_">
			<g>
				<path fill-rule="evenodd" clip-rule="evenodd" d="M811.996,243.396c-1.074,1.651-2.13,3.315-3.229,4.949
					c-0.898,1.327-2.099,1.664-3.366,0.927c-3.032-1.77-6.042-3.578-9.024-5.428c-1.239-0.77-1.431-2.002-0.604-3.313
					c2.061-3.27,4.178-6.507,6.321-9.731c0.891-1.344,2.142-1.584,3.378-0.879c2.993,1.715,5.946,3.488,8.887,5.281
					c1.396,0.853,1.656,2.076,0.646,3.606c-1.011,1.525-1.999,3.063-2.997,4.595C812.003,243.401,812,243.396,811.996,243.396z"/>
			</g>
		</g>
		<g id="iBaRlP_107_">
			<g>
				<path fill-rule="evenodd" clip-rule="evenodd" d="M797.925,234.984c-1.073,1.651-2.127,3.316-3.229,4.948
					c-0.897,1.329-2.098,1.666-3.365,0.928c-3.035-1.77-6.045-3.579-9.024-5.429c-1.239-0.77-1.433-2-0.606-3.313
					c2.063-3.268,4.184-6.507,6.32-9.731c0.895-1.343,2.146-1.585,3.378-0.878c2.995,1.713,5.948,3.487,8.888,5.28
					c1.396,0.852,1.658,2.075,0.646,3.606c-1.011,1.526-1.995,3.063-2.993,4.598C797.934,234.99,797.928,234.987,797.925,234.984z"
					/>
			</g>
		</g>
		<g id="iBaRlP_106_">
			<g>
				<path fill-rule="evenodd" clip-rule="evenodd" d="M783.854,226.572c-1.075,1.652-2.127,3.316-3.232,4.949
					c-0.896,1.328-2.099,1.665-3.363,0.927c-3.031-1.769-6.041-3.579-9.022-5.427c-1.243-0.771-1.436-2.003-0.607-3.315
					c2.064-3.268,4.179-6.506,6.321-9.73c0.893-1.345,2.146-1.584,3.378-0.876c2.993,1.71,5.946,3.485,8.888,5.279
					c1.395,0.852,1.656,2.074,0.645,3.606c-1.008,1.525-2,3.062-2.996,4.595C783.859,226.576,783.859,226.576,783.854,226.572z"/>
			</g>
		</g>
		<g id="iBaRlP_105_">
			<g>
				<path fill-rule="evenodd" clip-rule="evenodd" d="M769.783,218.163c-1.075,1.65-2.125,3.315-3.232,4.947
					c-0.896,1.328-2.099,1.665-3.361,0.927c-3.035-1.767-6.045-3.575-9.024-5.426c-1.243-0.772-1.436-2.003-0.607-3.315
					c2.063-3.267,4.18-6.506,6.321-9.731c0.891-1.344,2.146-1.584,3.38-0.876c2.989,1.712,5.942,3.486,8.887,5.28
					c1.396,0.852,1.655,2.074,0.642,3.605c-1.008,1.526-1.995,3.064-2.994,4.597C769.786,218.166,769.786,218.164,769.783,218.163z"
					/>
			</g>
		</g>
		<g id="iBaRlP_104_">
			<g>
				<path fill-rule="evenodd" clip-rule="evenodd" d="M821.896,228.178c-1.073,1.651-2.127,3.314-3.227,4.948
					c-0.898,1.328-2.099,1.664-3.364,0.928c-3.032-1.772-6.042-3.579-9.022-5.43c-1.243-0.768-1.433-2.001-0.608-3.312
					c2.062-3.27,4.182-6.508,6.323-9.733c0.891-1.343,2.142-1.585,3.377-0.878c2.992,1.714,5.945,3.487,8.886,5.282
					c1.397,0.853,1.659,2.075,0.646,3.605c-1.01,1.527-1.998,3.062-2.996,4.597C821.906,228.184,821.9,228.179,821.896,228.178z"/>
			</g>
		</g>
		<g id="iBaRlP_103_">
			<g>
				<path fill-rule="evenodd" clip-rule="evenodd" d="M807.828,219.767c-1.073,1.651-2.127,3.314-3.229,4.948
					c-0.899,1.327-2.101,1.664-3.365,0.927c-3.032-1.771-6.041-3.579-9.024-5.429c-1.238-0.769-1.432-2.001-0.604-3.313
					c2.061-3.268,4.181-6.508,6.321-9.732c0.894-1.344,2.145-1.584,3.376-0.877c2.993,1.713,5.947,3.488,8.887,5.282
					c1.396,0.851,1.659,2.073,0.645,3.604c-1.009,1.526-1.995,3.064-2.994,4.598C807.835,219.771,807.832,219.77,807.828,219.767z"
					/>
			</g>
		</g>
		<g id="iBaRlP_102_">
			<g>
				<path fill-rule="evenodd" clip-rule="evenodd" d="M793.757,211.356c-1.073,1.65-2.126,3.313-3.231,4.947
					c-0.897,1.329-2.096,1.664-3.363,0.927c-3.031-1.769-6.043-3.578-9.021-5.428c-1.244-0.77-1.438-2.002-0.609-3.312
					c2.064-3.271,4.179-6.509,6.325-9.734c0.889-1.343,2.144-1.583,3.378-0.875c2.989,1.712,5.943,3.485,8.883,5.281
					c1.396,0.852,1.658,2.073,0.646,3.604c-1.011,1.527-1.997,3.063-2.996,4.596C793.764,211.359,793.76,211.358,793.757,211.356z"
					/>
			</g>
		</g>
		<g id="iBaRlP_101_">
			<g>
				<path fill-rule="evenodd" clip-rule="evenodd" d="M779.685,202.944c-1.073,1.651-2.127,3.314-3.229,4.947
					c-0.897,1.329-2.098,1.664-3.361,0.928c-3.033-1.768-6.043-3.577-9.025-5.428c-1.242-0.771-1.436-2.003-0.607-3.314
					c2.063-3.268,4.184-6.507,6.32-9.731c0.894-1.344,2.148-1.584,3.378-0.877c2.995,1.713,5.949,3.486,8.888,5.282
					c1.398,0.851,1.658,2.073,0.644,3.603c-1.007,1.529-1.995,3.065-2.994,4.598C779.691,202.948,779.688,202.945,779.685,202.944z"
					/>
			</g>
		</g>
	</g>
</g>
</svg>
