<?xml version="1.0" encoding="utf-8"?>
<!-- Generator: Adobe Illustrator 16.0.0, SVG Export Plug-In . SVG Version: 6.00 Build 0)  -->
<!DOCTYPE svg PUBLIC "-//W3C//DTD SVG 1.1//EN" "http://www.w3.org/Graphics/SVG/1.1/DTD/svg11.dtd">
<svg version="1.1" id="Layer_1" xmlns="http://www.w3.org/2000/svg" xmlns:xlink="http://www.w3.org/1999/xlink" x="0px" y="0px"
	 width="694.667px" height="130px" viewBox="0 0 694.667 130" enable-background="new 0 0 694.667 130" xml:space="preserve">
<path fill="#7B7B7B" d="M688.897,95.475c0,17.101-13.618,30.966-30.418,30.966H35.807c-16.801,0-30.419-13.865-30.419-30.966V35.758
	c0-17.102,13.618-30.967,30.419-30.967h622.673c16.8,0,30.418,13.865,30.418,30.967V95.475z"/>
<linearGradient id="SVGID_1_" gradientUnits="userSpaceOnUse" x1="347.1426" y1="4.0938" x2="347.1426" y2="125.033">
	<stop  offset="0" style="stop-color:#E9EBEB"/>
	<stop  offset="0.0328" style="stop-color:#E6E8E8"/>
	<stop  offset="0.3975" style="stop-color:#CFCFCE"/>
	<stop  offset="0.7302" style="stop-color:#C2C1C1"/>
	<stop  offset="1" style="stop-color:#BDBCBC"/>
</linearGradient>
<path fill="url(#SVGID_1_)" d="M688.897,94.418c0,17.102-13.618,30.966-30.418,30.966H35.807c-16.801,0-30.419-13.864-30.419-30.966
	V34.701c0-17.101,13.618-30.966,30.419-30.966h622.673c16.8,0,30.418,13.865,30.418,30.966V94.418z"/>
<g>
	<path fill="#7B7B7B" d="M145.707,64.45c0,17.101-13.618,30.966-30.418,30.966h-69.24c-16.801,0-30.419-13.865-30.419-30.966v-9.678
		c0-17.102,13.618-30.967,30.419-30.967h69.24c16.8,0,30.418,13.865,30.418,30.967V64.45z"/>
	<linearGradient id="SVGID_2_" gradientUnits="userSpaceOnUse" x1="80.668" y1="22.9609" x2="80.668" y2="94.1528">
		<stop  offset="0" style="stop-color:#E9EBEB"/>
		<stop  offset="0.0328" style="stop-color:#E6E8E8"/>
		<stop  offset="0.3975" style="stop-color:#CFCFCE"/>
		<stop  offset="0.7302" style="stop-color:#C2C1C1"/>
		<stop  offset="1" style="stop-color:#BDBCBC"/>
	</linearGradient>
	<path fill="url(#SVGID_2_)" d="M145.707,63.394c0,17.102-13.618,30.966-30.418,30.966h-69.24
		c-16.801,0-30.419-13.864-30.419-30.966v-9.678c0-17.101,13.618-30.966,30.419-30.966h69.24c16.8,0,30.418,13.865,30.418,30.966
		V63.394z"/>
	<line fill="none" stroke="#BCBCBC" stroke-miterlimit="10" x1="16.475" y1="58.026" x2="144.439" y2="58.026"/>
</g>
<g>
	<line fill="none" stroke="#BCBCBC" stroke-miterlimit="10" x1="72.506" y1="58.026" x2="142.426" y2="58.026"/>
</g>
<g>
	<path fill="#7B7B7B" d="M278.707,64.45c0,17.101-13.618,30.966-30.418,30.966h-69.24c-16.801,0-30.419-13.865-30.419-30.966v-9.678
		c0-17.102,13.618-30.967,30.419-30.967h69.24c16.8,0,30.418,13.865,30.418,30.967V64.45z"/>
	<linearGradient id="SVGID_3_" gradientUnits="userSpaceOnUse" x1="213.668" y1="22.9609" x2="213.668" y2="94.1528">
		<stop  offset="0" style="stop-color:#E9EBEB"/>
		<stop  offset="0.0328" style="stop-color:#E6E8E8"/>
		<stop  offset="0.3975" style="stop-color:#CFCFCE"/>
		<stop  offset="0.7302" style="stop-color:#C2C1C1"/>
		<stop  offset="1" style="stop-color:#BDBCBC"/>
	</linearGradient>
	<path fill="url(#SVGID_3_)" d="M278.707,63.394c0,17.102-13.618,30.966-30.418,30.966h-69.24
		c-16.801,0-30.419-13.864-30.419-30.966v-9.678c0-17.101,13.618-30.966,30.419-30.966h69.24c16.8,0,30.418,13.865,30.418,30.966
		V63.394z"/>
	<line fill="none" stroke="#BCBCBC" stroke-miterlimit="10" x1="149.475" y1="58.026" x2="277.439" y2="58.026"/>
</g>
<g>
	<line fill="none" stroke="#BCBCBC" stroke-miterlimit="10" x1="205.506" y1="58.026" x2="275.426" y2="58.026"/>
</g>
<g>
	<path fill="#7B7B7B" d="M411.707,64.45c0,17.101-13.618,30.966-30.418,30.966h-69.24c-16.801,0-30.419-13.865-30.419-30.966v-9.678
		c0-17.102,13.618-30.967,30.419-30.967h69.24c16.8,0,30.418,13.865,30.418,30.967V64.45z"/>
	<linearGradient id="SVGID_4_" gradientUnits="userSpaceOnUse" x1="346.668" y1="22.9609" x2="346.668" y2="94.1528">
		<stop  offset="0" style="stop-color:#E9EBEB"/>
		<stop  offset="0.0328" style="stop-color:#E6E8E8"/>
		<stop  offset="0.3975" style="stop-color:#CFCFCE"/>
		<stop  offset="0.7302" style="stop-color:#C2C1C1"/>
		<stop  offset="1" style="stop-color:#BDBCBC"/>
	</linearGradient>
	<path fill="url(#SVGID_4_)" d="M411.707,63.394c0,17.102-13.618,30.966-30.418,30.966h-69.24
		c-16.801,0-30.419-13.864-30.419-30.966v-9.678c0-17.101,13.618-30.966,30.419-30.966h69.24c16.8,0,30.418,13.865,30.418,30.966
		V63.394z"/>
	<line fill="none" stroke="#BCBCBC" stroke-miterlimit="10" x1="282.475" y1="58.026" x2="410.439" y2="58.026"/>
</g>
<g>
	<line fill="none" stroke="#BCBCBC" stroke-miterlimit="10" x1="338.506" y1="58.026" x2="408.426" y2="58.026"/>
</g>
<g>
	<path fill="#7B7B7B" d="M544.707,64.45c0,17.101-13.618,30.966-30.418,30.966h-69.24c-16.801,0-30.419-13.865-30.419-30.966v-9.678
		c0-17.102,13.618-30.967,30.419-30.967h69.24c16.8,0,30.418,13.865,30.418,30.967V64.45z"/>
	<linearGradient id="SVGID_5_" gradientUnits="userSpaceOnUse" x1="479.668" y1="22.9609" x2="479.668" y2="94.1528">
		<stop  offset="0" style="stop-color:#E9EBEB"/>
		<stop  offset="0.0328" style="stop-color:#E6E8E8"/>
		<stop  offset="0.3975" style="stop-color:#CFCFCE"/>
		<stop  offset="0.7302" style="stop-color:#C2C1C1"/>
		<stop  offset="1" style="stop-color:#BDBCBC"/>
	</linearGradient>
	<path fill="url(#SVGID_5_)" d="M544.707,63.394c0,17.102-13.618,30.966-30.418,30.966h-69.24
		c-16.801,0-30.419-13.864-30.419-30.966v-9.678c0-17.101,13.618-30.966,30.419-30.966h69.24c16.8,0,30.418,13.865,30.418,30.966
		V63.394z"/>
	<line fill="none" stroke="#BCBCBC" stroke-miterlimit="10" x1="415.475" y1="58.026" x2="543.439" y2="58.026"/>
</g>
<g>
	<path fill="#7B7B7B" d="M677.373,64.45c0,17.101-13.618,30.966-30.418,30.966h-69.24c-16.801,0-30.419-13.865-30.419-30.966v-9.678
		c0-17.102,13.618-30.967,30.419-30.967h69.24c16.8,0,30.418,13.865,30.418,30.967V64.45z"/>
	<linearGradient id="SVGID_6_" gradientUnits="userSpaceOnUse" x1="612.334" y1="22.9609" x2="612.334" y2="94.1528">
		<stop  offset="0" style="stop-color:#E9EBEB"/>
		<stop  offset="0.0328" style="stop-color:#E6E8E8"/>
		<stop  offset="0.3975" style="stop-color:#CFCFCE"/>
		<stop  offset="0.7302" style="stop-color:#C2C1C1"/>
		<stop  offset="1" style="stop-color:#BDBCBC"/>
	</linearGradient>
	<path fill="url(#SVGID_6_)" d="M677.373,63.394c0,17.102-13.618,30.966-30.418,30.966h-69.24
		c-16.801,0-30.419-13.864-30.419-30.966v-9.678c0-17.101,13.618-30.966,30.419-30.966h69.24c16.8,0,30.418,13.865,30.418,30.966
		V63.394z"/>
	<line fill="none" stroke="#BCBCBC" stroke-miterlimit="10" x1="548.141" y1="58.026" x2="676.105" y2="58.026"/>
</g>
<g>
	<line fill="none" stroke="#BCBCBC" stroke-miterlimit="10" x1="471.506" y1="58.026" x2="541.426" y2="58.026"/>
</g>
<g>
	<text transform="matrix(1 0 0 1 51.9141 110.6582)" fill="#7B7B7B" font-family="'MyriadPro-Regular'" font-size="10">DISHWASHER</text>
</g>
<text transform="matrix(1 0 0 1 184.6797 110.6582)" fill="#7B7B7B" font-family="'MyriadPro-Regular'" font-size="10">STOVE/OVEN</text>
<text transform="matrix(1 0 0 1 313.7988 110.6582)" fill="#7B7B7B" font-family="'MyriadPro-Regular'" font-size="10">REFRIGERATOR</text>
<text transform="matrix(1 0 0 1 444.666 110.6582)" fill="#7B7B7B" font-family="'MyriadPro-Regular'" font-size="10">WASHER/DRYER</text>
<text transform="matrix(1 0 0 1 570.793 110.6582)" fill="#7B7B7B" font-family="'MyriadPro-Regular'" font-size="10">AIR CONDITIONING</text>
</svg>
