<?xml version="1.0" encoding="utf-8"?>
<!-- Generator: Adobe Illustrator 16.0.0, SVG Export Plug-In . SVG Version: 6.00 Build 0)  -->
<!DOCTYPE svg PUBLIC "-//W3C//DTD SVG 1.1//EN" "http://www.w3.org/Graphics/SVG/1.1/DTD/svg11.dtd">
<svg version="1.1" id="Layer_1" xmlns="http://www.w3.org/2000/svg" xmlns:xlink="http://www.w3.org/1999/xlink" x="0px" y="0px"
	 width="50.25px" height="45.25px" viewBox="0 0 50.25 45.25" enable-background="new 0 0 50.25 45.25" xml:space="preserve">
<g>
	<polygon fill="#FFFFFF" stroke="#000000" stroke-miterlimit="10" points="47.264,8.017 14.075,27.205 4.141,21.741 37.328,2.553 	
		"/>
	<polygon fill="#FFFFFF" stroke="#000000" stroke-miterlimit="10" points="14.075,27.174 14.106,42.045 4.172,36.581 4.141,21.71 	
		"/>
	<polygon fill="#FFFFFF" stroke="#000000" stroke-miterlimit="10" points="47.264,22.826 14.106,42.055 14.075,27.206 47.264,8.018 
			"/>
	<polygon fill="#FFFFFF" stroke="#000000" stroke-miterlimit="10" points="46.426,22.825 15.316,40.841 15.285,29.348 
		46.426,11.372 	"/>
	<polygon fill="#FFFFFF" stroke="#000000" stroke-miterlimit="10" points="46.426,23.345 15.316,41.362 15.285,37.483 
		46.426,19.508 	"/>
	<polygon fill="#FFFFFF" stroke="#000000" stroke-miterlimit="10" points="47.17,24.09 16.062,42.106 15.316,39.685 46.457,21.709 	
		"/>
	<polygon fill="#FFFFFF" stroke="#000000" stroke-miterlimit="10" points="45.96,14.631 15.876,32.141 15.845,29.969 45.96,12.5 	
		"/>
	<polygon fill="#FFFFFF" stroke="#000000" stroke-miterlimit="10" points="16.345,33.723 15.901,34.009 15.891,33.3 16.345,33.027 	
		"/>
	<polygon fill="#FFFFFF" stroke="#000000" stroke-miterlimit="10" points="17.174,33.278 16.73,33.563 16.721,32.855 17.174,32.582 
			"/>
	<polygon fill="#FFFFFF" stroke="#000000" stroke-miterlimit="10" points="18.003,32.833 17.56,33.119 17.55,32.41 18.003,32.137 	
		"/>
	<polygon fill="#FFFFFF" stroke="#000000" stroke-miterlimit="10" points="18.832,32.388 18.389,32.674 18.379,31.965 
		18.832,31.692 	"/>
	<polygon fill="#FFFFFF" stroke="#000000" stroke-miterlimit="10" points="12.704,29.826 12.709,32.189 11.131,31.321 
		11.126,28.958 	"/>
	<polygon fill="#FFFFFF" stroke="#000000" stroke-miterlimit="10" points="12.704,32.807 12.709,35.169 11.131,34.301 
		11.126,31.938 	"/>
	<polygon fill="#FFFFFF" stroke="#000000" stroke-miterlimit="10" points="12.704,35.787 12.709,38.15 11.131,37.282 11.126,34.919 
			"/>
	<g>
		<polygon fill="#FFFFFF" stroke="#000000" stroke-miterlimit="10" points="9.195,28.157 9.2,35.911 8.947,36.054 3.729,25.404 
			3.964,25.274 		"/>
		<polygon fill="#FFFFFF" stroke="#000000" stroke-miterlimit="10" points="8.931,28.265 8.947,36.064 3.737,33.199 3.721,25.4 		
			"/>
	</g>
	<polygon fill="#FFFFFF" stroke="#000000" stroke-miterlimit="10" points="16.051,42.107 15.562,42.107 15.315,41.3 15.306,39.662 	
		"/>
</g>
</svg>
