<?xml version="1.0" encoding="utf-8"?>
<!-- Generator: Adobe Illustrator 16.0.0, SVG Export Plug-In . SVG Version: 6.00 Build 0)  -->
<!DOCTYPE svg PUBLIC "-//W3C//DTD SVG 1.1//EN" "http://www.w3.org/Graphics/SVG/1.1/DTD/svg11.dtd">
<svg version="1.1" id="Layer_1" xmlns="http://www.w3.org/2000/svg" xmlns:xlink="http://www.w3.org/1999/xlink" x="0px" y="0px"
	 width="401px" height="132px" viewBox="0 0 401 132" enable-background="new 0 0 401 132" xml:space="preserve">
<g>
	<path fill="#7B7B7B" d="M398.008,97.141c0,17.101-13.618,30.966-30.418,30.966H36.145c-16.801,0-30.419-13.865-30.419-30.966
		V37.424c0-17.102,13.618-30.967,30.419-30.967H367.59c16.8,0,30.418,13.865,30.418,30.967V97.141z"/>
	<linearGradient id="SVGID_1_" gradientUnits="userSpaceOnUse" x1="201.8672" y1="5.7598" x2="201.8672" y2="126.699">
		<stop  offset="0" style="stop-color:#E9EBEB"/>
		<stop  offset="0.0328" style="stop-color:#E6E8E8"/>
		<stop  offset="0.3975" style="stop-color:#CFCFCE"/>
		<stop  offset="0.7302" style="stop-color:#C2C1C1"/>
		<stop  offset="1" style="stop-color:#BDBCBC"/>
	</linearGradient>
	<path fill="url(#SVGID_1_)" d="M398.008,96.084c0,17.102-13.618,30.966-30.418,30.966H36.145
		c-16.801,0-30.419-13.864-30.419-30.966V36.367c0-17.101,13.618-30.966,30.419-30.966H367.59c16.8,0,30.418,13.865,30.418,30.966
		V96.084z"/>
</g>
<g>
	<path fill="#7B7B7B" d="M102.213,67.117c0,17.101-13.618,30.966-30.418,30.966H60.6c-16.801,0-30.419-13.865-30.419-30.966v-9.678
		c0-17.102,13.618-30.967,30.419-30.967h11.195c16.8,0,30.418,13.865,30.418,30.967V67.117z"/>
	<linearGradient id="SVGID_2_" gradientUnits="userSpaceOnUse" x1="66.1973" y1="25.6279" x2="66.1973" y2="96.8198">
		<stop  offset="0" style="stop-color:#E9EBEB"/>
		<stop  offset="0.0328" style="stop-color:#E6E8E8"/>
		<stop  offset="0.3975" style="stop-color:#CFCFCE"/>
		<stop  offset="0.7302" style="stop-color:#C2C1C1"/>
		<stop  offset="1" style="stop-color:#BDBCBC"/>
	</linearGradient>
	<path fill="url(#SVGID_2_)" d="M102.213,66.061c0,17.102-13.618,30.966-30.418,30.966H60.6c-16.801,0-30.419-13.864-30.419-30.966
		v-9.678c0-17.101,13.618-30.966,30.419-30.966h11.195c16.8,0,30.418,13.865,30.418,30.966V66.061z"/>
	<line fill="none" stroke="#BCBCBC" stroke-miterlimit="10" x1="31.025" y1="60.693" x2="100.945" y2="60.693"/>
	<path fill="#ABABAB" d="M73.278,91.384c0,0.953-0.759,1.726-1.694,1.726H70.96c-0.937,0-1.695-0.772-1.695-1.726v-0.54
		c0-0.953,0.759-1.726,1.695-1.726h0.624c0.936,0,1.694,0.772,1.694,1.726V91.384z"/>
	<path fill="#ABABAB" d="M67.681,91.384c0,0.953-0.759,1.726-1.695,1.726h-0.624c-0.936,0-1.694-0.772-1.694-1.726v-0.54
		c0-0.953,0.759-1.726,1.694-1.726h0.624c0.937,0,1.695,0.772,1.695,1.726V91.384z"/>
	<path fill="#ABABAB" d="M62.082,91.384c0,0.953-0.759,1.726-1.694,1.726h-0.624c-0.936,0-1.694-0.772-1.694-1.726v-0.54
		c0-0.953,0.759-1.726,1.694-1.726h0.624c0.936,0,1.694,0.772,1.694,1.726V91.384z"/>
</g>
<g>
	<path fill="#7B7B7B" d="M192.772,67.117c0,17.101-13.618,30.966-30.418,30.966h-11.196c-16.8,0-30.418-13.865-30.418-30.966v-9.678
		c0-17.102,13.618-30.967,30.418-30.967h11.196c16.8,0,30.418,13.865,30.418,30.967V67.117z"/>
	<linearGradient id="SVGID_3_" gradientUnits="userSpaceOnUse" x1="156.7559" y1="25.6279" x2="156.7559" y2="96.8198">
		<stop  offset="0" style="stop-color:#E9EBEB"/>
		<stop  offset="0.0328" style="stop-color:#E6E8E8"/>
		<stop  offset="0.3975" style="stop-color:#CFCFCE"/>
		<stop  offset="0.7302" style="stop-color:#C2C1C1"/>
		<stop  offset="1" style="stop-color:#BDBCBC"/>
	</linearGradient>
	<path fill="url(#SVGID_3_)" d="M192.772,66.061c0,17.102-13.618,30.966-30.418,30.966h-11.196c-16.8,0-30.418-13.864-30.418-30.966
		v-9.678c0-17.101,13.618-30.966,30.418-30.966h11.196c16.8,0,30.418,13.865,30.418,30.966V66.061z"/>
	<line fill="none" stroke="#BCBCBC" stroke-miterlimit="10" x1="121.586" y1="60.693" x2="191.506" y2="60.693"/>
	<path fill="#ABABAB" d="M163.838,91.384c0,0.953-0.759,1.726-1.694,1.726h-0.624c-0.936,0-1.695-0.772-1.695-1.726v-0.54
		c0-0.953,0.76-1.726,1.695-1.726h0.624c0.936,0,1.694,0.772,1.694,1.726V91.384z"/>
	<path fill="#ABABAB" d="M158.24,91.384c0,0.953-0.759,1.726-1.695,1.726h-0.623c-0.936,0-1.695-0.772-1.695-1.726v-0.54
		c0-0.953,0.76-1.726,1.695-1.726h0.623c0.937,0,1.695,0.772,1.695,1.726V91.384z"/>
	<path fill="#ABABAB" d="M152.643,91.384c0,0.953-0.76,1.726-1.695,1.726h-0.623c-0.937,0-1.695-0.772-1.695-1.726v-0.54
		c0-0.953,0.759-1.726,1.695-1.726h0.623c0.936,0,1.695,0.772,1.695,1.726V91.384z"/>
</g>
<g>
	<path fill="#7B7B7B" d="M284.178,67.117c0,17.101-13.617,30.966-30.418,30.966h-11.195c-16.8,0-30.418-13.865-30.418-30.966v-9.678
		c0-17.102,13.618-30.967,30.418-30.967h11.195c16.801,0,30.418,13.865,30.418,30.967V67.117z"/>
	<linearGradient id="SVGID_4_" gradientUnits="userSpaceOnUse" x1="248.1621" y1="25.6279" x2="248.1621" y2="96.8198">
		<stop  offset="0" style="stop-color:#E9EBEB"/>
		<stop  offset="0.0328" style="stop-color:#E6E8E8"/>
		<stop  offset="0.3975" style="stop-color:#CFCFCE"/>
		<stop  offset="0.7302" style="stop-color:#C2C1C1"/>
		<stop  offset="1" style="stop-color:#BDBCBC"/>
	</linearGradient>
	<path fill="url(#SVGID_4_)" d="M284.178,66.061c0,17.102-13.617,30.966-30.418,30.966h-11.195c-16.8,0-30.418-13.864-30.418-30.966
		v-9.678c0-17.101,13.618-30.966,30.418-30.966h11.195c16.801,0,30.418,13.865,30.418,30.966V66.061z"/>
	<line fill="none" stroke="#BCBCBC" stroke-miterlimit="10" x1="212.991" y1="60.693" x2="282.911" y2="60.693"/>
	<path fill="#ABABAB" d="M255.244,91.384c0,0.953-0.76,1.726-1.695,1.726h-0.624c-0.936,0-1.694-0.772-1.694-1.726v-0.54
		c0-0.953,0.759-1.726,1.694-1.726h0.624c0.936,0,1.695,0.772,1.695,1.726V91.384z"/>
	<path fill="#ABABAB" d="M249.646,91.384c0,0.953-0.759,1.726-1.694,1.726h-0.624c-0.936,0-1.694-0.772-1.694-1.726v-0.54
		c0-0.953,0.759-1.726,1.694-1.726h0.624c0.936,0,1.694,0.772,1.694,1.726V91.384z"/>
	<path fill="#ABABAB" d="M244.048,91.384c0,0.953-0.759,1.726-1.694,1.726h-0.624c-0.936,0-1.695-0.772-1.695-1.726v-0.54
		c0-0.953,0.76-1.726,1.695-1.726h0.624c0.936,0,1.694,0.772,1.694,1.726V91.384z"/>
</g>
<g>
	<path fill="#7B7B7B" d="M373.893,67.117c0,17.101-13.618,30.966-30.418,30.966h-11.196c-16.8,0-30.418-13.865-30.418-30.966v-9.678
		c0-17.102,13.618-30.967,30.418-30.967h11.196c16.8,0,30.418,13.865,30.418,30.967V67.117z"/>
	<linearGradient id="SVGID_5_" gradientUnits="userSpaceOnUse" x1="337.877" y1="25.6279" x2="337.877" y2="96.8198">
		<stop  offset="0" style="stop-color:#E9EBEB"/>
		<stop  offset="0.0328" style="stop-color:#E6E8E8"/>
		<stop  offset="0.3975" style="stop-color:#CFCFCE"/>
		<stop  offset="0.7302" style="stop-color:#C2C1C1"/>
		<stop  offset="1" style="stop-color:#BDBCBC"/>
	</linearGradient>
	<path fill="url(#SVGID_5_)" d="M373.893,66.061c0,17.102-13.618,30.966-30.418,30.966h-11.196c-16.8,0-30.418-13.864-30.418-30.966
		v-9.678c0-17.101,13.618-30.966,30.418-30.966h11.196c16.8,0,30.418,13.865,30.418,30.966V66.061z"/>
	<line fill="none" stroke="#BCBCBC" stroke-miterlimit="10" x1="302.705" y1="60.693" x2="372.625" y2="60.693"/>
	<path fill="#ABABAB" d="M344.957,91.384c0,0.953-0.759,1.726-1.694,1.726h-0.624c-0.936,0-1.694-0.772-1.694-1.726v-0.54
		c0-0.953,0.759-1.726,1.694-1.726h0.624c0.936,0,1.694,0.772,1.694,1.726V91.384z"/>
	<path fill="#ABABAB" d="M339.359,91.384c0,0.953-0.759,1.726-1.694,1.726h-0.624c-0.936,0-1.695-0.772-1.695-1.726v-0.54
		c0-0.953,0.76-1.726,1.695-1.726h0.624c0.936,0,1.694,0.772,1.694,1.726V91.384z"/>
	<path fill="#ABABAB" d="M333.762,91.384c0,0.953-0.759,1.726-1.694,1.726h-0.624c-0.936,0-1.695-0.772-1.695-1.726v-0.54
		c0-0.953,0.76-1.726,1.695-1.726h0.624c0.936,0,1.694,0.772,1.694,1.726V91.384z"/>
</g>
<g>
	<text transform="matrix(1 0 0 1 36.9209 113.3252)" fill="#7B7B7B" font-family="'MyriadPro-Regular'" font-size="10">DISHWASHER</text>
</g>
<text transform="matrix(1 0 0 1 128.6553 113.3252)" fill="#7B7B7B" font-family="'MyriadPro-Regular'" font-size="10">STOVE/OVEN</text>
<text transform="matrix(1 0 0 1 217.1367 113.3252)" fill="#7B7B7B" font-family="'MyriadPro-Regular'" font-size="10">REFRIGERATOR</text>
<text transform="matrix(1 0 0 1 304.5742 113.3252)" fill="#7B7B7B" font-family="'MyriadPro-Regular'" font-size="10">WASHER/DRYER</text>
</svg>
