<?xml version="1.0" encoding="utf-8"?>
<!-- Generator: Adobe Illustrator 16.0.0, SVG Export Plug-In . SVG Version: 6.00 Build 0)  -->
<!DOCTYPE svg PUBLIC "-//W3C//DTD SVG 1.1//EN" "http://www.w3.org/Graphics/SVG/1.1/DTD/svg11.dtd">
<svg version="1.1" id="Layer_1" xmlns="http://www.w3.org/2000/svg" xmlns:xlink="http://www.w3.org/1999/xlink" x="0px" y="0px"
	 width="90.667px" height="107.333px" viewBox="0 0 90.667 107.333" enable-background="new 0 0 90.667 107.333"
	 xml:space="preserve">
<g>
	<g>
		<polygon fill="#FFFFFF" stroke="#000000" stroke-miterlimit="10" points="84.723,70.974 56.744,87.089 56.744,35.581 
			84.723,19.465 		"/>
		<g>
			<polygon fill="#FFFFFF" stroke="#000000" stroke-miterlimit="10" points="56.824,34.121 36.193,22.52 64.09,6.3 84.723,17.9 			
				"/>
			<polygon fill="#FFFFFF" stroke="#000000" stroke-miterlimit="10" points="56.83,35.688 56.832,34.119 84.723,17.902 
				84.723,19.471 			"/>
		</g>
		<g>
			<path fill="#FFFFFF" stroke="#000000" stroke-miterlimit="10" d="M58.357,42h-0.06c-0.429,0-0.778-0.349-0.778-0.778v-4.607
				c0-0.366,0.284-0.941,0.666-1.165l6.684-3.869h0.061c0.428,0,0.778,0.349,0.778,0.778v4.572c0,0.354-0.249,0.91-0.649,1.19
				L58.357,42z M64.982,32.031l-6.573,3.803c-0.229,0.134-0.444,0.554-0.444,0.78v4.607c0,0.165,0.121,0.302,0.28,0.327l6.573-3.804
				c0.245-0.173,0.442-0.577,0.442-0.814v-4.572C65.261,32.193,65.141,32.056,64.982,32.031z"/>
		</g>
		<g>
			<path fill="#FFFFFF" stroke="#000000" stroke-miterlimit="10" d="M77.989,74.239h-0.052c-0.371,0-0.673-0.301-0.673-0.672v-3.979
				c0-0.316,0.247-0.813,0.574-1.006l5.775-3.342h0.051c0.372,0,0.673,0.301,0.673,0.672v3.949c0,0.306-0.216,0.786-0.562,1.028
				L77.989,74.239z M83.713,65.628l-5.68,3.286c-0.195,0.115-0.383,0.478-0.383,0.673v3.979c0,0.143,0.104,0.262,0.241,0.283
				l5.678-3.286c0.213-0.15,0.383-0.498,0.383-0.704v-3.949C83.952,65.769,83.848,65.651,83.713,65.628z"/>
		</g>
		<line fill="#FFFFFF" stroke="#000000" stroke-miterlimit="10" x1="58.298" y1="40.55" x2="63.748" y2="37.394"/>
		<line fill="#FFFFFF" stroke="#000000" stroke-miterlimit="10" x1="56.944" y1="44.535" x2="84.723" y2="28.247"/>
		<polygon fill="#FFFFFF" stroke="#000000" stroke-miterlimit="10" points="73.641,30.85 70.889,32.522 70.889,28.283 
			73.641,26.611 		"/>
		<path fill="#FFFFFF" stroke="#000000" stroke-miterlimit="10" d="M72.389,29.315c-0.002,0-0.005-0.001-0.006-0.001
			c-0.003,0-0.005,0-0.006,0l-0.024-0.001v0.003c-0.454-0.007-0.846,0.473-0.886,1.095c-0.038,0.622,0.291,1.149,0.743,1.198v0.004
			l0.671,0.064l0.146-2.3L72.389,29.315z"/>
		
			<ellipse transform="matrix(0.998 0.063 -0.063 0.998 2.0692 -4.5378)" fill="#FFFFFF" stroke="#000000" stroke-miterlimit="10" cx="72.962" cy="30.529" rx="0.844" ry="1.153"/>
		<g>
			<path fill="#FFFFFF" stroke="#000000" stroke-miterlimit="10" d="M82.062,58.199c-4.917,8.766-13.236,13.429-18.601,10.422
				c-5.361-3.011-5.722-12.543-0.808-21.311c4.911-8.762,13.235-13.425,18.599-10.418C86.613,39.897,86.979,49.433,82.062,58.199z"
				/>
			<path fill="#FFFFFF" stroke="#000000" stroke-miterlimit="10" d="M82.598,58.384c-4.765,8.493-12.757,13.05-17.868,10.185
				c-5.109-2.87-5.39-12.067-0.628-20.561c4.758-8.488,12.752-13.045,17.865-10.18C87.074,40.691,87.361,49.891,82.598,58.384z"/>
			<path fill="#FFFFFF" stroke="#000000" stroke-miterlimit="10" d="M80.762,57.884c-3.772,6.725-10.099,10.334-14.142,8.067
				c-4.044-2.27-4.263-9.552-0.491-16.277c3.765-6.721,10.094-10.33,14.138-8.063C84.308,43.875,84.533,51.158,80.762,57.884z"/>
			<path fill="#FFFFFF" stroke="#000000" stroke-miterlimit="10" d="M72.565,52.889c-2.909,4.814-6.619,7.892-8.299,6.879
				c-1.675-1.015-0.525-6.18,2.382-10.995c2.905-4.811,6.467-7.442,8.143-6.429C76.468,43.356,75.475,48.076,72.565,52.889z"/>
			<path fill="#FFFFFF" stroke="#000000" stroke-miterlimit="10" d="M80.762,57.884c-3.772,6.725-10.099,10.334-14.142,8.067
				l8.862-24.707c1.734-0.498,3.395-0.412,4.784,0.366C84.308,43.875,84.533,51.158,80.762,57.884z"/>
		</g>
	</g>
	<g>
		<polygon fill="#FFFFFF" stroke="#000000" stroke-miterlimit="10" points="28.797,103.219 8.18,91.589 8.18,40.081 28.797,51.711 
					"/>
		<polygon fill="#FFFFFF" stroke="#000000" stroke-miterlimit="10" points="56.757,87.186 28.78,103.302 28.78,51.794 
			56.757,35.678 		"/>
		<g>
			<polygon fill="#FFFFFF" stroke="#000000" stroke-miterlimit="10" points="28.86,50.333 8.229,38.734 36.126,22.514 
				56.757,34.113 			"/>
			<polygon fill="#FFFFFF" stroke="#000000" stroke-miterlimit="10" points="28.866,51.901 28.869,50.332 56.758,34.114 
				56.757,35.684 			"/>
			<polygon fill="#FFFFFF" stroke="#000000" stroke-miterlimit="10" points="28.86,51.887 8.174,40.22 8.177,38.7 28.863,50.367 			
				"/>
		</g>
		<g>
			<path fill="#FFFFFF" stroke="#000000" stroke-miterlimit="10" d="M30.395,58.212h-0.061c-0.429,0-0.778-0.349-0.778-0.778v-4.607
				c0-0.366,0.284-0.941,0.664-1.166l6.687-3.869h0.06c0.429,0,0.776,0.349,0.776,0.778v4.572c0,0.354-0.248,0.91-0.648,1.19
				L30.395,58.212z M37.019,48.244l-6.573,3.804c-0.229,0.133-0.442,0.553-0.442,0.78v4.607c0,0.166,0.12,0.303,0.278,0.328
				l6.573-3.804c0.245-0.174,0.442-0.577,0.442-0.815v-4.572C37.297,48.406,37.178,48.269,37.019,48.244z"/>
		</g>
		<g>
			<path fill="#FFFFFF" stroke="#000000" stroke-miterlimit="10" d="M50.023,90.452h-0.051c-0.369,0-0.672-0.301-0.672-0.673V85.8
				c0-0.315,0.246-0.812,0.574-1.006l5.775-3.342h0.051c0.372,0,0.672,0.301,0.672,0.672v3.949c0,0.305-0.215,0.786-0.561,1.028
				L50.023,90.452z M55.747,81.842l-5.678,3.285c-0.197,0.116-0.383,0.479-0.383,0.673v3.979c0,0.143,0.104,0.262,0.241,0.284
				l5.678-3.285c0.213-0.15,0.383-0.499,0.383-0.704v-3.949C55.988,81.982,55.885,81.863,55.747,81.842z"/>
		</g>
		<line fill="#FFFFFF" stroke="#000000" stroke-miterlimit="10" x1="30.334" y1="56.763" x2="35.783" y2="53.607"/>
		<line fill="#FFFFFF" stroke="#000000" stroke-miterlimit="10" x1="28.98" y1="60.747" x2="56.757" y2="44.459"/>
		<polygon fill="#FFFFFF" stroke="#000000" stroke-miterlimit="10" points="45.676,47.063 42.924,48.736 42.924,44.497 
			45.676,42.824 		"/>
		<path fill="#FFFFFF" stroke="#000000" stroke-miterlimit="10" d="M44.423,45.528c0,0-0.003-0.001-0.006-0.001c0,0-0.003,0-0.005,0
			l-0.023-0.001v0.003c-0.454-0.006-0.847,0.474-0.885,1.096c-0.039,0.622,0.291,1.148,0.74,1.198v0.004l0.673,0.064l0.146-2.3
			L44.423,45.528z"/>
		
			<ellipse transform="matrix(0.998 0.0627 -0.0627 0.998 3.0193 -2.7295)" fill="#FFFFFF" stroke="#000000" stroke-miterlimit="10" cx="44.998" cy="46.741" rx="0.845" ry="1.153"/>
		<g>
			<path fill="#FFFFFF" stroke="#000000" stroke-miterlimit="10" d="M54.098,74.413c-4.916,8.766-13.237,13.428-18.6,10.422
				c-5.362-3.011-5.724-12.544-0.809-21.311c4.911-8.761,13.233-13.424,18.599-10.418C58.647,56.111,59.015,65.646,54.098,74.413z"
				/>
			<path fill="#FFFFFF" stroke="#000000" stroke-miterlimit="10" d="M54.634,74.597c-4.765,8.493-12.757,13.05-17.868,10.185
				c-5.109-2.87-5.389-12.068-0.627-20.562c4.757-8.488,12.751-13.045,17.863-10.18C59.11,56.905,59.397,66.104,54.634,74.597z"/>
			<path fill="#FFFFFF" stroke="#000000" stroke-miterlimit="10" d="M52.797,74.096c-3.771,6.725-10.098,10.334-14.141,8.067
				c-4.044-2.271-4.262-9.552-0.491-16.277c3.765-6.72,10.094-10.33,14.14-8.063C56.344,60.088,56.57,67.372,52.797,74.096z"/>
			<path fill="#FFFFFF" stroke="#000000" stroke-miterlimit="10" d="M44.604,69.102c-2.911,4.815-6.622,7.893-8.301,6.879
				c-1.676-1.015-0.525-6.18,2.383-10.995c2.902-4.81,6.466-7.44,8.143-6.428C48.504,59.569,47.509,64.289,44.604,69.102z"/>
			<path fill="#FFFFFF" stroke="#000000" stroke-miterlimit="10" d="M52.797,74.096c-3.771,6.725-10.098,10.334-14.141,8.067
				l8.863-24.708c1.733-0.497,3.393-0.412,4.785,0.367C56.344,60.088,56.57,67.372,52.797,74.096z"/>
		</g>
	</g>
</g>
</svg>
