<?xml version="1.0" encoding="utf-8"?>
<!-- Generator: Adobe Illustrator 16.0.0, SVG Export Plug-In . SVG Version: 6.00 Build 0)  -->
<!DOCTYPE svg PUBLIC "-//W3C//DTD SVG 1.1//EN" "http://www.w3.org/Graphics/SVG/1.1/DTD/svg11.dtd">
<svg version="1.1" id="Layer_1" xmlns="http://www.w3.org/2000/svg" xmlns:xlink="http://www.w3.org/1999/xlink" x="0px" y="0px"
	 width="66px" height="116px" viewBox="0 0 66 116" enable-background="new 0 0 66 116" xml:space="preserve">
<g>
	<g>
		<g>
			<path d="M33.992,98.842c-4.129-1.864-6.275-3.655-8.46-5.624c-1.786-1.541-3.486-3.013-6.765-4.494
				c-0.678-0.306-1.264-1.274-1.359-2.249c-3.312-40.187-2.021-67.688-2.021-67.688c0.185-0.553,3.327-0.615,3.771-0.536l0.084,0.01
				c2.18,0.312,7.99,1.373,14.801,4.454c4.71,2.127,9.923,5.269,14.683,8.844c0.096,0.072,0.158,0.118,0.188,0.142
				c0.458,0.332,0.833,0.951,1.018,1.676l0.017,0.079c2.999,15.307,4.007,30.686,0.732,68.041c-0.089,0.941-5.289,1.337-6.004,1.014
				c-3.277-1.484-0.337-1.521-2.138-1.593C40.174,100.859,38.038,100.672,33.992,98.842z"/>
		</g>
	</g>
	<g>
		<g>
			<path fill="#FFFFFF" d="M30.622,98.005c-4.11-1.86-6.242-3.668-8.271-5.498c-1.879-1.623-3.653-3.131-6.952-4.623
				c-0.407-0.184-0.712-0.743-0.761-1.257c-3.299-40.029-2.285-54.483,0.709-67.054c0.101-0.303,0.305-0.494,0.559-0.448
				c0.254,0.04,6.852,0.85,14.768,4.426c7.917,3.582,14.463,8.722,14.767,8.929c0.254,0.185,0.458,0.557,0.559,0.951
				c2.993,15.28,3.959,30.63,0.711,67.699c-0.05,0.543-0.355,0.754-0.761,0.569c-3.301-1.495-5.075-1.59-6.953-1.666
				C36.864,99.983,34.734,99.862,30.622,98.005z"/>
			<path d="M30.622,98.842c-4.129-1.864-6.275-3.655-8.46-5.624c-1.786-1.541-3.486-3.013-6.764-4.494
				c-0.679-0.306-1.265-1.274-1.36-2.249c-3.312-40.187-2.298-54.689,0.729-67.402l0.019-0.065c0.184-0.553,0.56-0.836,1.002-0.757
				l0.084,0.01c2.18,0.312,7.99,1.373,14.801,4.454c4.71,2.127,9.924,5.269,14.683,8.844c0.096,0.072,0.158,0.118,0.188,0.142
				c0.457,0.332,0.832,0.951,1.017,1.676l0.017,0.079c3,15.307,4.007,30.686,0.732,68.041c-0.089,0.941-0.646,1.366-1.361,1.044
				c-3.277-1.485-4.979-1.551-6.78-1.623C36.804,100.859,34.669,100.672,30.622,98.842z M15.918,20.12
				c-2.975,12.504-3.962,26.859-0.681,66.678c0.006,0.062,0.057,0.204,0.161,0.25c3.453,1.561,5.32,3.174,7.124,4.734
				c2.102,1.896,4.148,3.596,8.1,5.384c4.185,1.893,6.314,1.938,8.195,1.984c1.811,0.073,3.678,0.152,7.131,1.713
				c0.134,0.059,0.151-0.017,0.16-0.109c3.244-37.036,2.267-52.237-0.68-67.293c-0.035-0.119-0.083-0.198-0.105-0.211
				c-0.014-0.01-0.093-0.066-0.225-0.168c-4.675-3.513-9.8-6.602-14.426-8.688c-6.879-3.115-12.866-4.139-14.537-4.376
				c-0.058-0.013-0.096-0.017-0.112-0.02C16.001,19.994,15.951,20.027,15.918,20.12z"/>
		</g>
		<g>
			<path fill="#BCBEC0" d="M47.774,77.325C43.17,74.926,38.412,66.997,34,56c-3.822-9.538-7.718-16.698-12.626-23.215
				c-4.34-5.758-5.943-10.091-6.039-10.348l0.242-1.106c0.023,0.062,1.99,5.209,6.184,10.776c5,6.634,8.96,13.917,12.842,23.597
				c4.285,10.693,8.824,18.346,13.209,20.634L47.774,77.325z"/>
		</g>
		<g>
			<path fill="#010101" d="M21.285,38.505c0.049,0.23,0.153,0.421,0.305,0.56l0.507,0.23v1.755l0.305,0.142v-1.759l0.56,0.251
				c0.151,0,0.303-0.072,0.303-0.283L21.285,38.505L21.285,38.505z M35.949,47.315c0.153,0,0.255-0.165,0.255-0.307l-1.371-0.622
				v-1.758l-0.303-0.136v2.18L35.949,47.315z M30.368,43.035l1.065,0.48c0.151,0,0.305-0.072,0.355-0.26l-1.727-0.78v1.264
				l1.423,0.646v0.422l-1.117-0.508c-0.15,0-0.306,0.073-0.406,0.237l1.776,0.804v-1.334l-1.421-0.642L30.368,43.035z M26.005,41.06
				l1.167,0.53c0.151-0.004,0.303-0.076,0.303-0.287L25.65,40.48C25.7,40.711,25.852,40.99,26.005,41.06 M26.005,41.902l1.167,0.53
				c0.151-0.004,0.303-0.072,0.303-0.286l-1.824-0.823C25.7,41.557,25.852,41.833,26.005,41.902 M26.005,42.817l1.167,0.527
				c0.151,0,0.303-0.073,0.303-0.283l-1.824-0.827C25.7,42.469,25.852,42.68,26.005,42.817"/>
			<g>
				<path fill="#010101" d="M38.437,47.104v1.333l0.305,0.142v-0.843l1.116,0.501v0.843l0.306,0.142v-1.337L38.437,47.104z
					 M38.741,46.821l1.167,0.526c0.153,0,0.305-0.075,0.305-0.283l-1.827-0.829C38.437,46.473,38.537,46.729,38.741,46.821"/>
			</g>
		</g>
	</g>
</g>
</svg>
