<?xml version="1.0" encoding="utf-8"?>
<!-- Generator: Adobe Illustrator 16.0.0, SVG Export Plug-In . SVG Version: 6.00 Build 0)  -->
<!DOCTYPE svg PUBLIC "-//W3C//DTD SVG 1.1//EN" "http://www.w3.org/Graphics/SVG/1.1/DTD/svg11.dtd">
<svg version="1.1" id="Layer_1" xmlns="http://www.w3.org/2000/svg" xmlns:xlink="http://www.w3.org/1999/xlink" x="0px" y="0px"
	 width="74px" height="180.667px" viewBox="0 0 74 180.667" enable-background="new 0 0 74 180.667" xml:space="preserve">
<g>
	<g>
		<g>
			<polygon fill="#FFFFFF" stroke="#000000" stroke-miterlimit="10" points="67.295,156.917 36.291,175.117 36.291,126.667 
				67.295,108.468 			"/>
			<polygon fill="#FFFFFF" stroke="#000000" stroke-miterlimit="10" points="67.307,115.82 36.248,134.333 36.248,126.044 
				67.307,107.531 			"/>
			<polygon fill="#FFFFFF" stroke="#000000" stroke-miterlimit="10" points="64.925,153.404 39.753,168.472 39.753,134.568 
				64.925,119.669 			"/>
			<polygon fill="#FFFFFF" stroke="#000000" stroke-miterlimit="10" points="67.307,118.233 36.248,136.748 36.248,134.305 
				67.307,115.791 			"/>
			<polygon fill="#FFFFFF" stroke="#000000" stroke-miterlimit="10" points="63.128,145.184 42.064,157.855 42.064,137.136 
				63.128,124.636 			"/>
			<polygon fill="#FFFFFF" stroke="#000000" stroke-miterlimit="10" points="36.334,125.035 4.506,106.932 35.538,88.71 
				67.365,106.813 			"/>
			<polygon fill="#FFFFFF" stroke="#000000" stroke-miterlimit="10" points="36.342,126.94 36.344,125.035 67.377,106.813 
				67.373,108.718 			"/>
			<polygon fill="#FFFFFF" stroke="#000000" stroke-miterlimit="10" points="35.671,123.087 13.816,110.742 42.455,93.854 
				64.245,106.236 			"/>
			<g>
				<ellipse fill="#FFFFFF" stroke="#000000" stroke-miterlimit="10" cx="55.021" cy="106.333" rx="5.072" ry="3.146"/>
				<ellipse fill="#FFFFFF" stroke="#000000" stroke-miterlimit="10" cx="42.05" cy="101.452" rx="5.073" ry="3.018"/>
				<ellipse fill="#FFFFFF" stroke="#000000" stroke-miterlimit="10" cx="24.521" cy="109.8" rx="5.009" ry="2.889"/>
				<ellipse fill="#FFFFFF" stroke="#000000" stroke-miterlimit="10" cx="36.336" cy="114.809" rx="7.834" ry="4.431"/>
				<ellipse fill="#FFFFFF" stroke="#000000" stroke-miterlimit="10" cx="42.115" cy="101.581" rx="7.833" ry="4.431"/>
			</g>
			<g>
				<path fill="#FFFFFF" stroke="#000000" stroke-miterlimit="10" d="M41.166,128.605l0.475-1.479l-1.52-0.855l0,0
					c-0.211-0.109-0.441-0.172-0.684-0.172c-0.97,0-1.754,0.979-1.754,2.184c0,0.861,0.403,1.6,0.986,1.954l-0.006,0.015l1.67,0.941
					l0.527-1.646C41.021,129.273,41.125,128.953,41.166,128.605z"/>
				<ellipse fill="#FFFFFF" stroke="#000000" stroke-miterlimit="10" cx="41.064" cy="129.204" rx="1.754" ry="2.183"/>
			</g>
			<g>
				<path fill="#FFFFFF" stroke="#000000" stroke-miterlimit="10" d="M45.727,125.973l0.475-1.478l-1.521-0.856l0,0
					c-0.209-0.111-0.439-0.173-0.684-0.173c-0.969,0-1.754,0.979-1.754,2.185c0,0.861,0.404,1.601,0.986,1.955l-0.004,0.015
					l1.67,0.942l0.527-1.647C45.58,126.641,45.684,126.32,45.727,125.973z"/>
				<ellipse fill="#FFFFFF" stroke="#000000" stroke-miterlimit="10" cx="45.623" cy="126.571" rx="1.755" ry="2.183"/>
			</g>
			<g>
				<path fill="#FFFFFF" stroke="#000000" stroke-miterlimit="10" d="M60.365,117.175l0.476-1.479l-1.521-0.855l0,0
					c-0.211-0.111-0.441-0.172-0.684-0.172c-0.97,0-1.755,0.978-1.755,2.184c0,0.861,0.404,1.602,0.987,1.955l-0.005,0.016
					l1.67,0.941l0.528-1.646C60.221,117.843,60.324,117.523,60.365,117.175z"/>
				<ellipse fill="#FFFFFF" stroke="#000000" stroke-miterlimit="10" cx="60.264" cy="117.773" rx="1.754" ry="2.184"/>
			</g>
			<g>
				<path fill="#FFFFFF" stroke="#000000" stroke-miterlimit="10" d="M64.926,114.542l0.475-1.479l-1.521-0.855l0,0
					c-0.21-0.11-0.44-0.172-0.685-0.172c-0.969,0-1.754,0.979-1.754,2.184c0,0.861,0.404,1.6,0.988,1.955l-0.007,0.014l1.67,0.941
					l0.529-1.646C64.779,115.21,64.883,114.89,64.926,114.542z"/>
				<ellipse fill="#FFFFFF" stroke="#000000" stroke-miterlimit="10" cx="64.823" cy="115.141" rx="1.755" ry="2.183"/>
			</g>
			<polygon fill="#FFFFFF" stroke="#000000" stroke-miterlimit="10" points="67.307,148.884 36.248,167.398 36.248,164.957 
				67.307,146.442 			"/>
			<polygon fill="#FFFFFF" stroke="#000000" stroke-miterlimit="10" points="63.105,145.27 42.107,157.855 42.043,140.475 
				48.594,136.729 			"/>
			<polygon fill="#FFFFFF" stroke="#000000" stroke-miterlimit="10" points="63.128,145.184 42.064,157.855 63.128,124.636 			"/>
			<polygon fill="#FFFFFF" stroke="#000000" stroke-miterlimit="10" points="64.117,106.162 35.671,123.199 42.605,93.917 			"/>
		</g>
	</g>
	<g>
		<g>
			<polygon fill="#FFFFFF" stroke="#000000" stroke-miterlimit="10" points="59.814,57.673 28.316,75.456 4.774,61.568 
				36.275,43.786 			"/>
			<polygon fill="#FFFFFF" stroke="#000000" stroke-miterlimit="10" points="70.314,67.834 38.816,85.617 28.314,75.456 
				59.814,57.673 			"/>
			<polygon fill="#FFFFFF" stroke="#000000" stroke-miterlimit="10" points="70.314,71.56 38.816,89.343 38.814,85.617 
				70.314,67.834 			"/>
			<polygon fill="#FFFFFF" stroke="#000000" stroke-miterlimit="10" points="28.316,75.456 38.816,85.786 38.816,89.343 
				4.774,69.189 4.774,61.568 			"/>
		</g>
		<g>
			<polygon fill="#FFFFFF" stroke="#000000" stroke-miterlimit="10" points="27.58,18.959 17.049,25.252 17.049,9.07 27.58,2.777 
							"/>
			<polygon fill="#FFFFFF" stroke="#000000" stroke-miterlimit="10" points="21.801,52.607 18.975,54.405 18.975,12.923 
				21.801,12.923 			"/>
			<polygon fill="#FFFFFF" stroke="#000000" stroke-miterlimit="10" points="28.992,48.369 21.801,52.543 21.801,12.923 
				28.992,8.685 			"/>
			<polygon fill="#FFFFFF" stroke="#000000" stroke-miterlimit="10" points="21.779,12.944 18.976,12.902 26.211,8.6 28.994,8.664 
							"/>
			<polygon fill="#FFFFFF" stroke="#000000" stroke-miterlimit="10" points="38.753,57.744 31.625,61.533 31.625,59.028 
				38.775,55.325 			"/>
			<polygon fill="#FFFFFF" stroke="#000000" stroke-miterlimit="10" points="31.625,61.468 18.911,54.276 21.865,52.222 
				31.625,58.964 			"/>
			<polygon fill="#FFFFFF" stroke="#000000" stroke-miterlimit="10" points="38.785,55.304 31.701,59.2 21.812,52.265 
				28.972,48.348 			"/>
		</g>
	</g>
</g>
</svg>
