<?xml version="1.0" encoding="utf-8"?>
<!-- Generator: Adobe Illustrator 16.0.0, SVG Export Plug-In . SVG Version: 6.00 Build 0)  -->
<!DOCTYPE svg PUBLIC "-//W3C//DTD SVG 1.1//EN" "http://www.w3.org/Graphics/SVG/1.1/DTD/svg11.dtd">
<svg version="1.1" xmlns="http://www.w3.org/2000/svg" xmlns:xlink="http://www.w3.org/1999/xlink" x="0px" y="0px" width="236.5px"
	 height="130px" viewBox="0 0 236.5 130" enable-background="new 0 0 236.5 130" xml:space="preserve">
<g id="Layer_1">
</g>
<g id="Layer_2">
	<g>
		<path fill="#7A7B7B" d="M233.841,84.146c0,19.021-15.147,34.442-33.833,34.442H36.04c-18.687,0-33.834-15.422-33.834-34.442
			V48.874c0-19.022,15.147-34.444,33.834-34.444h163.968c18.686,0,33.833,15.422,33.833,34.444V84.146z"/>
		<linearGradient id="SVGID_1_" gradientUnits="userSpaceOnUse" x1="118.0234" y1="13.563" x2="118.0234" y2="117.1125">
			<stop  offset="0" style="stop-color:#E9EAEA"/>
			<stop  offset="0.0212" style="stop-color:#E7E8E8"/>
			<stop  offset="0.3902" style="stop-color:#D0CFCF"/>
			<stop  offset="0.727" style="stop-color:#C1C0C0"/>
			<stop  offset="1" style="stop-color:#BCBBBB"/>
		</linearGradient>
		<path fill="url(#SVGID_1_)" d="M233.841,82.97c0,19.021-15.147,34.442-33.833,34.442H36.04c-18.687,0-33.834-15.421-33.834-34.442
			V47.698c0-19.021,15.147-34.442,33.834-34.442h163.968c18.686,0,33.833,15.422,33.833,34.442V82.97z"/>
	</g>
	<g>
		<path fill="#7A7B7B" d="M107.23,71.893c0,19.021-15.146,34.442-33.833,34.442H60.945c-18.686,0-33.833-15.422-33.833-34.442
			V61.128c0-19.021,15.147-34.443,33.833-34.443h12.452c18.688,0,33.833,15.422,33.833,34.443V71.893z"/>
		<linearGradient id="SVGID_2_" gradientUnits="userSpaceOnUse" x1="67.1719" y1="25.7456" x2="67.1719" y2="104.9302">
			<stop  offset="0" style="stop-color:#E9EAEA"/>
			<stop  offset="0.0212" style="stop-color:#E7E8E8"/>
			<stop  offset="0.3902" style="stop-color:#D0CFCF"/>
			<stop  offset="0.727" style="stop-color:#C1C0C0"/>
			<stop  offset="1" style="stop-color:#BCBBBB"/>
		</linearGradient>
		<path fill="url(#SVGID_2_)" d="M107.23,70.717c0,19.021-15.146,34.442-33.833,34.442H60.945
			c-18.686,0-33.833-15.421-33.833-34.442V59.953c0-19.021,15.147-34.442,33.833-34.442h12.452
			c18.688,0,33.833,15.422,33.833,34.442V70.717z"/>
		<line fill="none" stroke="#BBBBBC" stroke-miterlimit="10" x1="28.052" y1="64.748" x2="105.822" y2="64.748"/>
		<path fill="#AAAAAA" d="M75.049,98.884c0,1.06-0.845,1.919-1.886,1.919h-0.694c-1.04,0-1.884-0.859-1.884-1.919v-0.601
			c0-1.061,0.844-1.919,1.884-1.919h0.694c1.041,0,1.886,0.859,1.886,1.919V98.884z"/>
		<path fill="#AAAAAA" d="M68.821,98.884c0,1.06-0.844,1.919-1.884,1.919h-0.694c-1.041,0-1.885-0.859-1.885-1.919v-0.601
			c0-1.061,0.844-1.919,1.885-1.919h0.694c1.04,0,1.884,0.859,1.884,1.919V98.884z"/>
		<path fill="#AAAAAA" d="M62.596,98.884c0,1.06-0.844,1.919-1.885,1.919h-0.694c-1.04,0-1.886-0.859-1.886-1.919v-0.601
			c0-1.061,0.846-1.919,1.886-1.919h0.694c1.041,0,1.885,0.859,1.885,1.919V98.884z"/>
	</g>
	<g>
		<path fill="#7A7B7B" d="M207.018,71.893c0,19.021-15.146,34.442-33.832,34.442h-12.454c-18.686,0-33.833-15.422-33.833-34.442
			V61.128c0-19.021,15.147-34.443,33.833-34.443h12.454c18.686,0,33.832,15.422,33.832,34.443V71.893z"/>
		<linearGradient id="SVGID_3_" gradientUnits="userSpaceOnUse" x1="166.958" y1="25.7456" x2="166.958" y2="104.9302">
			<stop  offset="0" style="stop-color:#E9EAEA"/>
			<stop  offset="0.0212" style="stop-color:#E7E8E8"/>
			<stop  offset="0.3902" style="stop-color:#D0CFCF"/>
			<stop  offset="0.727" style="stop-color:#C1C0C0"/>
			<stop  offset="1" style="stop-color:#BCBBBB"/>
		</linearGradient>
		<path fill="url(#SVGID_3_)" d="M207.018,70.717c0,19.021-15.146,34.442-33.832,34.442h-12.454
			c-18.686,0-33.833-15.421-33.833-34.442V59.953c0-19.021,15.147-34.442,33.833-34.442h12.454
			c18.686,0,33.832,15.422,33.832,34.442V70.717z"/>
		<line fill="none" stroke="#BBBBBC" stroke-miterlimit="10" x1="127.838" y1="64.748" x2="205.608" y2="64.748"/>
		<path fill="#AAAAAA" d="M174.834,98.884c0,1.06-0.844,1.919-1.885,1.919h-0.694c-1.04,0-1.884-0.859-1.884-1.919v-0.601
			c0-1.061,0.844-1.919,1.884-1.919h0.694c1.041,0,1.885,0.859,1.885,1.919V98.884z"/>
		<path fill="#AAAAAA" d="M168.607,98.884c0,1.06-0.844,1.919-1.884,1.919h-0.694c-1.041,0-1.886-0.859-1.886-1.919v-0.601
			c0-1.061,0.845-1.919,1.886-1.919h0.694c1.04,0,1.884,0.859,1.884,1.919V98.884z"/>
		<path fill="#AAAAAA" d="M162.382,98.884c0,1.06-0.844,1.919-1.885,1.919h-0.694c-1.04,0-1.886-0.859-1.886-1.919v-0.601
			c0-1.061,0.846-1.919,1.886-1.919h0.694c1.041,0,1.885,0.859,1.885,1.919V98.884z"/>
	</g>
</g>
</svg>
