<?xml version="1.0" encoding="utf-8"?>
<!-- Generator: Adobe Illustrator 16.0.0, SVG Export Plug-In . SVG Version: 6.00 Build 0)  -->
<!DOCTYPE svg PUBLIC "-//W3C//DTD SVG 1.1//EN" "http://www.w3.org/Graphics/SVG/1.1/DTD/svg11.dtd">
<svg version="1.1" xmlns="http://www.w3.org/2000/svg" xmlns:xlink="http://www.w3.org/1999/xlink" x="0px" y="0px" width="96px"
	 height="54.666px" viewBox="0 0 96 54.666" enable-background="new 0 0 96 54.666" xml:space="preserve">
<g id="Layer_1">
</g>
<g id="Layer_2">
	<g>
		
			<rect x="16.831" y="3.147" transform="matrix(0.9929 -0.1185 0.1185 0.9929 -0.3413 2.244)" fill="#857D7B" width="3.724" height="1.687"/>
		<path fill="#857D7B" d="M35.872,43.099l-3.928,0.478c-0.046,0-0.101,0-0.172,0.002c-1.287,0.036-2.404-0.752-2.851-1.883
			l-0.262-2.201c0.103-1.281,1.026-2.397,2.345-2.68c0.02-0.003,0.033-0.008,0.051-0.01l4.027-0.491l-0.205-1.673l-3.93,0.479
			c-0.045-0.002-0.1-0.002-0.171,0c-1.306,0.037-2.437-0.775-2.869-1.933l-0.247-2.067c0.066-1.315,1.001-2.477,2.349-2.764
			c0.02-0.004,0.034-0.008,0.05-0.012l4.027-0.49l-0.205-1.672l-3.928,0.479c-0.045-0.002-0.101-0.002-0.172,0
			c-1.326,0.036-2.471-0.799-2.89-1.982l-0.229-1.933c0.026-1.35,0.974-2.554,2.352-2.848c0.019-0.005,0.034-0.007,0.05-0.013
			l4.027-0.489l-0.204-1.674l-3.931,0.478c-0.045-0.001-0.099-0.001-0.171,0.002c-1.347,0.036-2.508-0.826-2.909-2.045l-0.103-0.867
			c0.01-0.016,0.001-0.094-0.03-0.252l-0.081-0.666c-0.01-1.383,0.949-2.633,2.358-2.934c0.018-0.004,0.031-0.008,0.049-0.012
			l4.027-0.489l-0.205-1.674L27.964,9.74c-0.047,0-0.102,0-0.172,0.002c-1.378,0.037-2.559-0.867-2.935-2.128l-0.195-1.641
			L13.792,7.27l0.206,1.727c-0.093,1.261-0.991,2.37-2.286,2.677c-0.15,0.035-0.24,0.062-0.28,0.079l-4.387,0.535l0.204,1.672
			l4.509-0.548c0.05,0.003,0.114,0.003,0.202,0.003c1.271-0.008,2.355,0.781,2.793,1.898l0.243,2.055
			c-0.059,1.295-0.963,2.451-2.289,2.764c-0.147,0.036-0.238,0.062-0.281,0.08l-4.385,0.533l0.204,1.675l4.508-0.549
			c0.052,0.003,0.115,0.003,0.203,0.003c1.289-0.008,2.391,0.808,2.812,1.952l0.102,0.864c-0.014,0.006-0.005,0.078,0.028,0.233
			l0.098,0.804c-0.015,1.336-0.932,2.543-2.293,2.863c-0.148,0.037-0.24,0.062-0.281,0.08l-4.385,0.534l0.203,1.675l4.51-0.549
			c0.05,0.002,0.115,0.003,0.201,0.003c1.312-0.01,2.428,0.832,2.832,2.006l0.099,0.819c-0.036-0.041-0.03,0.044,0.032,0.311
			c0.004,0.023,0.008,0.048,0.013,0.07l0.065,0.55c0.031,1.374-0.9,2.633-2.294,2.962c-0.147,0.035-0.238,0.061-0.28,0.079
			l-4.386,0.534l0.205,1.674l4.508-0.549c0.052,0.002,0.115,0.004,0.201,0.002c1.332-0.008,2.463,0.857,2.853,2.061l0.094,0.789
			c-0.052-0.084-0.056-0.016,0.014,0.287c0.026,0.096,0.041,0.189,0.055,0.285l0.005,0.037c0.183,1.488-0.78,2.906-2.272,3.26
			c-0.147,0.034-0.239,0.061-0.281,0.08l-4.385,0.533l0.201,1.672l4.512-0.547c0.05,0.002,0.115,0.005,0.202,0.002
			c1.36-0.007,2.513,0.898,2.874,2.145l0.148,1.238l10.87-1.297l-0.173-1.451c0.127-1.25,1.044-2.333,2.34-2.609
			c0.02-0.006,0.032-0.009,0.05-0.014l4.027-0.488L35.872,43.099z"/>
	</g>
	<g>
		
			<rect x="78.545" y="3.147" transform="matrix(-0.9929 -0.1185 0.1185 -0.9929 159.7744 17.4852)" fill="#AFABA5" width="3.724" height="1.687"/>
		<path fill="#AFABA5" d="M63.228,43.099l3.929,0.478c0.046,0,0.1,0,0.173,0.002c1.286,0.036,2.402-0.752,2.849-1.883l0.263-2.201
			c-0.101-1.281-1.026-2.397-2.347-2.68c-0.018-0.003-0.033-0.008-0.049-0.01l-4.026-0.491l0.203-1.673l3.93,0.479
			c0.047-0.002,0.101-0.002,0.173,0c1.305,0.037,2.435-0.775,2.868-1.933l0.247-2.067c-0.065-1.315-1-2.477-2.35-2.764
			c-0.02-0.004-0.033-0.008-0.05-0.012l-4.026-0.49l0.204-1.672l3.93,0.479c0.046-0.002,0.1-0.002,0.171,0
			c1.325,0.036,2.47-0.799,2.891-1.982l0.23-1.933c-0.029-1.35-0.977-2.554-2.355-2.848c-0.019-0.005-0.032-0.007-0.048-0.013
			l-4.026-0.489l0.204-1.674l3.929,0.478c0.045-0.001,0.101-0.001,0.172,0.002c1.348,0.036,2.509-0.826,2.909-2.045l0.102-0.867
			c-0.008-0.016-0.001-0.094,0.033-0.252l0.077-0.666c0.014-1.383-0.947-2.633-2.356-2.934c-0.018-0.004-0.032-0.008-0.051-0.012
			l-4.023-0.489l0.202-1.674l3.931,0.478c0.046,0,0.102,0,0.173,0.002c1.376,0.037,2.557-0.867,2.933-2.128l0.195-1.641l10.87,1.296
			l-0.205,1.727c0.092,1.261,0.989,2.37,2.284,2.677c0.15,0.035,0.239,0.062,0.281,0.079l4.387,0.535l-0.204,1.672l-4.511-0.548
			c-0.049,0.003-0.112,0.003-0.201,0.003c-1.269-0.008-2.355,0.781-2.791,1.898l-0.244,2.055c0.057,1.295,0.962,2.451,2.287,2.764
			c0.15,0.036,0.242,0.062,0.281,0.08l4.387,0.533l-0.203,1.675l-4.511-0.549c-0.049,0.003-0.113,0.003-0.203,0.003
			c-1.288-0.008-2.389,0.808-2.809,1.952l-0.102,0.864c0.012,0.006,0.004,0.078-0.029,0.233l-0.096,0.804
			c0.013,1.336,0.931,2.543,2.291,2.863c0.148,0.037,0.24,0.062,0.282,0.08l4.383,0.534l-0.203,1.675l-4.509-0.549
			c-0.051,0.002-0.113,0.003-0.2,0.003c-1.312-0.01-2.427,0.832-2.831,2.006l-0.101,0.819c0.036-0.041,0.03,0.044-0.032,0.311
			c-0.005,0.023-0.009,0.048-0.014,0.07l-0.065,0.55c-0.03,1.374,0.9,2.633,2.294,2.962c0.149,0.035,0.241,0.061,0.282,0.079
			l4.385,0.534l-0.204,1.674l-4.509-0.549c-0.051,0.002-0.115,0.004-0.202,0.002c-1.331-0.008-2.462,0.857-2.851,2.061l-0.095,0.789
			c0.052-0.084,0.055-0.016-0.016,0.287c-0.024,0.096-0.04,0.189-0.055,0.285l-0.002,0.037c-0.185,1.488,0.777,2.906,2.271,3.26
			c0.148,0.034,0.24,0.061,0.282,0.08l4.386,0.533l-0.204,1.672l-4.511-0.547c-0.05,0.002-0.114,0.005-0.202,0.002
			c-1.361-0.007-2.513,0.898-2.874,2.145l-0.148,1.238l-10.87-1.297l0.174-1.451c-0.128-1.25-1.043-2.333-2.339-2.609
			c-0.021-0.006-0.034-0.009-0.052-0.014l-4.026-0.488L63.228,43.099z"/>
	</g>
</g>
</svg>
