<?xml version="1.0" encoding="utf-8"?>
<!-- Generator: Adobe Illustrator 16.0.0, SVG Export Plug-In . SVG Version: 6.00 Build 0)  -->
<!DOCTYPE svg PUBLIC "-//W3C//DTD SVG 1.1//EN" "http://www.w3.org/Graphics/SVG/1.1/DTD/svg11.dtd">
<svg version="1.1" id="Layer_1" xmlns="http://www.w3.org/2000/svg" xmlns:xlink="http://www.w3.org/1999/xlink" x="0px" y="0px"
	 width="975.098px" height="579.059px" viewBox="0 0 975.098 579.059" enable-background="new 0 0 975.098 579.059"
	 xml:space="preserve">
<g>
	<line fill="none" stroke="#FFFFFF" stroke-miterlimit="10" x1="950.7" y1="266.075" x2="474.367" y2="558.075"/>
	<line fill="none" stroke="#FFFFFF" stroke-miterlimit="10" x1="511.2" y1="555.575" x2="19.7" y2="284.742"/>
	<line fill="none" stroke="#FFFFFF" stroke-miterlimit="10" x1="560.698" y1="525.577" x2="69.2" y2="254.575"/>
	<line fill="none" stroke="#FFFFFF" stroke-miterlimit="10" x1="609.7" y1="495.575" x2="118.7" y2="224.575"/>
	<line fill="none" stroke="#FFFFFF" stroke-miterlimit="10" x1="658.7" y1="465.075" x2="168.2" y2="194.075"/>
	<line fill="none" stroke="#FFFFFF" stroke-miterlimit="10" x1="708.2" y1="435.075" x2="216.7" y2="163.575"/>
	<line fill="none" stroke="#FFFFFF" stroke-miterlimit="10" x1="757.2" y1="404.575" x2="266.7" y2="133.075"/>
	<line fill="none" stroke="#FFFFFF" stroke-miterlimit="10" x1="807.2" y1="374.575" x2="315.7" y2="103.075"/>
	<line fill="none" stroke="#FFFFFF" stroke-miterlimit="10" x1="856.2" y1="344.075" x2="365.2" y2="72.575"/>
	<line fill="none" stroke="#FFFFFF" stroke-miterlimit="10" x1="905.7" y1="314.075" x2="414.2" y2="42.575"/>
	<line fill="none" stroke="#FFFFFF" stroke-miterlimit="10" x1="954.2" y1="283.575" x2="463.2" y2="12.075"/>
	<line fill="none" stroke="#FFFFFF" stroke-miterlimit="10" x1="904.7" y1="241.075" x2="429.034" y2="532.741"/>
	<line fill="none" stroke="#FFFFFF" stroke-miterlimit="10" x1="858.7" y1="216.075" x2="384.367" y2="507.408"/>
	<line fill="none" stroke="#FFFFFF" stroke-miterlimit="10" x1="813.7" y1="190.575" x2="337.701" y2="482.741"/>
	<line fill="none" stroke="#FFFFFF" stroke-miterlimit="10" x1="768.2" y1="165.075" x2="292.367" y2="457.408"/>
	<line fill="none" stroke="#FFFFFF" stroke-miterlimit="10" x1="722.7" y1="139.575" x2="247.701" y2="431.408"/>
	<line fill="none" stroke="#FFFFFF" stroke-miterlimit="10" x1="676.7" y1="115.075" x2="201.701" y2="406.075"/>
	<line fill="none" stroke="#FFFFFF" stroke-miterlimit="10" x1="630.665" y1="89.539" x2="155.701" y2="381.408"/>
	<line fill="none" stroke="#FFFFFF" stroke-miterlimit="10" x1="585.7" y1="64.075" x2="109.034" y2="356.741"/>
	<line fill="none" stroke="#FFFFFF" stroke-miterlimit="10" x1="539.7" y1="39.075" x2="64.366" y2="331.408"/>
	<line fill="none" stroke="#FFFFFF" stroke-miterlimit="10" x1="493.7" y1="14.075" x2="17.781" y2="306.158"/>
</g>
</svg>
