<?xml version="1.0" encoding="utf-8"?>
<!-- Generator: Adobe Illustrator 16.0.0, SVG Export Plug-In . SVG Version: 6.00 Build 0)  -->
<!DOCTYPE svg PUBLIC "-//W3C//DTD SVG 1.1//EN" "http://www.w3.org/Graphics/SVG/1.1/DTD/svg11.dtd">
<svg version="1.1" id="Layer_1" xmlns="http://www.w3.org/2000/svg" xmlns:xlink="http://www.w3.org/1999/xlink" x="0px" y="0px"
	 width="67.333px" height="67.667px" viewBox="0 0 67.333 67.667" enable-background="new 0 0 67.333 67.667" xml:space="preserve">
<g id="Layer_1_1_">
</g>
<path fill="#DBDBDB" d="M33.998,3.842c-16.568,0-30,13.432-30,30s13.432,30,30,30s30-13.432,30-30S50.566,3.842,33.998,3.842z
	 M33.998,58.591c-13.669,0-24.75-11.08-24.75-24.75c0-13.669,11.081-24.75,24.75-24.75c13.668,0,24.75,11.081,24.75,24.75
	C58.749,47.511,47.667,58.591,33.998,58.591z"/>
<path fill="#231F20" d="M53.686,14.04c-10.905-10.904-28.646-10.904-39.552,0c-10.903,10.904-10.903,28.646,0,39.551
	c10.905,10.902,28.646,10.902,39.552,0C64.59,42.687,64.59,24.944,53.686,14.04z"/>
<g>
	<g>
		<defs>
			<ellipse id="SVGID_1_" cx="33.511" cy="31.805" rx="23.166" ry="26.687"/>
		</defs>
		<clipPath id="SVGID_2_">
			<use xlink:href="#SVGID_1_"  overflow="visible"/>
		</clipPath>
		<path clip-path="url(#SVGID_2_)" fill="#B42A25" d="M34.224,59.347c-3.996,0.285-14.413-2.426-17.838-14.271
			c-3.425-11.844,8.277-22.547,8.277-22.547s-1.285,3.853-1.713,7.135c-0.428,3.283,0.286,5.565,0.286,5.565
			s-0.144-4.565,2.71-8.847c2.855-4.281,4.281-6.85,5.424-9.847c1.143-2.998,0.999-7.136,0.999-7.136s6.279,7.421,8.705,14.841
			c2.426,7.421,2.14,12.416,2.14,12.416s1.428-3.424,1.428-5.138c0-1.712-0.855-3.71-0.855-3.71s9.275,8.135,5.85,18.981
			C46.212,57.634,38.22,59.061,34.224,59.347z"/>
	</g>
	<g>
		<defs>
			<ellipse id="SVGID_3_" cx="33.511" cy="31.805" rx="23.166" ry="26.687"/>
		</defs>
		<clipPath id="SVGID_4_">
			<use xlink:href="#SVGID_3_"  overflow="visible"/>
		</clipPath>
		<path clip-path="url(#SVGID_4_)" fill="#F05B22" d="M33.797,59.347c-5.28,0.427-12.274-5.139-14.7-11.846s2.142-15.84,2.142-15.84
			s0.144,2.711,0.855,4.139c0.714,1.428,2.284,2.568,2.284,2.568s-0.429-4.139,1.284-6.851c1.712-2.711,5.28-4.709,6.421-7.135
			c1.143-2.426,0.857-5.993,0.857-5.993s5.137,3.71,6.992,9.417c1.855,5.709,1.57,11.989,1.57,11.989s2.426-1.57,3.282-3.71
			c0.855-2.142,0.429-4.282,0.429-4.282s4.994,6.137,1.568,15.84C43.358,57.347,39.078,58.917,33.797,59.347z"/>
	</g>
	<g>
		<defs>
			<ellipse id="SVGID_5_" cx="33.511" cy="31.805" rx="23.166" ry="26.687"/>
		</defs>
		<clipPath id="SVGID_6_">
			<use xlink:href="#SVGID_5_"  overflow="visible"/>
		</clipPath>
		<path clip-path="url(#SVGID_6_)" fill="#F9A21B" d="M34.225,59.49c-5.28,0-10.561-2.854-12.131-8.562
			c-1.569-5.709,1.284-11.56,1.284-11.56s2.284,5.138,3.854,4.28c1.57-0.855,0-6.706,2.283-11.274
			c2.283-4.566,4.567-5.278,4.567-5.278s-1.285,2.14,2.71,7.135c3.997,4.994,7.993,10.988,7.137,15.697
			C43.072,54.638,39.505,59.49,34.225,59.49z"/>
	</g>
	<g>
		<defs>
			<ellipse id="SVGID_7_" cx="33.511" cy="31.805" rx="23.166" ry="26.687"/>
		</defs>
		<clipPath id="SVGID_8_">
			<use xlink:href="#SVGID_7_"  overflow="visible"/>
		</clipPath>
		<path clip-path="url(#SVGID_8_)" fill="#F8DE8C" d="M34.369,59.49c-3.854,0-7.422-2.568-7.992-6.564
			c-0.572-3.996,1.569-6.423,1.569-6.423s0.285,2.569,1.142,3.425c0.856,0.857,1.855,0.857,1.855,0.857s-2.854-5.566-1.57-10.275
			c1.285-4.709,3.425-6.279,3.425-6.279s-0.714,3.996,1,5.851c1.712,1.856,6.706,6.136,7.135,10.562
			C41.361,55.065,38.22,59.49,34.369,59.49z"/>
	</g>
</g>
<g opacity="0.2">
	<path fill="#DBDBDB" d="M26.158,47.533c-5.647-3.328-8.685-10.1-6.978-16.759c2.066-8.069,10.312-12.952,18.382-10.885
		c6.658,1.706,11.136,7.621,11.34,14.171l1.413,2.386c0.952-8.128-4.236-15.935-12.378-18.02
		C29.06,16.153,19.991,21.524,17.716,30.4c-2.086,8.145,2.267,16.447,9.854,19.518L26.158,47.533z"/>
	<path fill="#DBDBDB" d="M33.836,11.343c-10.36,0-19.153,6.838-22.104,16.238h1.595c2.896-8.552,10.993-14.727,20.51-14.727
		c11.938,0,21.65,9.712,21.65,21.651c0,11.938-9.712,21.65-21.65,21.65c-3.36,0-6.543-0.769-9.383-2.14h-3.075
		c3.601,2.308,7.874,3.651,12.458,3.651c12.771,0,23.162-10.391,23.162-23.162C56.999,21.733,46.606,11.343,33.836,11.343z"/>
	<path fill="#DBDBDB" d="M51.598,29.799c0.015,0.06,0.033,0.118,0.05,0.178c2.496,9.821-3.463,19.843-13.282,22.34
		c-9.823,2.497-19.845-3.463-22.342-13.284c-2.428-9.55,3.14-19.286,12.478-22.113l1.096-1.842c-0.221,0.049-0.441,0.095-0.66,0.15
		c-10.63,2.702-17.079,13.547-14.377,24.176c2.701,10.629,13.547,17.078,24.176,14.377c10.629-2.703,17.078-13.548,14.376-24.177
		c-0.135-0.531-0.296-1.049-0.472-1.56L51.598,29.799z"/>
</g>
<linearGradient id="SVGID_9_" gradientUnits="userSpaceOnUse" x1="13.98" y1="54.5386" x2="28.481" y2="40.5376" gradientTransform="matrix(1 0 0 -1 0 68.667)">
	<stop  offset="0.0051" style="stop-color:#FFFFFF"/>
	<stop  offset="1" style="stop-color:#FFFFFF;stop-opacity:0"/>
</linearGradient>
<path opacity="0.3" fill="url(#SVGID_9_)" enable-background="new    " d="M40.229,10.228L10.471,39.986
	c-2.966-4.135-0.995-16.674,6.071-23.793C23.714,8.97,36.036,7.219,40.229,10.228z"/>
</svg>
