<?xml version="1.0" encoding="utf-8"?>
<!-- Generator: Adobe Illustrator 16.0.0, SVG Export Plug-In . SVG Version: 6.00 Build 0)  -->
<!DOCTYPE svg PUBLIC "-//W3C//DTD SVG 1.1//EN" "http://www.w3.org/Graphics/SVG/1.1/DTD/svg11.dtd">
<svg version="1.1" xmlns="http://www.w3.org/2000/svg" xmlns:xlink="http://www.w3.org/1999/xlink" x="0px" y="0px" width="61.5px"
	 height="65px" viewBox="0 0 61.5 65" enable-background="new 0 0 61.5 65" xml:space="preserve">
<g id="Layer_1">
</g>
<g id="Layer_2">
	<path fill="#DBDBDB" d="M30.499,2c-16.568,0-30,13.432-30,30s13.432,30,30,30s30-13.432,30-30S47.067,2,30.499,2z M30.499,56.75
		C16.83,56.75,5.749,45.669,5.749,32S16.83,7.25,30.499,7.25S55.249,18.331,55.249,32S44.168,56.75,30.499,56.75z"/>
	<g>
		<path fill="#8B191B" d="M50.187,12.198c-10.905-10.904-28.646-10.904-39.552,0c-10.903,10.904-10.903,28.646,0,39.551
			c10.905,10.903,28.646,10.903,39.552,0C61.091,40.844,61.091,23.102,50.187,12.198z"/>
		<g>
			<path fill="#8B191B" d="M17.954,31.611l0.497,3.797l4.111-9.778l0.933,12.753l3.992-9.499h0.735l-5.269,12.651l-0.948-12.766
				l-3.882,9.041l-0.906-5.759L17.954,31.611z"/>
			<path fill="#8B191B" d="M5.894,28.883H7.97c0.341,0,0.663,0.042,0.962,0.126c0.3,0.083,0.561,0.205,0.782,0.363
				c0.221,0.159,0.396,0.354,0.525,0.588c0.129,0.234,0.193,0.501,0.193,0.801s-0.062,0.56-0.186,0.779s-0.287,0.402-0.488,0.546
				c-0.203,0.146-0.434,0.253-0.691,0.325c-0.257,0.071-0.521,0.106-0.789,0.106c-0.115,0-0.234-0.003-0.358-0.01
				c-0.123-0.008-0.244-0.017-0.361-0.026c-0.116-0.011-0.224-0.021-0.321-0.034c-0.098-0.012-0.178-0.025-0.24-0.039v3.033H5.894
				V28.883z M6.997,32.038c0.121,0.034,0.254,0.067,0.397,0.099c0.143,0.032,0.287,0.048,0.434,0.048
				c0.237,0,0.445-0.036,0.623-0.107c0.177-0.071,0.324-0.168,0.441-0.291c0.116-0.122,0.205-0.266,0.264-0.431
				c0.06-0.165,0.089-0.344,0.089-0.531c0-0.22-0.038-0.419-0.115-0.599c-0.076-0.18-0.181-0.333-0.313-0.46
				s-0.287-0.225-0.466-0.293c-0.178-0.067-0.368-0.102-0.575-0.102H6.997V32.038z"/>
			<path fill="#8B191B" d="M14.402,35.598c-0.339,0-0.663-0.041-0.974-0.125s-0.6-0.2-0.868-0.351s-0.512-0.331-0.732-0.544
				c-0.219-0.212-0.406-0.446-0.562-0.703s-0.274-0.532-0.358-0.829c-0.084-0.296-0.126-0.604-0.126-0.92
				c0-0.471,0.094-0.912,0.28-1.324c0.187-0.41,0.442-0.77,0.766-1.076c0.324-0.307,0.707-0.548,1.148-0.725
				c0.44-0.177,0.916-0.265,1.426-0.265c0.338,0,0.661,0.041,0.972,0.12c0.311,0.081,0.6,0.194,0.866,0.341
				c0.266,0.146,0.51,0.322,0.729,0.528c0.221,0.205,0.408,0.434,0.562,0.686c0.156,0.25,0.274,0.521,0.358,0.81
				c0.084,0.29,0.126,0.592,0.126,0.905c0,0.316-0.042,0.624-0.126,0.92c-0.084,0.297-0.202,0.572-0.358,0.829
				c-0.154,0.257-0.342,0.491-0.562,0.703c-0.219,0.213-0.463,0.394-0.729,0.544c-0.267,0.15-0.556,0.267-0.866,0.351
				S14.74,35.598,14.402,35.598z M14.402,35.269c0.372,0,0.702-0.078,0.99-0.235s0.529-0.376,0.728-0.656
				c0.196-0.28,0.346-0.612,0.446-0.996c0.102-0.384,0.152-0.802,0.152-1.255c0-0.45-0.051-0.862-0.152-1.237
				c-0.101-0.374-0.25-0.698-0.446-0.97c-0.198-0.272-0.439-0.482-0.728-0.633s-0.618-0.225-0.99-0.225
				c-0.385,0-0.721,0.074-1.01,0.225s-0.532,0.36-0.727,0.633c-0.196,0.271-0.343,0.596-0.442,0.97
				c-0.1,0.375-0.149,0.787-0.149,1.237c0,0.453,0.05,0.871,0.149,1.255s0.246,0.716,0.442,0.996
				c0.194,0.28,0.438,0.499,0.727,0.656S14.018,35.269,14.402,35.269z"/>
			<path fill="#8B191B" d="M32.071,28.883v0.425h-3.457v2.348h2.312v0.424h-2.312v2.938h3.457v0.424h-4.56v-6.559H32.071z"/>
			<path fill="#8B191B" d="M32.629,28.883h2.271c0.394,0,0.74,0.043,1.037,0.129c0.299,0.086,0.547,0.204,0.746,0.356
				c0.199,0.15,0.348,0.331,0.446,0.54c0.101,0.209,0.149,0.438,0.149,0.686c0,0.205-0.037,0.397-0.114,0.575
				s-0.186,0.338-0.327,0.48c-0.142,0.144-0.311,0.267-0.507,0.371c-0.197,0.105-0.416,0.186-0.657,0.24l2.385,3.181h-1.275
				l-2.275-3.08h-0.774v3.08h-1.104V28.883z M33.732,32.032h0.639c0.247,0,0.477-0.032,0.686-0.099
				c0.208-0.066,0.39-0.16,0.544-0.28c0.152-0.121,0.272-0.267,0.357-0.439c0.086-0.173,0.128-0.366,0.128-0.583
				c0-0.195-0.034-0.374-0.102-0.538c-0.068-0.164-0.164-0.305-0.287-0.422c-0.124-0.116-0.271-0.208-0.439-0.273
				c-0.169-0.066-0.355-0.101-0.558-0.101h-0.968V32.032z"/>
			<path fill="#8B191B" d="M38.439,28.883h0.617l4.299,4.796h0.041v-4.796h0.486v6.715h-0.257l-4.653-5.333h-0.036v5.177h-0.497
				V28.883z"/>
			<path fill="#8B191B" d="M49.206,28.883v0.425h-3.457v2.348h2.312v0.424h-2.312v2.938h3.457v0.424h-4.561v-6.559H49.206z"/>
			<path fill="#8B191B" d="M55.644,28.883v0.425H53.27v6.134h-1.104v-6.134h-2.375v-0.425H55.644z"/>
		</g>
		<g>
			<path fill="#9C9473" d="M18.256,31.419l0.498,3.796l4.11-9.778l0.933,12.753l3.993-9.498h0.735l-5.269,12.65l-0.949-12.765
				l-3.881,9.04l-0.907-5.759L18.256,31.419z"/>
			<path fill="#9C9473" d="M6.195,28.692h2.076c0.342,0,0.662,0.041,0.963,0.125c0.3,0.084,0.56,0.205,0.781,0.364
				c0.222,0.158,0.396,0.354,0.526,0.588c0.128,0.234,0.193,0.5,0.193,0.8s-0.062,0.561-0.187,0.779
				c-0.123,0.221-0.287,0.402-0.488,0.546c-0.203,0.146-0.433,0.254-0.69,0.324c-0.258,0.072-0.521,0.107-0.79,0.107
				c-0.114,0-0.234-0.003-0.358-0.01S7.978,32.3,7.861,32.29c-0.117-0.011-0.224-0.021-0.321-0.033
				c-0.098-0.013-0.178-0.026-0.241-0.04v3.034H6.195V28.692z M7.299,31.845c0.122,0.034,0.255,0.068,0.397,0.1
				c0.144,0.031,0.287,0.047,0.434,0.047c0.237,0,0.445-0.036,0.623-0.107c0.179-0.07,0.325-0.168,0.442-0.29
				c0.116-0.123,0.204-0.267,0.264-0.432s0.089-0.343,0.089-0.53c0-0.221-0.039-0.42-0.115-0.599
				c-0.076-0.18-0.182-0.333-0.313-0.461c-0.133-0.127-0.288-0.225-0.466-0.293c-0.178-0.067-0.369-0.102-0.575-0.102H7.299V31.845z
				"/>
			<path fill="#9C9473" d="M14.704,35.407c-0.339,0-0.663-0.042-0.974-0.125c-0.31-0.084-0.6-0.201-0.868-0.351
				c-0.268-0.15-0.512-0.331-0.731-0.544s-0.407-0.447-0.562-0.703c-0.155-0.257-0.274-0.533-0.358-0.83
				c-0.083-0.296-0.125-0.603-0.125-0.92c0-0.471,0.093-0.912,0.279-1.323s0.442-0.771,0.767-1.077s0.706-0.548,1.147-0.725
				s0.916-0.264,1.426-0.264c0.338,0,0.662,0.04,0.972,0.12c0.311,0.08,0.6,0.193,0.866,0.341c0.267,0.146,0.51,0.321,0.729,0.527
				c0.22,0.205,0.406,0.435,0.562,0.685c0.154,0.251,0.274,0.521,0.358,0.811c0.083,0.29,0.125,0.592,0.125,0.905
				c0,0.317-0.042,0.624-0.125,0.92c-0.084,0.297-0.204,0.573-0.358,0.83c-0.156,0.256-0.343,0.49-0.562,0.703
				s-0.463,0.394-0.729,0.544c-0.267,0.149-0.556,0.267-0.866,0.351C15.366,35.365,15.042,35.407,14.704,35.407z M14.704,35.078
				c0.373,0,0.703-0.079,0.991-0.235c0.287-0.157,0.529-0.376,0.727-0.657c0.196-0.279,0.346-0.612,0.446-0.995
				c0.102-0.385,0.151-0.803,0.151-1.256c0-0.45-0.05-0.862-0.151-1.236c-0.101-0.375-0.25-0.698-0.446-0.971
				c-0.197-0.272-0.439-0.482-0.727-0.632c-0.288-0.15-0.618-0.227-0.991-0.227c-0.384,0-0.721,0.076-1.01,0.227
				c-0.289,0.149-0.531,0.359-0.727,0.632s-0.343,0.596-0.442,0.971c-0.1,0.374-0.148,0.786-0.148,1.236
				c0,0.453,0.049,0.871,0.148,1.256c0.1,0.383,0.247,0.716,0.442,0.995c0.195,0.281,0.438,0.5,0.727,0.657
				C13.983,34.999,14.32,35.078,14.704,35.078z"/>
			<path fill="#9C9473" d="M32.373,28.692v0.423h-3.457v2.349h2.312v0.424h-2.312v2.938h3.457v0.425h-4.561v-6.559H32.373z"/>
			<path fill="#9C9473" d="M32.932,28.692h2.27c0.394,0,0.74,0.042,1.038,0.128s0.546,0.203,0.745,0.355s0.349,0.332,0.447,0.541
				c0.1,0.209,0.148,0.438,0.148,0.686c0,0.205-0.037,0.397-0.114,0.575s-0.186,0.338-0.327,0.48
				c-0.142,0.144-0.311,0.268-0.507,0.372c-0.197,0.104-0.416,0.186-0.656,0.24l2.385,3.181h-1.276l-2.274-3.081h-0.774v3.081
				h-1.104V28.692z M34.035,31.839h0.638c0.248,0,0.477-0.032,0.686-0.099s0.391-0.16,0.544-0.28s0.272-0.267,0.358-0.439
				c0.085-0.172,0.127-0.366,0.127-0.583c0-0.195-0.033-0.374-0.101-0.538c-0.068-0.164-0.164-0.305-0.288-0.421
				c-0.124-0.117-0.271-0.209-0.439-0.274c-0.169-0.066-0.355-0.101-0.557-0.101h-0.968V31.839z"/>
			<path fill="#9C9473" d="M38.741,28.692h0.617l4.299,4.795h0.042v-4.795h0.486v6.715h-0.257l-4.654-5.335h-0.036v5.179h-0.497
				V28.692z"/>
			<path fill="#9C9473" d="M49.508,28.692v0.423h-3.457v2.349h2.312v0.424h-2.312v2.938h3.457v0.425h-4.561v-6.559H49.508z"/>
			<path fill="#9C9473" d="M55.945,28.692v0.423h-2.374v6.136h-1.104v-6.136h-2.374v-0.423H55.945z"/>
		</g>
		<linearGradient id="SVGID_1_" gradientUnits="userSpaceOnUse" x1="10.4805" y1="12.2866" x2="24.9804" y2="26.2866">
			<stop  offset="0.0051" style="stop-color:#FFFFFF"/>
			<stop  offset="1" style="stop-color:#FFFFFF;stop-opacity:0"/>
		</linearGradient>
		<path opacity="0.3" fill="url(#SVGID_1_)" d="M36.73,8.385L6.972,38.144c-2.966-4.135-0.995-16.674,6.071-23.793
			C20.215,7.127,32.536,5.376,36.73,8.385z"/>
	</g>
	<g opacity="0.3">
		<path fill="#DBDBDB" d="M22.992,45.032c-5.647-3.327-8.685-10.099-6.978-16.758c2.066-8.069,10.312-12.952,18.382-10.885
			c6.658,1.706,11.136,7.621,11.34,14.171l1.413,2.386c0.952-8.128-4.236-15.935-12.378-18.02
			c-8.877-2.273-17.946,3.098-20.221,11.974c-2.086,8.144,2.267,16.447,9.854,19.518L22.992,45.032z"/>
		<path fill="#DBDBDB" d="M30.67,8.844c-10.36,0-19.153,6.838-22.104,16.238h1.595c2.896-8.552,10.993-14.727,20.51-14.727
			c11.938,0,21.65,9.712,21.65,21.651s-9.712,21.651-21.65,21.651c-3.36,0-6.543-0.769-9.383-2.14h-3.075
			c3.601,2.307,7.874,3.651,12.458,3.651c12.771,0,23.161-10.39,23.161-23.162S43.44,8.844,30.67,8.844z"/>
		<path fill="#DBDBDB" d="M48.432,27.3c0.015,0.06,0.034,0.118,0.05,0.178c2.496,9.822-3.463,19.843-13.283,22.34
			c-9.822,2.497-19.844-3.463-22.341-13.285c-2.428-9.549,3.14-19.285,12.478-22.112l1.096-1.842
			c-0.221,0.049-0.441,0.095-0.66,0.15c-10.63,2.702-17.079,13.547-14.377,24.176c2.701,10.629,13.547,17.078,24.176,14.376
			s17.078-13.547,14.376-24.176c-0.135-0.531-0.296-1.049-0.472-1.56L48.432,27.3z"/>
	</g>
</g>
</svg>
