<?xml version="1.0" encoding="utf-8"?>
<!-- Generator: Adobe Illustrator 16.0.0, SVG Export Plug-In . SVG Version: 6.00 Build 0)  -->
<!DOCTYPE svg PUBLIC "-//W3C//DTD SVG 1.1//EN" "http://www.w3.org/Graphics/SVG/1.1/DTD/svg11.dtd">
<svg version="1.1" id="Layer_1" xmlns="http://www.w3.org/2000/svg" xmlns:xlink="http://www.w3.org/1999/xlink" x="0px" y="0px"
	 width="137px" height="183px" viewBox="0 0 137 183" enable-background="new 0 0 137 183" xml:space="preserve">
<g>
	<defs>
		<ellipse id="SVGID_5_" cx="66" cy="83" rx="81.166" ry="93.5"/>
	</defs>
	<clipPath id="SVGID_2_">
		<use xlink:href="#SVGID_5_"  overflow="visible"/>
	</clipPath>
	<path clip-path="url(#SVGID_2_)" fill="#B42A25" d="M71.722,181.626c-19.011-0.515-41.619,0-57.033-33.912
		c-15.414-33.911-0.514-53.437-1.027-61.144c-0.514-7.707-4.11-16.955-4.11-16.955s14.9,11.817,16.955,17.983
		s4.624,16.956,4.624,16.956s-2.056-19.524,8.734-40.077S59.903,31.08,59.39,23.373S56.308,9.5,56.308,9.5
		S85.08,24.915,92.787,42.384c7.706,17.469,6.166,37.508,6.166,37.508s3.597-15.929,11.303-23.636
		c7.708-7.707,15.415-7.707,15.415-7.707s-3.083,17.983-1.542,28.26c1.542,10.276,15.414,54.977-5.651,78.099
		C97.411,178.029,71.722,181.626,71.722,181.626z"/>
	<path clip-path="url(#SVGID_2_)" fill="#F05B22" d="M53.738,181.626c0,0-24.664-14.387-33.398-29.801
		c-8.734-15.414,1.027-36.994-1.027-45.729c-2.055-8.735-4.624-17.47-4.624-17.47s5.651,2.055,9.763,6.68
		c4.109,4.624,7.192,17.981,9.762,20.55c2.569,2.569,6.679,4.626,6.679,4.626s-7.706-19.525,2.057-38.535
		C52.711,62.936,62.986,52.146,63.5,44.953c0.514-7.194-2.055-16.441-2.055-16.441s29.287,14.9,32.883,38.021
		c3.597,23.121,2.056,31.856,2.056,31.856s3.597-16.956,9.248-23.636s11.305-10.79,11.305-10.79s-3.084,11.304-1.542,21.581
		c1.542,10.276,7.707,41.104,5.651,51.38c-2.055,10.276-8.734,40.591-40.076,45.215C49.627,186.764,53.738,181.626,53.738,181.626z"
		/>
	<path clip-path="url(#SVGID_2_)" fill="#F9A21B" d="M54.419,177.489c0,0-17.204-7.084-28.338-19.735
		c-11.132-12.65-5.565-27.325-4.554-35.422c1.012-8.096-1.518-14.675-1.518-14.675s13.156,7.59,16.699,10.627
		c3.541,3.036,7.59,7.59,7.59,7.59s-3.036-11.133,4.048-28.338s15.687-18.723,19.229-28.844C71.118,58.572,68.588,52.5,68.588,52.5
		s21.76,19.735,24.796,37.952s0.506,23.784,0.506,23.784s3.542-15.687,7.591-22.265c4.048-6.579,9.108-11.639,9.108-11.639
		s-2.531,19.735,1.519,28.844c4.048,9.108,10.119,38.964-2.531,51.615c-12.65,12.65-23.783,18.723-34.916,19.734
		C63.528,181.537,54.419,177.489,54.419,177.489z"/>
	<path clip-path="url(#SVGID_2_)" fill="#F8DE8C" d="M55,175.5c0,0-15-9-18.5-22.5s4.5-26,4.5-26s4,12.5,9.5,17s11,4.5,11,4.5
		s-8.5-19.5-1-40s20-31,20-31s-3,17,1.5,25s27,34,21.5,51S86,177.5,74,178S55,175.5,55,175.5z"/>
</g>
</svg>
