<?xml version="1.0" encoding="utf-8"?>
<!-- Generator: Adobe Illustrator 16.0.0, SVG Export Plug-In . SVG Version: 6.00 Build 0)  -->
<!DOCTYPE svg PUBLIC "-//W3C//DTD SVG 1.1//EN" "http://www.w3.org/Graphics/SVG/1.1/DTD/svg11.dtd">
<svg version="1.1" id="Layer_1" xmlns="http://www.w3.org/2000/svg" xmlns:xlink="http://www.w3.org/1999/xlink" x="0px" y="0px"
	 width="143px" height="176px" viewBox="0 0 143 176" enable-background="new 0 0 143 176" xml:space="preserve">
<g>
	<defs>
		<ellipse id="SVGID_1_" cx="73.534" cy="76.146" rx="81.166" ry="93.5"/>
	</defs>
	<clipPath id="SVGID_2_">
		<use xlink:href="#SVGID_1_"  overflow="visible"/>
	</clipPath>
	<path clip-path="url(#SVGID_2_)" fill="#B42A25" d="M59.81,170.648c0,0-32.333-4-48.333-39.333S30.81,60.648,30.81,60.648
		s1.667,9,3,11.333c1.334,2.333,3.667,3.667,3.667,3.667s-1.667-28.334,19-48.667s44-19.333,44-19.333s-5.666,3.666-6.333,11.333
		s8.334,32.667,13,49s5.333,26.667,5.333,26.667s1.001-10,3.667-14.333s9-6.667,9-6.667s-2,6.333,0,9s23.666,29.667,4.666,59
		s-47,31.666-47,31.666l30.667-46.666l-42.667-85l-24,62.333l-11.666,32.333L59.81,170.648z"/>
	<path clip-path="url(#SVGID_2_)" fill="#F05B22" d="M36.7,161.314c0,0-20.557-23.333-19.224-48.333s12.667-32.667,12.667-32.667
		s-0.334,10.667,2.333,14s7,3.333,7,3.333S38.81,75.315,50.81,53.315s31-24,31-24s-2.333,8.667-0.333,12.667s17,30.667,21,41.667
		s7,29.333,7,29.333s0.667-11,4.333-15.667c3.667-4.667,8.334-7.667,8.334-7.667s-1.333,9.667,1,13.667s5.666,21-7.334,40
		c-13,19-21.191,27.083-21.191,27.083l1.352-26.584l-5.27-36.499L77.477,82.981l-11.333-2.667l-8.334,31.667l-10,9.333l0.725,32.917
		l-3.334,11.75c0,0-2.809-1.307-4.833-2.417C38.343,162.455,36.7,161.314,36.7,161.314z"/>
	<path clip-path="url(#SVGID_2_)" fill="#F9A21B" d="M45.144,165.982c0,0-14-26.333-9.667-44s11-29.667,11-29.667
		s1.667,21,7.333,19.667c5.667-1.333-8.333-31.334,1.667-48.667S74.81,41.982,74.81,41.982s-8,11.666-1,25.333s25.334,34,27,49.333
		c1.667,15.333-6.191,53.666-6.191,53.666s-2.179,0.957-5.334,1.834s-6.416,1.334-6.416,1.334v-29.501l-8.334-32.5l-4.833-14.667
		l-2.833,2.833l-0.834,33l-1.166,8.667L59.7,170.731c0,0-4.148-0.806-7.582-2C48.684,167.537,45.144,165.982,45.144,165.982z"/>
	<path clip-path="url(#SVGID_2_)" fill="#F8DE8C" d="M60.034,171.148c0,0-5.999-10-6.166-22.834
		c-0.167-12.833,3.166-21.666,3.166-21.666s1.001,8.167,1.834,10.667s4,3.667,4,3.667s1.667-5.333,0-10.333
		s-3.5-11.833-2.167-21.667s11.833-20.333,11.833-20.333s-2.166,8.667,0,14.5c2.167,5.833,14.667,19.833,14.667,36.167
		s-2.833,31.833-2.833,31.833H60.034z"/>
</g>
</svg>
