<?xml version="1.0" encoding="utf-8"?>
<!-- Generator: Adobe Illustrator 16.0.0, SVG Export Plug-In . SVG Version: 6.00 Build 0)  -->
<!DOCTYPE svg PUBLIC "-//W3C//DTD SVG 1.1//EN" "http://www.w3.org/Graphics/SVG/1.1/DTD/svg11.dtd">
<svg version="1.1" xmlns="http://www.w3.org/2000/svg" xmlns:xlink="http://www.w3.org/1999/xlink" x="0px" y="0px" width="85.5px"
	 height="86.5px" viewBox="0 0 85.5 86.5" enable-background="new 0 0 85.5 86.5" xml:space="preserve">
<g id="Layer_1">
</g>
<g id="Layer_2">
	<g>
		<path fill="#7A7B7B" d="M83.169,50.893c0,19.021-15.146,34.442-33.833,34.442H36.883c-18.686,0-33.833-15.422-33.833-34.442
			V40.128c0-19.021,15.147-34.443,33.833-34.443h12.453c18.687,0,33.833,15.422,33.833,34.443V50.893z"/>
		<linearGradient id="SVGID_1_" gradientUnits="userSpaceOnUse" x1="43.1094" y1="4.7456" x2="43.1094" y2="83.9302">
			<stop  offset="0" style="stop-color:#E9EAEA"/>
			<stop  offset="0.0212" style="stop-color:#E7E8E8"/>
			<stop  offset="0.3902" style="stop-color:#D0CFCF"/>
			<stop  offset="0.727" style="stop-color:#C1C0C0"/>
			<stop  offset="1" style="stop-color:#BCBBBB"/>
		</linearGradient>
		<path fill="url(#SVGID_1_)" d="M83.169,49.717c0,19.021-15.146,34.442-33.833,34.442H36.883C18.197,84.16,3.05,68.739,3.05,49.717
			V38.953c0-19.021,15.147-34.442,33.833-34.442h12.453c18.687,0,33.833,15.422,33.833,34.442V49.717z"/>
		<line fill="none" stroke="#BBBBBC" stroke-miterlimit="10" x1="3.99" y1="43.748" x2="81.761" y2="43.748"/>
		<path fill="#AAAAAA" d="M50.986,77.884c0,1.06-0.844,1.919-1.885,1.919h-0.694c-1.04,0-1.886-0.859-1.886-1.919v-0.601
			c0-1.061,0.846-1.919,1.886-1.919h0.694c1.041,0,1.885,0.859,1.885,1.919V77.884z"/>
		<path fill="#AAAAAA" d="M44.76,77.884c0,1.06-0.844,1.919-1.886,1.919h-0.692c-1.041,0-1.886-0.859-1.886-1.919v-0.601
			c0-1.061,0.845-1.919,1.886-1.919h0.692c1.042,0,1.886,0.859,1.886,1.919V77.884z"/>
		<path fill="#AAAAAA" d="M38.534,77.884c0,1.06-0.846,1.919-1.886,1.919h-0.693c-1.041,0-1.886-0.859-1.886-1.919v-0.601
			c0-1.061,0.845-1.919,1.886-1.919h0.693c1.04,0,1.886,0.859,1.886,1.919V77.884z"/>
	</g>
</g>
</svg>
