<?xml version="1.0" encoding="utf-8"?>
<!-- Generator: Adobe Illustrator 16.0.0, SVG Export Plug-In . SVG Version: 6.00 Build 0)  -->
<!DOCTYPE svg PUBLIC "-//W3C//DTD SVG 1.1//EN" "http://www.w3.org/Graphics/SVG/1.1/DTD/svg11.dtd">
<svg version="1.1" id="Layer_1" xmlns="http://www.w3.org/2000/svg" xmlns:xlink="http://www.w3.org/1999/xlink" x="0px" y="0px"
	 width="87.333px" height="99.334px" viewBox="0 0 87.333 99.334" enable-background="new 0 0 87.333 99.334" xml:space="preserve">
<rect x="8.333" y="13.5" fill="#FFE000" width="72.5" height="72.333"/>
<g id="Layer_1_1_">
</g>
<g id="Layer_2">
	<rect x="48.65" y="22.188" fill="#AFABA5" width="2.116" height="1.99"/>
	<rect x="37.392" y="22.188" fill="#AFABA5" width="2.113" height="1.99"/>
	<rect x="45.106" y="20.571" fill="#AFABA5" width="2.113" height="5.224"/>
	<rect x="18.382" y="22.188" fill="#AFABA5" width="1.534" height="1.99"/>
	<rect x="10.212" y="22.188" fill="#857D7B" width="1.535" height="1.99"/>
	<rect x="15.81" y="20.571" fill="#857D7B" width="1.534" height="5.224"/>
	<rect x="12.783" y="20.571" fill="#857D7B" width="1.535" height="5.224"/>
	<rect x="40.937" y="20.571" fill="#AFABA5" width="2.115" height="5.224"/>
	<rect x="73.79" y="20.571" fill="#AFABA5" width="1.535" height="5.224"/>
	<rect x="68.193" y="22.188" fill="#AFABA5" width="1.534" height="1.99"/>
	<rect x="70.766" y="20.571" fill="#AFABA5" width="1.533" height="5.224"/>
	<rect x="76.363" y="22.188" fill="#AFABA5" width="1.533" height="1.99"/>
	<path fill="#AFABA5" d="M6.324,7.136v87.081h75.633V7.136H6.324z M44.048,15.221c4.465,0,8.085,3.621,8.085,8.086
		c0,4.467-3.62,8.087-8.085,8.087c-4.466,0-8.087-3.62-8.087-8.087C35.961,18.842,39.582,15.221,44.048,15.221z M15.042,31.394
		c-3.242,0-5.867-3.62-5.867-8.087c0-4.465,2.625-8.086,5.867-8.086c3.24,0,5.867,3.621,5.867,8.086
		C20.909,27.773,18.282,31.394,15.042,31.394z M36.993,79.086c-6.57-2.79-11.189-9.306-11.189-16.883
		c0-10.104,8.22-18.327,18.328-18.327c0.353,0,0.703,0.014,1.052,0.032l-0.344,1.479c-0.235-0.011-0.473-0.018-0.708-0.018
		c-9.285,0-16.837,7.553-16.837,16.834c0,6.868,4.135,12.782,10.044,15.399L36.993,79.086z M34.179,64.856l15.426-22.891
		l-3.485,18.08h7.963L38.823,83.435l2.821-18.576h-7.465V64.856z M44.132,80.531c-0.741,0-1.468-0.05-2.183-0.134l0.34-1.463
		c0.605,0.065,1.22,0.104,1.843,0.104c9.283,0,16.833-7.553,16.833-16.835c0-7.269-4.631-13.477-11.098-15.826l0.34-1.462
		c7.127,2.515,12.252,9.312,12.252,17.288C62.459,72.31,54.237,80.531,44.132,80.531z M73.024,31.394
		c-3.24,0-5.869-3.62-5.869-8.087c0-4.465,2.629-8.086,5.869-8.086c3.238,0,5.866,3.621,5.866,8.086
		C78.891,27.773,76.263,31.394,73.024,31.394z"/>
	<path fill="#857D7B" d="M15.042,31.394c-3.242,0-5.867-3.62-5.867-8.087c0-4.465,2.625-8.086,5.867-8.086
		c1.344,0,2.566,0.648,3.556,1.695V7.271H6.371v86.714h12.227V29.698C17.608,30.745,16.386,31.394,15.042,31.394z"/>
</g>
</svg>
