<?xml version="1.0" encoding="utf-8"?>
<!-- Generator: Adobe Illustrator 16.0.0, SVG Export Plug-In . SVG Version: 6.00 Build 0)  -->
<!DOCTYPE svg PUBLIC "-//W3C//DTD SVG 1.1//EN" "http://www.w3.org/Graphics/SVG/1.1/DTD/svg11.dtd">
<svg version="1.1" id="Layer_1" xmlns="http://www.w3.org/2000/svg" xmlns:xlink="http://www.w3.org/1999/xlink" x="0px" y="0px"
	 width="52.5px" height="52.5px" viewBox="0 0 52.5 52.5" enable-background="new 0 0 52.5 52.5" xml:space="preserve">
<g>
	<path fill="#DCDBDB" d="M26.363,1.069c-13.999,0-25.349,11.35-25.349,25.349c0,14,11.35,25.349,25.349,25.349
		c14,0,25.349-11.349,25.349-25.349C51.712,12.419,40.363,1.069,26.363,1.069z M26.363,47.331c-11.55,0-20.912-9.362-20.912-20.913
		c0-11.549,9.362-20.912,20.912-20.912s20.913,9.363,20.913,20.912C47.276,37.969,37.913,47.331,26.363,47.331z"/>
	<g>
		<path fill="#8C1B1C" d="M42.999,9.687c-9.215-9.214-24.205-9.214-33.42,0c-9.213,9.214-9.213,24.205,0,33.419
			c9.215,9.213,24.205,9.213,33.42,0C52.212,33.892,52.212,18.9,42.999,9.687z"/>
		<g>
			<path fill="#8C1B1C" d="M15.764,26.09l0.42,3.208l3.474-8.262l0.788,10.775l3.374-8.026h0.621l-4.452,10.689l-0.801-10.786
				l-3.28,7.64l-0.766-4.866L15.764,26.09z"/>
			<path fill="#8C1B1C" d="M5.573,23.785h1.754c0.288,0,0.561,0.035,0.812,0.106c0.254,0.07,0.475,0.174,0.661,0.307
				c0.187,0.135,0.335,0.3,0.444,0.497c0.108,0.198,0.163,0.423,0.163,0.677c0,0.253-0.052,0.473-0.157,0.658
				c-0.104,0.186-0.242,0.34-0.412,0.461c-0.172,0.123-0.366,0.214-0.584,0.275c-0.217,0.061-0.439,0.09-0.667,0.09
				c-0.097,0-0.198-0.003-0.303-0.008c-0.104-0.007-0.206-0.015-0.306-0.022c-0.098-0.01-0.188-0.019-0.271-0.029
				c-0.082-0.01-0.149-0.021-0.203-0.033v2.563H5.573V23.785z M6.505,26.45c0.103,0.029,0.215,0.058,0.336,0.084
				c0.121,0.027,0.243,0.04,0.367,0.04c0.2,0,0.376-0.03,0.526-0.091c0.149-0.061,0.273-0.142,0.373-0.246
				c0.098-0.103,0.173-0.225,0.223-0.363c0.05-0.14,0.075-0.291,0.075-0.449c0-0.186-0.032-0.354-0.098-0.506
				c-0.064-0.151-0.152-0.281-0.265-0.389S7.8,24.341,7.649,24.283s-0.312-0.086-0.486-0.086H6.505V26.45z"/>
			<path fill="#8C1B1C" d="M12.763,29.459c-0.286,0-0.561-0.035-0.822-0.105c-0.263-0.071-0.507-0.169-0.734-0.297
				c-0.227-0.127-0.432-0.279-0.619-0.459c-0.185-0.18-0.343-0.377-0.474-0.595c-0.132-0.217-0.232-0.449-0.303-0.7
				c-0.071-0.25-0.106-0.51-0.106-0.777c0-0.397,0.079-0.771,0.236-1.119c0.158-0.347,0.374-0.649,0.646-0.909
				c0.274-0.259,0.598-0.463,0.971-0.612c0.372-0.149,0.774-0.224,1.205-0.224c0.285,0,0.559,0.035,0.82,0.102
				c0.263,0.068,0.508,0.164,0.732,0.288s0.431,0.272,0.615,0.446c0.188,0.174,0.346,0.366,0.476,0.579
				c0.132,0.212,0.231,0.44,0.303,0.685c0.071,0.245,0.106,0.5,0.106,0.765c0,0.268-0.035,0.527-0.106,0.777
				c-0.071,0.251-0.171,0.483-0.303,0.7c-0.13,0.218-0.288,0.415-0.476,0.595c-0.185,0.18-0.391,0.332-0.615,0.459
				c-0.225,0.128-0.47,0.226-0.732,0.297C13.321,29.424,13.048,29.459,12.763,29.459z M12.763,29.181
				c0.314,0,0.594-0.065,0.837-0.198c0.243-0.134,0.447-0.318,0.614-0.555c0.166-0.237,0.292-0.518,0.377-0.842
				c0.086-0.324,0.129-0.678,0.129-1.061c0-0.38-0.043-0.729-0.129-1.045c-0.085-0.316-0.211-0.591-0.377-0.819
				c-0.167-0.23-0.371-0.408-0.614-0.535s-0.522-0.189-0.837-0.189c-0.325,0-0.609,0.062-0.854,0.189s-0.449,0.305-0.613,0.535
				c-0.166,0.229-0.29,0.503-0.374,0.819c-0.085,0.316-0.126,0.665-0.126,1.045c0,0.383,0.041,0.736,0.126,1.061
				c0.084,0.324,0.208,0.604,0.374,0.842c0.164,0.236,0.369,0.421,0.613,0.555C12.153,29.115,12.438,29.181,12.763,29.181z"/>
			<path fill="#8C1B1C" d="M27.692,23.785v0.359h-2.922v1.983h1.953v0.358h-1.953v2.482h2.922v0.358h-3.854v-5.542H27.692z"/>
			<path fill="#8C1B1C" d="M28.163,23.785h1.918c0.333,0,0.626,0.036,0.877,0.109c0.252,0.072,0.462,0.172,0.631,0.301
				c0.168,0.127,0.293,0.279,0.377,0.456c0.085,0.177,0.126,0.37,0.126,0.579c0,0.174-0.031,0.336-0.097,0.486
				s-0.156,0.285-0.276,0.406s-0.263,0.226-0.429,0.313c-0.166,0.089-0.352,0.156-0.555,0.203l2.015,2.688h-1.077l-1.923-2.603
				h-0.654v2.603h-0.933V23.785z M29.096,26.445h0.54c0.208,0,0.402-0.027,0.579-0.083c0.175-0.057,0.329-0.136,0.459-0.237
				c0.129-0.102,0.23-0.225,0.302-0.371c0.073-0.146,0.108-0.31,0.108-0.492c0-0.165-0.028-0.316-0.086-0.455
				s-0.138-0.257-0.242-0.356c-0.104-0.098-0.229-0.176-0.371-0.23c-0.144-0.057-0.301-0.086-0.472-0.086h-0.817V26.445z"/>
			<path fill="#8C1B1C" d="M33.073,23.785h0.521l3.632,4.053h0.034v-4.053h0.411v5.674h-0.217l-3.932-4.506h-0.03v4.374h-0.42
				V23.785z"/>
			<path fill="#8C1B1C" d="M42.17,23.785v0.359h-2.921v1.983h1.953v0.358h-1.953v2.482h2.921v0.358h-3.854v-5.542H42.17z"/>
			<path fill="#8C1B1C" d="M47.609,23.785v0.359h-2.006v5.183h-0.933v-5.183h-2.007v-0.359H47.609z"/>
		</g>
		<g>
			<path fill="#9C9473" d="M16.019,25.928l0.421,3.208l3.474-8.263L20.7,31.648l3.374-8.025h0.622l-4.452,10.689l-0.802-10.785
				l-3.279,7.638L15.396,26.3L16.019,25.928z"/>
			<path fill="#9C9473" d="M5.828,23.623h1.754c0.289,0,0.56,0.035,0.813,0.106c0.254,0.07,0.473,0.173,0.66,0.308
				c0.188,0.134,0.336,0.299,0.445,0.496c0.107,0.198,0.163,0.423,0.163,0.676c0,0.254-0.053,0.474-0.157,0.659
				c-0.104,0.187-0.243,0.34-0.413,0.461c-0.171,0.123-0.365,0.215-0.583,0.274c-0.218,0.061-0.44,0.091-0.668,0.091
				c-0.096,0-0.197-0.003-0.303-0.009c-0.104-0.006-0.206-0.013-0.305-0.022c-0.099-0.009-0.188-0.018-0.271-0.027
				c-0.082-0.012-0.15-0.022-0.203-0.034v2.563H5.828V23.623z M6.761,26.288c0.103,0.028,0.215,0.058,0.336,0.084
				s0.242,0.04,0.366,0.04c0.2,0,0.376-0.031,0.526-0.091s0.274-0.143,0.373-0.245c0.099-0.104,0.173-0.226,0.224-0.365
				c0.05-0.14,0.075-0.289,0.075-0.448c0-0.187-0.033-0.354-0.098-0.506s-0.153-0.281-0.265-0.389
				c-0.112-0.107-0.243-0.19-0.394-0.248c-0.15-0.057-0.312-0.086-0.486-0.086H6.761V26.288z"/>
			<path fill="#9C9473" d="M13.018,29.297c-0.286,0-0.561-0.035-0.823-0.105c-0.261-0.071-0.506-0.17-0.732-0.296
				c-0.227-0.127-0.433-0.28-0.619-0.46c-0.186-0.18-0.344-0.378-0.475-0.594c-0.131-0.217-0.232-0.45-0.303-0.701
				c-0.07-0.25-0.105-0.51-0.105-0.777c0-0.398,0.078-0.771,0.235-1.118s0.374-0.651,0.647-0.91c0.274-0.26,0.598-0.463,0.97-0.612
				c0.373-0.149,0.774-0.223,1.205-0.223c0.285,0,0.56,0.033,0.821,0.102c0.262,0.067,0.506,0.163,0.731,0.288
				c0.226,0.122,0.431,0.271,0.616,0.445c0.186,0.173,0.344,0.367,0.476,0.578c0.13,0.212,0.231,0.44,0.303,0.685
				c0.07,0.245,0.105,0.5,0.105,0.766c0,0.268-0.035,0.527-0.105,0.777c-0.071,0.251-0.173,0.484-0.303,0.701
				c-0.132,0.216-0.29,0.414-0.476,0.594s-0.391,0.333-0.616,0.46c-0.226,0.126-0.47,0.225-0.731,0.296
				C13.577,29.262,13.303,29.297,13.018,29.297z M13.018,29.02c0.315,0,0.594-0.067,0.837-0.199
				c0.243-0.133,0.447-0.317,0.614-0.556c0.166-0.235,0.292-0.518,0.378-0.841c0.085-0.325,0.127-0.678,0.127-1.061
				c0-0.381-0.042-0.729-0.127-1.045c-0.086-0.317-0.212-0.59-0.378-0.82c-0.167-0.23-0.371-0.407-0.614-0.534
				s-0.521-0.191-0.837-0.191c-0.324,0-0.608,0.064-0.854,0.191c-0.244,0.127-0.448,0.304-0.613,0.534s-0.29,0.503-0.374,0.82
				c-0.084,0.316-0.125,0.664-0.125,1.045c0,0.383,0.041,0.735,0.125,1.061c0.084,0.323,0.209,0.605,0.374,0.841
				c0.165,0.238,0.369,0.423,0.613,0.556C12.409,28.952,12.693,29.02,13.018,29.02z"/>
			<path fill="#9C9473" d="M27.947,23.623v0.357h-2.921v1.984h1.953v0.358h-1.953v2.483h2.921v0.358h-3.854v-5.542H27.947z"/>
			<path fill="#9C9473" d="M28.419,23.623h1.918c0.332,0,0.625,0.036,0.877,0.108s0.461,0.172,0.629,0.301
				c0.169,0.129,0.295,0.28,0.379,0.457s0.125,0.369,0.125,0.579c0,0.173-0.031,0.336-0.097,0.486
				c-0.065,0.149-0.157,0.285-0.276,0.405c-0.119,0.122-0.262,0.227-0.428,0.314c-0.167,0.089-0.352,0.157-0.555,0.203l2.015,2.688
				h-1.078l-1.922-2.604h-0.654v2.604h-0.933V23.623z M29.352,26.283h0.538c0.21,0,0.403-0.027,0.58-0.084
				c0.176-0.056,0.33-0.135,0.459-0.236c0.13-0.102,0.23-0.226,0.303-0.371s0.107-0.31,0.107-0.493c0-0.165-0.027-0.315-0.085-0.454
				s-0.139-0.258-0.243-0.356s-0.229-0.176-0.371-0.231s-0.301-0.085-0.471-0.085h-0.817V26.283z"/>
			<path fill="#9C9473" d="M33.328,23.623h0.521l3.632,4.052h0.035v-4.052h0.411v5.674h-0.217l-3.933-4.508h-0.03v4.376h-0.42
				V23.623z"/>
			<path fill="#9C9473" d="M42.425,23.623v0.357h-2.921v1.984h1.953v0.358h-1.953v2.483h2.921v0.358h-3.854v-5.542H42.425z"/>
			<path fill="#9C9473" d="M47.864,23.623v0.357h-2.006v5.185h-0.933V23.98H42.92v-0.357H47.864z"/>
		</g>
		<linearGradient id="SVGID_1_" gradientUnits="userSpaceOnUse" x1="9.4482" y1="9.7617" x2="21.701" y2="21.592">
			<stop  offset="0.0051" style="stop-color:#FFFFFF"/>
			<stop  offset="1" style="stop-color:#FFFFFF;stop-opacity:0"/>
		</linearGradient>
		<path opacity="0.3" fill="url(#SVGID_1_)" d="M31.629,6.465L6.484,31.61c-2.507-3.494-0.841-14.089,5.13-20.104
			C17.674,5.402,28.085,3.923,31.629,6.465z"/>
	</g>
	<g opacity="0.3">
		<path fill="#DCDBDB" d="M20.021,37.431c-4.771-2.812-7.338-8.533-5.896-14.16c1.746-6.818,8.714-10.944,15.532-9.198
			c5.625,1.441,9.408,6.439,9.581,11.975l1.194,2.015c0.805-6.867-3.58-13.463-10.459-15.226
			c-7.501-1.921-15.164,2.618-17.086,10.117c-1.762,6.881,1.916,13.897,8.327,16.492L20.021,37.431z"/>
		<path fill="#DCDBDB" d="M26.508,6.853c-8.754,0-16.184,5.777-18.677,13.721h1.348C11.625,13.347,18.467,8.13,26.508,8.13
			c10.088,0,18.294,8.206,18.294,18.293c0,10.088-8.206,18.294-18.294,18.294c-2.839,0-5.528-0.649-7.928-1.808h-2.599
			c3.043,1.949,6.653,3.085,10.526,3.085c10.79,0,19.57-8.779,19.57-19.571C46.078,15.632,37.298,6.853,26.508,6.853z"/>
		<path fill="#DCDBDB" d="M41.516,22.447c0.013,0.051,0.029,0.1,0.042,0.15c2.109,8.299-2.926,16.767-11.224,18.876
			c-8.3,2.109-16.767-2.926-18.877-11.225C9.405,22.181,14.11,13.953,22,11.564l0.926-1.556c-0.187,0.041-0.373,0.08-0.558,0.127
			C13.387,12.419,7.937,21.583,10.22,30.563c2.283,8.981,11.447,14.431,20.428,12.146c8.981-2.282,14.431-11.446,12.147-20.428
			c-0.114-0.448-0.25-0.886-0.398-1.316L41.516,22.447z"/>
	</g>
</g>
</svg>
