<?xml version="1.0" encoding="utf-8"?>
<!-- Generator: Adobe Illustrator 16.0.0, SVG Export Plug-In . SVG Version: 6.00 Build 0)  -->
<!DOCTYPE svg PUBLIC "-//W3C//DTD SVG 1.1//EN" "http://www.w3.org/Graphics/SVG/1.1/DTD/svg11.dtd">
<svg version="1.1" id="Layer_1" xmlns="http://www.w3.org/2000/svg" xmlns:xlink="http://www.w3.org/1999/xlink" x="0px" y="0px"
	 width="74.667px" height="124px" viewBox="0 0 74.667 124" enable-background="new 0 0 74.667 124" xml:space="preserve">
<g>
	<g>
		<polygon fill="#FFFFFF" stroke="#000000" stroke-miterlimit="10" points="11.571,102.051 43.036,120.288 43.036,110.877 
			11.571,93.762 		"/>
		<polygon fill="#FFFFFF" stroke="#000000" stroke-miterlimit="10" points="39.056,41.476 68.026,25.176 68.026,106.166 
			42.982,120.292 42.982,113.356 39.056,115.594 		"/>
		<polygon fill="#FFFFFF" stroke="#000000" stroke-miterlimit="10" points="7.591,97.358 39.056,115.594 39.056,41.539 
			7.591,23.234 		"/>
		<g>
			<polygon fill="#FFFFFF" stroke="#000000" stroke-miterlimit="10" points="39.099,41.516 68.036,25.206 37.005,6.984 7.591,23.28 
							"/>
		</g>
		<polygon fill="#FFFFFF" stroke="#000000" stroke-miterlimit="10" points="21.99,105.656 22.445,105.95 22.445,31.959 
			25.753,29.904 25.299,29.61 21.99,31.702 		"/>
		<polygon fill="#FFFFFF" stroke="#000000" stroke-miterlimit="10" points="42.972,113.234 42.518,113.528 42.518,39.613 
			42.972,39.318 		"/>
		<polygon fill="#FFFFFF" stroke="#000000" stroke-miterlimit="10" points="42.972,39.433 42.518,39.727 11.017,21.268 
			11.47,20.973 		"/>
	</g>
	<g>
		<g>
			<g>
				<g>
					<path fill="#FFFFFF" stroke="#000000" stroke-miterlimit="10" d="M25.147,71.207c0,0,0.053-0.336-0.133-0.576
						c-0.185-0.24-0.498-0.241-0.498-0.241l-1.667,1.288l0.631,0.817L25.147,71.207z"/>
				</g>
				<g>
					<path fill="#FFFFFF" stroke="#000000" stroke-miterlimit="10" d="M24.976,63.311c0,0,0.053-0.336-0.132-0.576
						c-0.185-0.24-0.499-0.241-0.499-0.241l-1.666,1.288l0.631,0.817L24.976,63.311z"/>
				</g>
				<polygon fill="#FFFFFF" stroke="#000000" stroke-miterlimit="10" points="22.681,71.985 23.491,72.493 23.491,64.28 
					22.681,63.773 				"/>
			</g>
			<g>
				<g>
					<path fill="#FFFFFF" stroke="#000000" stroke-miterlimit="10" d="M21.679,68.895c0,0,0.054-0.337-0.131-0.576
						c-0.186-0.24-0.5-0.241-0.5-0.241l-1.666,1.288l0.631,0.816L21.679,68.895z"/>
				</g>
				<g>
					<path fill="#FFFFFF" stroke="#000000" stroke-miterlimit="10" d="M21.509,60.999c0,0,0.053-0.336-0.133-0.576
						c-0.186-0.24-0.498-0.241-0.498-0.241l-1.667,1.288l0.632,0.817L21.509,60.999z"/>
				</g>
				<polygon fill="#FFFFFF" stroke="#000000" stroke-miterlimit="10" points="19.213,69.673 20.023,70.18 20.023,61.968 
					19.213,61.461 				"/>
			</g>
		</g>
		<g>
			<g>
				<polygon fill="#FFFFFF" stroke="#000000" stroke-miterlimit="10" points="18.802,52.186 9.253,46.547 9.229,59.323 18.76,64.93 
									"/>
				<polygon fill="#FFFFFF" stroke="#000000" stroke-miterlimit="10" points="17.968,52.753 10.119,48.04 10.112,58.768 
					17.956,63.402 				"/>
				<polygon fill="#FFFFFF" stroke="#000000" stroke-miterlimit="10" points="17.948,60.618 12.524,57.41 10.13,58.799 17.948,63.4 
									"/>
				<polygon fill="#FFFFFF" stroke="#000000" stroke-miterlimit="10" points="12.479,49.456 12.513,57.392 10.119,58.781 
					10.128,48.049 				"/>
			</g>
			<g>
				<polygon fill="#FFFFFF" stroke="#000000" stroke-miterlimit="10" points="16.064,49.801 17.099,50.435 17.099,49.338 
					16.064,48.706 				"/>
				<polygon fill="#FFFFFF" stroke="#000000" stroke-miterlimit="10" points="13.944,48.645 14.979,49.278 14.979,48.183 
					13.944,47.549 				"/>
				<polygon fill="#FFFFFF" stroke="#000000" stroke-miterlimit="10" points="11.825,47.457 12.858,48.09 12.858,46.994 
					11.825,46.361 				"/>
			</g>
		</g>
	</g>
</g>
</svg>
